<svg xmlns="http://www.w3.org/2000/svg" xmlns:xlink="http://www.w3.org/1999/xlink" width="816" zoomAndPan="magnify" viewBox="0 0 612 135.000003" height="180" preserveAspectRatio="xMidYMid meet" version="1.0"><defs><g/><clipPath id="3ae468138d"><path d="M 2.25 0 L 609.75 0 L 609.75 134.007812 L 2.25 134.007812 Z M 2.25 0 " clip-rule="nonzero"/></clipPath><clipPath id="e0f50a370f"><path d="M 2.25 27.839844 L 609.015625 27.839844 L 609.015625 106.066406 L 2.25 106.066406 Z M 2.25 27.839844 " clip-rule="nonzero"/></clipPath></defs><g clip-path="url(#3ae468138d)"><path fill="#ffffff" d="M 2.25 0 L 609.75 0 L 609.75 134.007812 L 2.25 134.007812 Z M 2.25 0 " fill-opacity="1" fill-rule="nonzero"/></g><g clip-path="url(#e0f50a370f)"><path fill="#d0e7d2" d="M 2.25 27.839844 L 609.113281 27.839844 L 609.113281 106.066406 L 2.25 106.066406 Z M 2.25 27.839844 " fill-opacity="1" fill-rule="nonzero"/></g><g fill="#604d3d" fill-opacity="1"><g transform="translate(201.057991, 81.841153)"><g><path d="M 21.789062 3.601562 C 22.039062 3.601562 22.292969 3.351562 22.292969 3.101562 C 22.292969 3.015625 22.292969 2.933594 22.207031 2.847656 C 21.789062 2.011719 23.882812 -1.59375 29.246094 -8.632812 C 33.351562 -8.546875 37.878906 -8.296875 42.988281 -7.960938 C 43.242188 -7.960938 43.492188 -8.210938 43.492188 -8.464844 C 43.492188 -8.714844 43.242188 -8.882812 42.988281 -8.964844 C 38.214844 -9.21875 33.9375 -9.46875 30 -9.636719 C 31.84375 -12.066406 34.105469 -14.917969 36.703125 -18.269531 C 40.140625 -22.457031 42.90625 -25.976562 43.242188 -26.898438 C 43.578125 -27.820312 43.242188 -28.410156 42.320312 -28.410156 C 38.296875 -28.410156 23.378906 -18.605469 11.480469 -9.554688 C 6.535156 -9.300781 2.597656 -8.800781 -0.585938 -8.128906 C -0.839844 -8.042969 -1.003906 -7.878906 -1.003906 -7.625 C -1.003906 -7.375 -0.753906 -7.125 -0.503906 -7.125 L -0.417969 -7.125 C 2.429688 -7.792969 5.867188 -8.210938 10.054688 -8.464844 C 6.203125 -5.53125 2.765625 -2.679688 0.167969 -0.335938 C 0.0820312 -0.25 0 -0.167969 0 0 C 0 0.25 0.25 0.503906 0.503906 0.503906 C 0.585938 0.503906 0.753906 0.417969 0.839844 0.335938 C 3.601562 -2.179688 7.542969 -5.363281 11.816406 -8.632812 C 16.339844 -8.882812 21.621094 -8.882812 28.074219 -8.714844 C 22.625 -1.59375 20.613281 2.011719 21.371094 3.351562 C 21.453125 3.519531 21.621094 3.601562 21.789062 3.601562 Z M 13.15625 -9.636719 C 24.722656 -18.351562 38.632812 -27.488281 42.320312 -27.488281 C 42.488281 -27.488281 42.488281 -27.652344 42.320312 -27.234375 C 42.066406 -26.480469 39.386719 -23.128906 35.949219 -18.855469 L 28.742188 -9.636719 C 22.625 -9.804688 17.515625 -9.804688 13.15625 -9.636719 Z M 13.15625 -9.636719 "/></g></g></g><g fill="#604d3d" fill-opacity="1"><g transform="translate(240.441443, 81.841153)"><g><path d="M -2.261719 1.339844 C -1.925781 1.339844 -1.507812 0.839844 -0.921875 0.335938 C 0.167969 -0.671875 2.011719 -2.347656 4.023438 -3.855469 C 7.457031 -6.367188 9.804688 -7.710938 10.976562 -7.710938 C 11.398438 -7.710938 11.648438 -7.625 11.648438 -7.207031 C 11.648438 -6.035156 10.644531 -4.441406 9.300781 -3.101562 L 8.882812 -3.101562 C 4.691406 -2.515625 2.679688 -2.179688 2.679688 -0.921875 C 2.679688 0 3.4375 0.585938 4.441406 0.585938 C 6.117188 0.585938 8.128906 -0.671875 9.804688 -2.261719 C 14.246094 -2.847656 20.113281 -3.6875 24.554688 -6.453125 C 24.636719 -6.535156 24.722656 -6.703125 24.722656 -6.871094 C 24.722656 -7.125 24.554688 -7.289062 24.300781 -7.289062 L 24.050781 -7.289062 C 20.113281 -4.859375 15 -3.9375 10.808594 -3.351562 C 11.898438 -4.609375 12.570312 -6.035156 12.570312 -7.207031 C 12.570312 -8.128906 12.066406 -8.714844 11.144531 -8.714844 C 9.636719 -8.714844 7.125 -7.289062 3.519531 -4.609375 C 1.339844 -3.101562 -0.503906 -1.425781 -0.839844 -1.089844 C -1.507812 -0.503906 -1.675781 -0.503906 -1.339844 -1.171875 C -0.585938 -2.515625 0.671875 -4.441406 2.261719 -6.621094 C 19.691406 -17.933594 36.453125 -36.957031 36.453125 -41.144531 C 36.453125 -42.066406 35.949219 -42.570312 35.027344 -42.570312 C 31.507812 -42.570312 10.976562 -20.113281 1.675781 -7.375 L 1.59375 -7.289062 C -1.171875 -3.519531 -2.933594 -0.503906 -2.933594 0.671875 C -2.933594 1.003906 -2.679688 1.339844 -2.261719 1.339844 Z M 4.023438 -8.964844 C 13.828125 -21.621094 32.097656 -41.566406 35.027344 -41.566406 C 35.449219 -41.566406 35.53125 -41.480469 35.53125 -41.144531 C 35.53125 -37.457031 20.449219 -20.28125 4.023438 -8.964844 Z M 4.441406 -0.417969 C 3.9375 -0.417969 3.6875 -0.585938 3.6875 -0.921875 C 3.6875 -1.171875 4.777344 -1.507812 8.042969 -2.011719 C 6.871094 -1.003906 5.53125 -0.417969 4.441406 -0.417969 Z M 4.441406 -0.417969 "/></g></g></g><g fill="#604d3d" fill-opacity="1"><g transform="translate(262.814601, 81.841153)"><g><path d="M -0.503906 0.671875 C 2.179688 0.671875 4.777344 -3.855469 4.273438 -7.125 C 4.273438 -7.289062 4.359375 -7.457031 4.523438 -7.289062 C 9.386719 -4.273438 15.839844 -3.9375 20.195312 -6.453125 C 20.363281 -6.535156 20.53125 -6.703125 20.53125 -6.871094 C 20.53125 -7.125 20.28125 -7.289062 20.027344 -7.289062 L 19.777344 -7.289062 C 15.753906 -4.945312 9.886719 -5.28125 5.363281 -7.960938 C 5.195312 -8.042969 5.195312 -8.128906 5.363281 -8.210938 C 5.445312 -8.296875 5.613281 -8.296875 5.699219 -8.378906 C 5.949219 -8.378906 6.035156 -8.546875 6.035156 -8.800781 C 6.035156 -9.050781 5.867188 -9.300781 5.613281 -9.300781 C 5.53125 -9.300781 5.445312 -9.300781 5.445312 -9.21875 C 5.027344 -9.132812 4.609375 -8.964844 4.273438 -8.800781 C 4.105469 -8.714844 4.105469 -8.714844 3.9375 -8.800781 C 3.601562 -8.882812 3.269531 -8.632812 3.101562 -8.296875 C 3.101562 -8.210938 3.015625 -8.210938 3.015625 -8.128906 C 0.0820312 -6.367188 -2.09375 -3.601562 -2.09375 -1.257812 C -2.09375 -0.0820312 -1.507812 0.671875 -0.503906 0.671875 Z M -0.503906 -0.25 C -0.921875 -0.25 -1.171875 -0.585938 -1.171875 -1.257812 C -1.171875 -3.183594 0.753906 -5.613281 3.351562 -7.207031 C 3.769531 -4.523438 1.507812 -0.25 -0.503906 -0.25 Z M -0.503906 -0.25 "/></g></g></g><g fill="#604d3d" fill-opacity="1"><g transform="translate(280.914228, 81.841153)"><g><path d="M 9.886719 0 C 12.820312 0 20.949219 -3.601562 25.222656 -6.535156 C 25.308594 -6.621094 25.390625 -6.703125 25.390625 -6.871094 C 25.390625 -7.125 25.222656 -7.375 24.972656 -7.375 C 24.804688 -7.375 24.722656 -7.375 24.636719 -7.289062 C 20.28125 -4.273438 12.484375 -0.921875 9.886719 -0.921875 C 8.378906 -0.921875 7.792969 -1.425781 7.792969 -2.515625 C 7.792969 -4.105469 9.636719 -6.203125 10.894531 -7.625 C 11.816406 -8.714844 12.570312 -9.804688 11.398438 -9.804688 C 10.894531 -9.804688 9.804688 -8.882812 7.125 -6.703125 C 2.847656 -3.269531 0.417969 -1.59375 -0.585938 -1.59375 C -0.753906 -1.59375 -0.839844 -1.761719 -0.839844 -2.011719 C -0.839844 -3.101562 0.839844 -5.363281 3.6875 -7.878906 C 3.769531 -7.960938 3.855469 -8.042969 3.855469 -8.210938 C 3.855469 -8.464844 3.601562 -8.714844 3.351562 -8.714844 C 3.183594 -8.714844 3.101562 -8.632812 3.015625 -8.546875 C -0.0820312 -5.78125 -1.84375 -3.4375 -1.84375 -1.925781 C -1.84375 -1.171875 -1.339844 -0.671875 -0.585938 -0.671875 C 0.753906 -0.671875 3.183594 -2.261719 7.710938 -5.949219 C 8.714844 -6.703125 8.632812 -6.535156 8.042969 -5.699219 C 7.375 -4.609375 6.871094 -3.519531 6.871094 -2.515625 C 6.871094 -0.839844 7.878906 0 9.886719 0 Z M 9.886719 0 "/></g></g></g><g fill="#604d3d" fill-opacity="1"><g transform="translate(303.957742, 81.841153)"><g><path d="M -17.683594 21.285156 C -17.261719 21.285156 -16.761719 20.613281 -16.339844 19.945312 C -16.171875 19.691406 -16.171875 19.441406 -16.339844 19.359375 C -8.378906 6.871094 1.761719 -6.203125 12.152344 -18.351562 C 19.441406 -18.6875 26.898438 -18.6875 34.023438 -18.4375 C 34.359375 -18.4375 34.527344 -18.605469 34.527344 -18.855469 C 34.527344 -19.105469 34.359375 -19.359375 34.105469 -19.359375 C 27.152344 -19.609375 20.027344 -19.609375 13.074219 -19.359375 C 17.597656 -24.636719 22.125 -29.75 26.648438 -34.609375 C 26.734375 -34.695312 26.734375 -34.859375 26.734375 -34.945312 C 26.734375 -35.195312 26.566406 -35.449219 26.230469 -35.449219 C 26.144531 -35.449219 25.976562 -35.363281 25.894531 -35.28125 C 21.203125 -30.167969 16.425781 -24.804688 11.730469 -19.273438 C 4.191406 -19.023438 -3.101562 -18.4375 -9.636719 -17.597656 C -9.886719 -17.515625 -10.054688 -17.347656 -10.054688 -17.09375 C -10.054688 -16.84375 -9.804688 -16.59375 -9.554688 -16.59375 L -9.46875 -16.59375 C -3.269531 -17.429688 3.6875 -18.015625 10.894531 -18.351562 C 0.335938 -5.949219 -9.804688 7.207031 -17.847656 19.859375 C -17.933594 20.027344 -18.015625 20.195312 -18.101562 20.363281 L -18.183594 20.449219 C -18.351562 20.949219 -18.269531 21.285156 -17.683594 21.285156 Z M -17.683594 21.285156 "/></g></g></g><g fill="#604d3d" fill-opacity="1"><g transform="translate(316.443137, 81.841153)"><g/></g></g><g fill="#604d3d" fill-opacity="1"><g transform="translate(334.961742, 81.841153)"><g><path d="M 33.773438 0.921875 C 34.191406 0.921875 34.695312 0.335938 35.195312 -0.167969 C 35.363281 -0.417969 35.363281 -0.671875 35.195312 -0.753906 C 45.167969 -12.152344 51.871094 -21.203125 51.871094 -24.46875 C 51.871094 -25.558594 51.203125 -26.144531 50.113281 -26.144531 C 46.929688 -26.144531 38.800781 -18.855469 31.175781 -10.726562 C 30.671875 -10.140625 30.503906 -10.390625 30.921875 -10.894531 C 33.519531 -14.75 35.28125 -17.847656 35.28125 -19.777344 C 35.28125 -21.117188 34.441406 -21.871094 32.933594 -21.871094 C 30.921875 -21.871094 28.242188 -20.53125 25.390625 -18.4375 C 26.398438 -20.613281 27.066406 -22.542969 27.066406 -24.050781 C 27.066406 -25.894531 25.976562 -27.066406 24.386719 -27.066406 C 20.867188 -27.066406 16.84375 -24.46875 12.652344 -19.691406 C 12.570312 -19.609375 12.570312 -19.527344 12.570312 -19.359375 C 12.570312 -19.105469 12.738281 -18.9375 12.988281 -18.9375 C 13.15625 -18.9375 13.324219 -18.9375 13.40625 -19.105469 C 17.429688 -23.632812 21.203125 -26.0625 24.386719 -26.0625 C 25.476562 -26.0625 26.0625 -25.308594 26.0625 -24.050781 C 26.0625 -22.292969 25.140625 -19.777344 23.714844 -17.179688 C 16.507812 -11.480469 8.882812 -2.429688 8.882812 -0.503906 C 8.882812 -0.0820312 9.21875 0.25 9.722656 0.25 C 11.984375 0.25 20.195312 -8.882812 24.46875 -16.59375 C 27.652344 -19.105469 30.753906 -20.867188 32.933594 -20.867188 C 33.855469 -20.867188 34.273438 -20.53125 34.273438 -19.777344 C 34.273438 -17.09375 30.085938 -11.3125 26.816406 -6.703125 C 25.8125 -5.28125 24.890625 -4.023438 24.21875 -3.015625 C 24.050781 -2.765625 24.132812 -2.515625 24.386719 -2.347656 C 24.636719 -2.179688 24.890625 -2.179688 25.054688 -2.429688 C 32.011719 -11.0625 46.089844 -25.222656 50.113281 -25.222656 C 50.699219 -25.222656 50.867188 -24.972656 50.867188 -24.46875 C 50.867188 -21.535156 43.910156 -12.152344 33.855469 -0.671875 C 33.519531 -0.25 33.269531 0.0820312 33.269531 0.335938 C 33.269531 0.671875 33.4375 0.921875 33.773438 0.921875 Z M 10.390625 -0.921875 C 9.972656 -0.753906 9.972656 -0.921875 10.140625 -1.257812 C 11.230469 -3.4375 15.585938 -8.632812 20.449219 -13.15625 C 21.703125 -14.328125 22.542969 -14.917969 22.457031 -14.832031 C 18.605469 -8.882812 12.738281 -2.261719 10.390625 -0.921875 Z M 10.390625 -0.921875 "/></g></g></g><g fill="#604d3d" fill-opacity="1"><g transform="translate(383.395012, 81.841153)"><g><path d="M 2.765625 0.25 C 5.363281 0.25 13.492188 -2.09375 19.359375 -6.453125 C 19.527344 -6.535156 19.609375 -6.703125 19.609375 -6.871094 C 19.609375 -7.125 19.359375 -7.289062 19.105469 -7.289062 C 19.023438 -7.289062 18.9375 -7.289062 18.855469 -7.207031 C 13.074219 -3.015625 5.195312 -0.753906 2.765625 -0.753906 C 0.839844 -0.753906 -0.167969 -1.257812 -0.167969 -2.347656 C -0.167969 -3.4375 0.671875 -4.777344 1.761719 -5.949219 C 2.261719 -5.699219 2.933594 -5.613281 3.855469 -5.613281 C 5.363281 -5.613281 7.289062 -6.871094 7.289062 -7.960938 C 7.289062 -8.800781 6.703125 -9.300781 5.78125 -9.300781 C 3.015625 -9.300781 -1.171875 -5.113281 -1.171875 -2.347656 C -1.171875 -0.671875 0.335938 0.25 2.765625 0.25 Z M 3.855469 -6.535156 C 3.269531 -6.535156 2.847656 -6.621094 2.515625 -6.703125 C 3.601562 -7.625 4.777344 -8.296875 5.78125 -8.296875 C 6.203125 -8.296875 6.367188 -8.210938 6.367188 -7.960938 C 6.367188 -7.457031 4.777344 -6.535156 3.855469 -6.535156 Z M 3.855469 -6.535156 "/></g></g></g></svg>