<svg xmlns="http://www.w3.org/2000/svg" xmlns:xlink="http://www.w3.org/1999/xlink" width="500" zoomAndPan="magnify" viewBox="0 0 375 374.999991" height="500" preserveAspectRatio="xMidYMid meet" version="1.0"><defs><clipPath id="36f77bbdcf"><path d="M 187.5 0 C 83.945312 0 0 83.945312 0 187.5 C 0 291.054688 83.945312 375 187.5 375 C 291.054688 375 375 291.054688 375 187.5 C 375 83.945312 291.054688 0 187.5 0 Z M 187.5 0 " clip-rule="nonzero"/></clipPath><clipPath id="8ca3621a33"><path d="M 67.625 67.625 L 307.625 67.625 L 307.625 307.625 L 67.625 307.625 Z M 67.625 67.625 " clip-rule="nonzero"/></clipPath></defs><rect x="-37.5" width="450" fill="#ffffff" y="-37.499999" height="449.999989" fill-opacity="1"/><rect x="-37.5" width="450" fill="#ffffff" y="-37.499999" height="449.999989" fill-opacity="1"/><g clip-path="url(#36f77bbdcf)"><rect x="-37.5" width="450" fill="#ffe5fe" y="-37.499999" height="449.999989" fill-opacity="1"/></g><path fill="#000000" d="M 269.660156 149.25 C 269.660156 149.0625 269.660156 148.878906 269.605469 148.6875 C 269.566406 147.882812 269.488281 147.082031 269.371094 146.28125 C 269.253906 145.484375 269.101562 144.691406 268.910156 143.910156 C 268.71875 143.125 268.492188 142.351562 268.226562 141.589844 C 267.964844 140.828125 267.664062 140.082031 267.328125 139.347656 C 266.992188 138.613281 266.625 137.898438 266.21875 137.199219 C 265.816406 136.5 265.382812 135.824219 264.914062 135.164062 C 264.445312 134.507812 263.949219 133.875 263.417969 133.265625 C 262.890625 132.65625 262.335938 132.070312 261.753906 131.515625 C 261.167969 130.957031 260.558594 130.429688 259.925781 129.929688 C 259.292969 129.429688 258.636719 128.964844 257.960938 128.527344 C 257.28125 128.089844 256.582031 127.6875 255.867188 127.316406 C 255.152344 126.945312 254.417969 126.609375 253.671875 126.308594 C 252.921875 126.007812 252.160156 125.742188 251.386719 125.511719 C 250.613281 125.285156 249.832031 125.09375 249.039062 124.9375 C 248.246094 124.785156 247.449219 124.667969 246.648438 124.589844 C 245.84375 124.511719 245.039062 124.46875 244.234375 124.46875 L 131.015625 124.46875 C 130.210938 124.46875 129.40625 124.511719 128.601562 124.589844 C 127.800781 124.667969 127.003906 124.785156 126.210938 124.9375 C 125.417969 125.09375 124.636719 125.285156 123.863281 125.511719 C 123.089844 125.742188 122.328125 126.007812 121.582031 126.308594 C 120.832031 126.609375 120.097656 126.945312 119.382812 127.316406 C 118.667969 127.6875 117.96875 128.089844 117.292969 128.527344 C 116.613281 128.964844 115.957031 129.429688 115.324219 129.929688 C 114.691406 130.429688 114.082031 130.957031 113.5 131.515625 C 112.914062 132.070312 112.359375 132.65625 111.832031 133.265625 C 111.304688 133.875 110.804688 134.507812 110.335938 135.164062 C 109.871094 135.824219 109.433594 136.5 109.03125 137.199219 C 108.625 137.898438 108.257812 138.613281 107.921875 139.347656 C 107.585938 140.082031 107.285156 140.828125 107.023438 141.589844 C 106.757812 142.351562 106.53125 143.125 106.339844 143.910156 C 106.148438 144.691406 105.996094 145.484375 105.878906 146.28125 C 105.761719 147.082031 105.6875 147.882812 105.644531 148.6875 C 105.644531 148.882812 105.609375 149.0625 105.589844 149.257812 C 105.570312 149.453125 105.519531 149.730469 105.519531 149.964844 L 105.519531 225.285156 C 105.519531 226.121094 105.5625 226.953125 105.644531 227.785156 C 105.726562 228.613281 105.851562 229.441406 106.015625 230.257812 C 106.179688 231.078125 106.382812 231.886719 106.625 232.683594 C 106.867188 233.484375 107.148438 234.265625 107.46875 235.039062 C 107.789062 235.808594 108.144531 236.5625 108.539062 237.300781 C 108.933594 238.035156 109.363281 238.75 109.828125 239.445312 C 110.289062 240.136719 110.789062 240.808594 111.316406 241.453125 C 111.847656 242.097656 112.40625 242.714844 112.996094 243.304688 C 113.585938 243.894531 114.203125 244.457031 114.851562 244.984375 C 115.496094 245.515625 116.164062 246.011719 116.859375 246.476562 C 117.554688 246.941406 118.269531 247.371094 119.003906 247.761719 C 119.738281 248.15625 120.492188 248.515625 121.265625 248.832031 C 122.035156 249.152344 122.820312 249.433594 123.617188 249.679688 C 124.417969 249.921875 125.226562 250.125 126.042969 250.289062 C 126.863281 250.453125 127.6875 250.574219 128.519531 250.65625 C 129.347656 250.738281 130.183594 250.78125 131.015625 250.78125 L 244.234375 250.78125 C 245.066406 250.78125 245.902344 250.738281 246.730469 250.65625 C 247.5625 250.574219 248.386719 250.449219 249.207031 250.285156 C 250.023438 250.125 250.832031 249.917969 251.628906 249.675781 C 252.429688 249.433594 253.214844 249.152344 253.984375 248.832031 C 254.757812 248.511719 255.507812 248.15625 256.246094 247.761719 C 256.980469 247.367188 257.695312 246.9375 258.390625 246.472656 C 259.082031 246.011719 259.753906 245.511719 260.398438 244.984375 C 261.042969 244.453125 261.660156 243.894531 262.25 243.304688 C 262.839844 242.714844 263.402344 242.097656 263.929688 241.449219 C 264.460938 240.804688 264.957031 240.136719 265.421875 239.441406 C 265.886719 238.75 266.316406 238.035156 266.707031 237.296875 C 267.101562 236.5625 267.460938 235.808594 267.78125 235.039062 C 268.097656 234.265625 268.382812 233.480469 268.625 232.683594 C 268.867188 231.886719 269.070312 231.078125 269.234375 230.257812 C 269.398438 229.4375 269.519531 228.613281 269.605469 227.785156 C 269.6875 226.953125 269.730469 226.121094 269.730469 225.285156 L 269.730469 149.964844 C 269.730469 149.730469 269.667969 149.496094 269.660156 149.25 Z M 131.015625 137.097656 L 244.234375 137.097656 C 244.925781 137.101562 245.613281 137.160156 246.296875 137.273438 C 246.976562 137.386719 247.648438 137.554688 248.300781 137.777344 C 248.957031 137.996094 249.589844 138.269531 250.203125 138.59375 C 250.8125 138.917969 251.394531 139.289062 251.945312 139.707031 C 252.5 140.125 253.011719 140.582031 253.488281 141.085938 C 253.96875 141.585938 254.402344 142.121094 254.792969 142.691406 C 255.183594 143.265625 255.523438 143.863281 255.816406 144.488281 C 256.113281 145.117188 256.355469 145.761719 256.542969 146.425781 L 187.625 186.628906 L 118.707031 146.425781 C 118.898438 145.761719 119.136719 145.117188 119.433594 144.488281 C 119.726562 143.863281 120.066406 143.265625 120.457031 142.691406 C 120.847656 142.121094 121.285156 141.585938 121.761719 141.085938 C 122.238281 140.582031 122.753906 140.125 123.304688 139.707031 C 123.855469 139.289062 124.4375 138.917969 125.046875 138.59375 C 125.660156 138.269531 126.292969 137.996094 126.949219 137.777344 C 127.605469 137.554688 128.273438 137.386719 128.957031 137.273438 C 129.636719 137.160156 130.324219 137.101562 131.015625 137.097656 Z M 244.234375 238.152344 L 131.015625 238.152344 C 130.171875 238.148438 129.335938 238.066406 128.507812 237.902344 C 127.679688 237.734375 126.875 237.492188 126.097656 237.167969 C 125.316406 236.84375 124.574219 236.445312 123.875 235.976562 C 123.171875 235.507812 122.523438 234.976562 121.925781 234.378906 C 121.328125 233.78125 120.792969 233.132812 120.324219 232.429688 C 119.855469 231.726562 119.460938 230.988281 119.136719 230.207031 C 118.8125 229.425781 118.566406 228.621094 118.402344 227.792969 C 118.234375 226.964844 118.152344 226.128906 118.152344 225.285156 L 118.152344 160.726562 L 184.46875 199.398438 C 184.949219 199.679688 185.460938 199.894531 186 200.039062 C 186.542969 200.1875 187.089844 200.257812 187.652344 200.257812 C 188.210938 200.257812 188.757812 200.1875 189.300781 200.039062 C 189.839844 199.894531 190.351562 199.679688 190.832031 199.398438 L 257.097656 160.726562 L 257.097656 225.285156 C 257.097656 226.128906 257.015625 226.964844 256.847656 227.792969 C 256.683594 228.621094 256.4375 229.425781 256.113281 230.207031 C 255.789062 230.988281 255.394531 231.726562 254.925781 232.429688 C 254.457031 233.132812 253.921875 233.78125 253.324219 234.378906 C 252.726562 234.976562 252.078125 235.507812 251.375 235.976562 C 250.675781 236.445312 249.933594 236.84375 249.152344 237.167969 C 248.375 237.492188 247.570312 237.734375 246.742188 237.902344 C 245.914062 238.066406 245.078125 238.148438 244.234375 238.152344 Z M 244.234375 238.152344 " fill-opacity="1" fill-rule="nonzero"/><g clip-path="url(#8ca3621a33)"><path fill="#000000" d="M 187.625 67.625 C 185.660156 67.625 183.699219 67.671875 181.738281 67.769531 C 179.777344 67.867188 177.816406 68.011719 175.863281 68.203125 C 173.910156 68.394531 171.960938 68.636719 170.015625 68.925781 C 168.074219 69.210938 166.140625 69.546875 164.214844 69.929688 C 162.289062 70.3125 160.371094 70.746094 158.46875 71.222656 C 156.5625 71.699219 154.671875 72.222656 152.789062 72.792969 C 150.910156 73.363281 149.046875 73.976562 147.199219 74.640625 C 145.347656 75.300781 143.515625 76.007812 141.703125 76.757812 C 139.890625 77.511719 138.09375 78.308594 136.320312 79.144531 C 134.542969 79.984375 132.789062 80.867188 131.058594 81.792969 C 129.324219 82.71875 127.617188 83.6875 125.933594 84.699219 C 124.25 85.707031 122.589844 86.757812 120.957031 87.847656 C 119.324219 88.941406 117.71875 90.070312 116.140625 91.242188 C 114.5625 92.410156 113.015625 93.617188 111.496094 94.863281 C 109.980469 96.109375 108.492188 97.390625 107.039062 98.710938 C 105.582031 100.03125 104.160156 101.382812 102.773438 102.773438 C 101.382812 104.160156 100.03125 105.582031 98.710938 107.039062 C 97.390625 108.492188 96.109375 109.980469 94.863281 111.496094 C 93.617188 113.015625 92.410156 114.5625 91.242188 116.140625 C 90.070312 117.71875 88.941406 119.324219 87.847656 120.957031 C 86.757812 122.589844 85.707031 124.25 84.699219 125.933594 C 83.6875 127.617188 82.71875 129.324219 81.792969 131.058594 C 80.867188 132.789062 79.984375 134.542969 79.144531 136.320312 C 78.308594 138.09375 77.511719 139.890625 76.757812 141.703125 C 76.007812 143.515625 75.300781 145.347656 74.640625 147.199219 C 73.976562 149.046875 73.363281 150.910156 72.792969 152.789062 C 72.222656 154.671875 71.699219 156.5625 71.222656 158.46875 C 70.746094 160.371094 70.3125 162.289062 69.929688 164.214844 C 69.546875 166.140625 69.210938 168.074219 68.925781 170.015625 C 68.636719 171.960938 68.394531 173.910156 68.203125 175.863281 C 68.011719 177.816406 67.867188 179.777344 67.769531 181.738281 C 67.671875 183.699219 67.625 185.660156 67.625 187.625 C 67.625 189.589844 67.671875 191.550781 67.769531 193.511719 C 67.867188 195.476562 68.011719 197.433594 68.203125 199.386719 C 68.394531 201.339844 68.636719 203.289062 68.925781 205.234375 C 69.210938 207.175781 69.546875 209.109375 69.929688 211.035156 C 70.3125 212.960938 70.746094 214.878906 71.222656 216.78125 C 71.699219 218.6875 72.222656 220.578125 72.792969 222.460938 C 73.363281 224.339844 73.976562 226.203125 74.640625 228.050781 C 75.300781 229.902344 76.007812 231.734375 76.757812 233.546875 C 77.511719 235.363281 78.308594 237.15625 79.144531 238.933594 C 79.984375 240.707031 80.867188 242.460938 81.792969 244.191406 C 82.71875 245.925781 83.6875 247.632812 84.699219 249.316406 C 85.707031 251 86.757812 252.660156 87.847656 254.292969 C 88.941406 255.925781 90.070312 257.53125 91.242188 259.109375 C 92.410156 260.6875 93.617188 262.234375 94.863281 263.753906 C 96.109375 265.269531 97.390625 266.757812 98.710938 268.210938 C 100.03125 269.667969 101.382812 271.089844 102.773438 272.476562 C 104.160156 273.867188 105.582031 275.21875 107.039062 276.539062 C 108.492188 277.859375 109.980469 279.140625 111.496094 280.386719 C 113.015625 281.632812 114.5625 282.839844 116.140625 284.011719 C 117.71875 285.179688 119.324219 286.308594 120.957031 287.402344 C 122.589844 288.492188 124.25 289.542969 125.933594 290.550781 C 127.617188 291.5625 129.324219 292.53125 131.058594 293.457031 C 132.789062 294.382812 134.542969 295.265625 136.320312 296.105469 C 138.09375 296.945312 139.890625 297.738281 141.703125 298.492188 C 143.515625 299.242188 145.347656 299.949219 147.199219 300.609375 C 149.046875 301.273438 150.910156 301.886719 152.789062 302.457031 C 154.671875 303.027344 156.5625 303.550781 158.46875 304.027344 C 160.371094 304.507812 162.289062 304.9375 164.214844 305.320312 C 166.140625 305.703125 168.074219 306.039062 170.015625 306.328125 C 171.960938 306.613281 173.910156 306.855469 175.863281 307.046875 C 177.816406 307.238281 179.777344 307.382812 181.738281 307.480469 C 183.699219 307.578125 185.660156 307.625 187.625 307.625 C 189.589844 307.625 191.550781 307.578125 193.511719 307.480469 C 195.476562 307.382812 197.433594 307.238281 199.386719 307.046875 C 201.339844 306.855469 203.289062 306.613281 205.234375 306.328125 C 207.175781 306.039062 209.109375 305.703125 211.035156 305.320312 C 212.960938 304.9375 214.878906 304.507812 216.78125 304.027344 C 218.6875 303.550781 220.578125 303.027344 222.460938 302.457031 C 224.339844 301.886719 226.203125 301.273438 228.050781 300.609375 C 229.902344 299.949219 231.734375 299.242188 233.546875 298.492188 C 235.363281 297.738281 237.15625 296.945312 238.933594 296.105469 C 240.707031 295.265625 242.460938 294.382812 244.191406 293.457031 C 245.925781 292.53125 247.632812 291.5625 249.316406 290.550781 C 251 289.542969 252.660156 288.492188 254.292969 287.402344 C 255.925781 286.308594 257.53125 285.179688 259.109375 284.011719 C 260.6875 282.839844 262.234375 281.632812 263.753906 280.386719 C 265.269531 279.140625 266.757812 277.859375 268.210938 276.539062 C 269.667969 275.21875 271.089844 273.867188 272.476562 272.476562 C 273.867188 271.089844 275.21875 269.667969 276.539062 268.210938 C 277.859375 266.757812 279.140625 265.269531 280.386719 263.753906 C 281.632812 262.234375 282.839844 260.6875 284.011719 259.109375 C 285.179688 257.53125 286.308594 255.925781 287.402344 254.292969 C 288.492188 252.660156 289.542969 251 290.550781 249.316406 C 291.5625 247.632812 292.53125 245.925781 293.457031 244.191406 C 294.382812 242.460938 295.265625 240.707031 296.105469 238.933594 C 296.945312 237.15625 297.738281 235.363281 298.492188 233.546875 C 299.242188 231.734375 299.949219 229.902344 300.609375 228.050781 C 301.273438 226.203125 301.886719 224.339844 302.457031 222.460938 C 303.027344 220.578125 303.550781 218.6875 304.027344 216.78125 C 304.507812 214.878906 304.9375 212.960938 305.320312 211.035156 C 305.703125 209.109375 306.039062 207.175781 306.328125 205.234375 C 306.613281 203.289062 306.855469 201.339844 307.046875 199.386719 C 307.238281 197.433594 307.382812 195.476562 307.480469 193.511719 C 307.578125 191.550781 307.625 189.589844 307.625 187.625 C 307.621094 185.660156 307.574219 183.699219 307.472656 181.738281 C 307.375 179.777344 307.230469 177.820312 307.035156 175.867188 C 306.839844 173.914062 306.597656 171.964844 306.308594 170.023438 C 306.019531 168.082031 305.683594 166.148438 305.296875 164.222656 C 304.914062 162.296875 304.480469 160.382812 304.003906 158.480469 C 303.523438 156.574219 303 154.683594 302.429688 152.804688 C 301.855469 150.925781 301.238281 149.0625 300.578125 147.214844 C 299.914062 145.367188 299.207031 143.539062 298.457031 141.722656 C 297.703125 139.910156 296.90625 138.117188 296.066406 136.34375 C 295.226562 134.566406 294.34375 132.816406 293.417969 131.082031 C 292.492188 129.351562 291.523438 127.644531 290.511719 125.960938 C 289.503906 124.277344 288.453125 122.621094 287.359375 120.988281 C 286.269531 119.355469 285.140625 117.75 283.96875 116.175781 C 282.800781 114.597656 281.589844 113.050781 280.347656 111.535156 C 279.101562 110.015625 277.816406 108.53125 276.5 107.074219 C 275.179688 105.621094 273.828125 104.199219 272.4375 102.8125 C 271.050781 101.421875 269.628906 100.070312 268.175781 98.75 C 266.71875 97.433594 265.234375 96.148438 263.714844 94.90625 C 262.199219 93.660156 260.652344 92.449219 259.074219 91.28125 C 257.5 90.109375 255.894531 88.980469 254.261719 87.890625 C 252.628906 86.796875 250.972656 85.746094 249.289062 84.738281 C 247.605469 83.726562 245.898438 82.761719 244.167969 81.832031 C 242.433594 80.90625 240.683594 80.023438 238.910156 79.183594 C 237.132812 78.34375 235.339844 77.546875 233.527344 76.796875 C 231.714844 76.042969 229.882812 75.335938 228.035156 74.671875 C 226.1875 74.011719 224.324219 73.394531 222.445312 72.820312 C 220.566406 72.25 218.675781 71.726562 216.769531 71.246094 C 214.867188 70.769531 212.953125 70.335938 211.027344 69.953125 C 209.101562 69.566406 207.167969 69.230469 205.226562 68.941406 C 203.285156 68.652344 201.335938 68.410156 199.382812 68.214844 C 197.429688 68.019531 195.472656 67.875 193.511719 67.777344 C 191.550781 67.675781 189.589844 67.628906 187.625 67.625 Z M 187.625 294.992188 C 185.867188 294.992188 184.113281 294.949219 182.355469 294.863281 C 180.601562 294.777344 178.851562 294.648438 177.101562 294.476562 C 175.351562 294.304688 173.609375 294.089844 171.871094 293.832031 C 170.132812 293.574219 168.402344 293.273438 166.679688 292.929688 C 164.957031 292.585938 163.242188 292.203125 161.535156 291.777344 C 159.832031 291.347656 158.140625 290.878906 156.457031 290.371094 C 154.777344 289.859375 153.109375 289.308594 151.453125 288.71875 C 149.800781 288.125 148.160156 287.492188 146.535156 286.820312 C 144.914062 286.148438 143.308594 285.4375 141.71875 284.683594 C 140.128906 283.933594 138.5625 283.144531 137.011719 282.316406 C 135.460938 281.488281 133.933594 280.621094 132.425781 279.71875 C 130.917969 278.816406 129.433594 277.875 127.972656 276.898438 C 126.511719 275.921875 125.078125 274.910156 123.664062 273.863281 C 122.253906 272.816406 120.871094 271.738281 119.511719 270.621094 C 118.152344 269.507812 116.824219 268.359375 115.519531 267.179688 C 114.21875 266 112.945312 264.789062 111.703125 263.546875 C 110.460938 262.304688 109.25 261.03125 108.070312 259.730469 C 106.890625 258.425781 105.742188 257.097656 104.628906 255.738281 C 103.511719 254.378906 102.433594 252.996094 101.386719 251.585938 C 100.339844 250.171875 99.328125 248.738281 98.351562 247.277344 C 97.375 245.816406 96.4375 244.332031 95.53125 242.824219 C 94.628906 241.316406 93.761719 239.789062 92.933594 238.238281 C 92.105469 236.6875 91.316406 235.121094 90.566406 233.53125 C 89.8125 231.941406 89.101562 230.335938 88.429688 228.714844 C 87.757812 227.089844 87.125 225.449219 86.53125 223.796875 C 85.941406 222.140625 85.390625 220.472656 84.878906 218.792969 C 84.371094 217.109375 83.902344 215.417969 83.472656 213.714844 C 83.046875 212.007812 82.664062 210.296875 82.320312 208.570312 C 81.976562 206.847656 81.675781 205.117188 81.417969 203.378906 C 81.160156 201.640625 80.945312 199.898438 80.773438 198.148438 C 80.601562 196.402344 80.472656 194.648438 80.386719 192.894531 C 80.300781 191.136719 80.257812 189.382812 80.257812 187.625 C 80.257812 185.867188 80.300781 184.113281 80.386719 182.355469 C 80.472656 180.601562 80.601562 178.851562 80.773438 177.101562 C 80.945312 175.351562 81.160156 173.609375 81.417969 171.871094 C 81.675781 170.132812 81.976562 168.402344 82.320312 166.679688 C 82.664062 164.957031 83.046875 163.242188 83.472656 161.535156 C 83.902344 159.832031 84.371094 158.140625 84.878906 156.457031 C 85.390625 154.777344 85.941406 153.109375 86.53125 151.453125 C 87.125 149.800781 87.757812 148.160156 88.429688 146.535156 C 89.101562 144.914062 89.8125 143.308594 90.566406 141.71875 C 91.316406 140.128906 92.105469 138.5625 92.933594 137.011719 C 93.761719 135.460938 94.628906 133.933594 95.53125 132.425781 C 96.4375 130.917969 97.375 129.433594 98.351562 127.972656 C 99.328125 126.511719 100.339844 125.078125 101.386719 123.664062 C 102.433594 122.253906 103.511719 120.871094 104.628906 119.511719 C 105.742188 118.152344 106.890625 116.824219 108.070312 115.519531 C 109.25 114.21875 110.460938 112.945312 111.703125 111.703125 C 112.945312 110.460938 114.21875 109.25 115.519531 108.070312 C 116.824219 106.890625 118.152344 105.742188 119.511719 104.628906 C 120.871094 103.511719 122.253906 102.433594 123.664062 101.386719 C 125.078125 100.339844 126.511719 99.328125 127.972656 98.351562 C 129.433594 97.375 130.917969 96.4375 132.425781 95.53125 C 133.933594 94.628906 135.460938 93.761719 137.011719 92.933594 C 138.5625 92.105469 140.128906 91.316406 141.71875 90.566406 C 143.308594 89.8125 144.914062 89.101562 146.535156 88.429688 C 148.160156 87.757812 149.800781 87.125 151.453125 86.53125 C 153.109375 85.941406 154.777344 85.390625 156.457031 84.878906 C 158.140625 84.371094 159.832031 83.902344 161.535156 83.472656 C 163.242188 83.046875 164.957031 82.664062 166.679688 82.320312 C 168.402344 81.976562 170.132812 81.675781 171.871094 81.417969 C 173.609375 81.160156 175.351562 80.945312 177.101562 80.773438 C 178.851562 80.601562 180.601562 80.472656 182.355469 80.386719 C 184.113281 80.300781 185.867188 80.257812 187.625 80.257812 C 189.382812 80.257812 191.136719 80.300781 192.894531 80.386719 C 194.648438 80.472656 196.402344 80.601562 198.148438 80.773438 C 199.898438 80.945312 201.640625 81.160156 203.378906 81.417969 C 205.117188 81.675781 206.847656 81.976562 208.570312 82.320312 C 210.296875 82.664062 212.007812 83.046875 213.714844 83.472656 C 215.417969 83.902344 217.109375 84.371094 218.792969 84.878906 C 220.472656 85.390625 222.140625 85.941406 223.796875 86.53125 C 225.449219 87.125 227.089844 87.757812 228.714844 88.429688 C 230.335938 89.101562 231.941406 89.8125 233.53125 90.566406 C 235.121094 91.316406 236.6875 92.105469 238.238281 92.933594 C 239.789062 93.761719 241.316406 94.628906 242.824219 95.53125 C 244.332031 96.4375 245.816406 97.375 247.277344 98.351562 C 248.738281 99.328125 250.171875 100.339844 251.585938 101.386719 C 252.996094 102.433594 254.378906 103.511719 255.738281 104.628906 C 257.097656 105.742188 258.425781 106.890625 259.730469 108.070312 C 261.03125 109.25 262.304688 110.460938 263.546875 111.703125 C 264.789062 112.945312 266 114.21875 267.179688 115.519531 C 268.359375 116.824219 269.507812 118.152344 270.621094 119.511719 C 271.738281 120.871094 272.816406 122.253906 273.863281 123.664062 C 274.910156 125.078125 275.921875 126.511719 276.898438 127.972656 C 277.875 129.433594 278.816406 130.917969 279.71875 132.425781 C 280.621094 133.933594 281.488281 135.460938 282.316406 137.011719 C 283.144531 138.5625 283.933594 140.128906 284.683594 141.71875 C 285.4375 143.308594 286.148438 144.914062 286.820312 146.535156 C 287.492188 148.160156 288.125 149.800781 288.71875 151.453125 C 289.308594 153.109375 289.859375 154.777344 290.371094 156.457031 C 290.878906 158.140625 291.347656 159.832031 291.777344 161.535156 C 292.203125 163.242188 292.585938 164.957031 292.929688 166.679688 C 293.273438 168.402344 293.574219 170.132812 293.832031 171.871094 C 294.089844 173.609375 294.304688 175.351562 294.476562 177.101562 C 294.648438 178.851562 294.777344 180.601562 294.863281 182.355469 C 294.949219 184.113281 294.992188 185.867188 294.992188 187.625 C 294.992188 189.382812 294.945312 191.136719 294.859375 192.890625 C 294.769531 194.644531 294.640625 196.398438 294.464844 198.144531 C 294.292969 199.894531 294.074219 201.636719 293.816406 203.375 C 293.554688 205.109375 293.253906 206.839844 292.910156 208.5625 C 292.566406 210.285156 292.179688 212 291.753906 213.703125 C 291.324219 215.40625 290.855469 217.097656 290.34375 218.777344 C 289.832031 220.460938 289.28125 222.125 288.6875 223.78125 C 288.09375 225.433594 287.460938 227.070312 286.789062 228.695312 C 286.117188 230.316406 285.402344 231.921875 284.652344 233.511719 C 283.898438 235.097656 283.109375 236.664062 282.28125 238.214844 C 281.453125 239.761719 280.585938 241.292969 279.683594 242.796875 C 278.777344 244.304688 277.839844 245.789062 276.863281 247.246094 C 275.886719 248.707031 274.875 250.144531 273.828125 251.554688 C 272.78125 252.964844 271.699219 254.347656 270.585938 255.707031 C 269.472656 257.0625 268.324219 258.394531 267.144531 259.695312 C 265.964844 260.996094 264.753906 262.269531 263.511719 263.511719 C 262.269531 264.753906 260.996094 265.964844 259.695312 267.144531 C 258.394531 268.324219 257.0625 269.472656 255.707031 270.585938 C 254.347656 271.699219 252.964844 272.78125 251.554688 273.828125 C 250.144531 274.875 248.707031 275.886719 247.246094 276.863281 C 245.789062 277.839844 244.304688 278.777344 242.796875 279.683594 C 241.292969 280.585938 239.761719 281.453125 238.214844 282.28125 C 236.664062 283.109375 235.097656 283.898438 233.511719 284.652344 C 231.921875 285.402344 230.316406 286.117188 228.695312 286.789062 C 227.070312 287.460938 225.433594 288.09375 223.78125 288.6875 C 222.125 289.28125 220.460938 289.832031 218.777344 290.34375 C 217.097656 290.855469 215.40625 291.324219 213.703125 291.753906 C 212 292.179688 210.285156 292.566406 208.5625 292.910156 C 206.839844 293.253906 205.109375 293.554688 203.375 293.816406 C 201.636719 294.074219 199.894531 294.292969 198.144531 294.464844 C 196.398438 294.640625 194.644531 294.769531 192.890625 294.859375 C 191.136719 294.945312 189.382812 294.992188 187.625 294.992188 Z M 187.625 294.992188 " fill-opacity="1" fill-rule="nonzero"/></g></svg>