<svg xmlns="http://www.w3.org/2000/svg" xmlns:xlink="http://www.w3.org/1999/xlink" width="133" zoomAndPan="magnify" viewBox="0 0 99.75 99.749997" height="133" preserveAspectRatio="xMidYMid meet" version="1.0"><defs><clipPath id="3538302a39"><path d="M 0 0 L 99.5 0 L 99.5 99.5 L 0 99.5 Z M 0 0 " clip-rule="nonzero"/></clipPath><clipPath id="653459cf12"><path d="M 0 0 L 98.820312 0 L 98.820312 98.820312 L 0 98.820312 Z M 0 0 " clip-rule="nonzero"/></clipPath><clipPath id="33ac6a64c0"><path d="M 49.410156 0 C 22.121094 0 0 22.121094 0 49.410156 C 0 76.699219 22.121094 98.820312 49.410156 98.820312 C 76.699219 98.820312 98.820312 76.699219 98.820312 49.410156 C 98.820312 22.121094 76.699219 0 49.410156 0 Z M 49.410156 0 " clip-rule="nonzero"/></clipPath><clipPath id="01c472cc1f"><path d="M 19.167969 19.167969 L 79.765625 19.167969 L 79.765625 79.765625 L 19.167969 79.765625 Z M 19.167969 19.167969 " clip-rule="nonzero"/></clipPath></defs><g clip-path="url(#3538302a39)"><path fill="#ffffff" d="M 0 0 L 99.5 0 L 99.5 99.5 L 0 99.5 Z M 0 0 " fill-opacity="1" fill-rule="nonzero"/></g><g clip-path="url(#653459cf12)"><g clip-path="url(#33ac6a64c0)"><path fill="#d0e7d2" d="M 0 0 L 98.820312 0 L 98.820312 98.820312 L 0 98.820312 Z M 0 0 " fill-opacity="1" fill-rule="nonzero"/></g></g><g clip-path="url(#01c472cc1f)"><path fill="#000000" d="M 79.648438 49.414062 C 79.648438 66.113281 66.105469 79.65625 49.40625 79.65625 C 32.703125 79.65625 19.164062 66.113281 19.164062 49.414062 C 19.164062 32.710938 32.703125 19.171875 49.40625 19.171875 C 66.105469 19.171875 79.648438 32.710938 79.648438 49.414062 M 77.140625 49.414062 C 77.140625 34.09375 64.722656 21.679688 49.40625 21.679688 C 34.085938 21.679688 21.671875 34.09375 21.671875 49.414062 C 21.671875 64.730469 34.085938 77.148438 49.40625 77.148438 C 64.722656 77.148438 77.140625 64.730469 77.140625 49.414062 Z M 77.140625 49.414062 " fill-opacity="1" fill-rule="nonzero"/></g><path fill="#000000" d="M 35.40625 64.277344 L 63.757812 64.085938 L 62.515625 65.257812 L 64.421875 36.46875 L 65.699219 37.808594 L 32.804688 38.511719 L 34.027344 37.140625 L 36.664062 65.414062 L 35.40625 64.277344 M 35.425781 66.785156 C 34.773438 66.789062 34.226562 66.296875 34.167969 65.648438 L 31.53125 37.375 C 31.5 37.027344 31.613281 36.683594 31.84375 36.421875 C 32.074219 36.164062 32.40625 36.011719 32.753906 36.003906 L 65.644531 35.300781 C 65.996094 35.292969 66.335938 35.433594 66.578125 35.6875 C 66.820312 35.941406 66.945312 36.285156 66.921875 36.636719 L 65.019531 65.421875 C 64.976562 66.078125 64.433594 66.589844 63.777344 66.59375 Z M 35.425781 66.785156 " fill-opacity="1" fill-rule="nonzero"/><path fill="#000000" d="M 39.390625 41.675781 L 39.101562 40.960938 C 39.085938 40.929688 39.074219 40.894531 39.066406 40.863281 L 38.835938 40.125 C 38.824219 40.089844 38.816406 40.058594 38.808594 40.023438 L 38.640625 39.269531 C 38.632812 39.234375 38.628906 39.203125 38.625 39.167969 L 38.519531 38.402344 C 38.515625 38.367188 38.511719 38.332031 38.507812 38.296875 L 38.46875 37.527344 C 38.46875 37.492188 38.46875 37.457031 38.46875 37.421875 L 38.492188 36.652344 C 38.492188 36.617188 38.496094 36.582031 38.5 36.546875 L 38.589844 35.78125 C 38.59375 35.746094 38.597656 35.710938 38.605469 35.675781 L 38.757812 34.917969 C 38.761719 34.886719 38.773438 34.851562 38.78125 34.820312 L 38.996094 34.078125 C 39.003906 34.042969 39.015625 34.011719 39.027344 33.976562 L 39.304688 33.257812 C 39.316406 33.222656 39.328125 33.191406 39.34375 33.160156 L 39.679688 32.464844 C 39.695312 32.433594 39.710938 32.402344 39.726562 32.371094 L 40.117188 31.707031 C 40.136719 31.675781 40.15625 31.648438 40.175781 31.617188 L 40.621094 30.988281 C 40.640625 30.960938 40.660156 30.929688 40.683594 30.90625 L 41.179688 30.3125 C 41.203125 30.285156 41.226562 30.261719 41.25 30.234375 L 41.792969 29.6875 C 41.816406 29.664062 41.84375 29.640625 41.871094 29.617188 L 42.457031 29.113281 C 42.484375 29.09375 42.511719 29.070312 42.539062 29.050781 L 43.164062 28.597656 C 43.195312 28.578125 43.222656 28.558594 43.253906 28.542969 L 43.914062 28.144531 C 43.945312 28.125 43.976562 28.109375 44.007812 28.09375 L 44.699219 27.753906 C 44.730469 27.738281 44.761719 27.722656 44.792969 27.710938 L 45.511719 27.429688 C 45.546875 27.417969 45.578125 27.40625 45.613281 27.394531 L 46.351562 27.175781 C 46.386719 27.164062 46.417969 27.15625 46.453125 27.148438 L 47.207031 26.988281 C 47.242188 26.980469 47.277344 26.976562 47.3125 26.972656 L 48.078125 26.875 C 48.113281 26.871094 48.148438 26.867188 48.179688 26.867188 L 48.953125 26.835938 C 48.988281 26.835938 49.023438 26.835938 49.058594 26.835938 L 49.835938 26.871094 C 49.871094 26.871094 49.90625 26.875 49.941406 26.878906 L 50.714844 26.976562 C 50.75 26.980469 50.785156 26.988281 50.820312 26.996094 L 51.582031 27.15625 C 51.617188 27.164062 51.652344 27.175781 51.6875 27.183594 L 52.433594 27.410156 C 52.464844 27.421875 52.5 27.433594 52.53125 27.445312 L 53.257812 27.734375 C 53.289062 27.746094 53.320312 27.761719 53.351562 27.777344 L 54.050781 28.125 C 54.082031 28.140625 54.113281 28.160156 54.144531 28.179688 L 54.808594 28.582031 C 54.839844 28.601562 54.871094 28.621094 54.898438 28.644531 L 55.527344 29.101562 C 55.554688 29.125 55.582031 29.144531 55.609375 29.167969 L 56.199219 29.679688 C 56.226562 29.703125 56.25 29.726562 56.277344 29.753906 L 56.820312 30.3125 C 56.84375 30.339844 56.867188 30.363281 56.890625 30.390625 L 57.386719 30.996094 C 57.40625 31.023438 57.429688 31.050781 57.449219 31.078125 L 57.890625 31.722656 C 57.910156 31.75 57.929688 31.78125 57.945312 31.8125 L 58.332031 32.488281 C 58.351562 32.519531 58.367188 32.550781 58.382812 32.582031 L 58.710938 33.292969 C 58.726562 33.324219 58.738281 33.355469 58.75 33.390625 L 59.019531 34.121094 C 59.03125 34.15625 59.042969 34.1875 59.050781 34.222656 L 59.253906 34.976562 C 59.265625 35.007812 59.273438 35.042969 59.277344 35.078125 L 59.421875 35.84375 C 59.425781 35.878906 59.433594 35.914062 59.433594 35.949219 L 59.511719 36.726562 C 59.515625 36.761719 59.515625 36.796875 59.515625 36.832031 L 59.527344 37.613281 C 59.527344 37.648438 59.527344 37.683594 59.523438 37.71875 L 59.46875 38.496094 C 59.46875 38.53125 59.464844 38.566406 59.457031 38.601562 L 59.339844 39.371094 C 59.332031 39.40625 59.328125 39.441406 59.316406 39.476562 L 59.132812 40.234375 C 59.125 40.269531 59.117188 40.300781 59.105469 40.335938 L 58.855469 41.074219 C 58.636719 41.730469 57.925781 42.085938 57.269531 41.867188 C 56.613281 41.648438 56.257812 40.9375 56.476562 40.28125 L 56.726562 39.539062 L 56.695312 39.640625 L 56.882812 38.882812 L 56.859375 38.984375 L 56.980469 38.214844 L 56.96875 38.320312 L 57.023438 37.542969 L 57.019531 37.648438 L 57.007812 36.867188 L 57.015625 36.972656 L 56.9375 36.195312 L 56.953125 36.300781 L 56.8125 35.53125 L 56.835938 35.636719 L 56.628906 34.882812 L 56.664062 34.984375 L 56.394531 34.25 L 56.433594 34.347656 L 56.105469 33.640625 L 56.15625 33.734375 L 55.769531 33.054688 L 55.824219 33.144531 L 55.382812 32.5 L 55.445312 32.585938 L 54.949219 31.980469 L 55.019531 32.0625 L 54.476562 31.5 L 54.554688 31.574219 L 53.964844 31.0625 L 54.046875 31.128906 L 53.417969 30.667969 L 53.503906 30.726562 L 52.839844 30.320312 L 52.929688 30.371094 L 52.234375 30.023438 L 52.328125 30.066406 L 51.605469 29.777344 L 51.703125 29.8125 L 50.957031 29.582031 L 51.058594 29.609375 L 50.296875 29.445312 L 50.398438 29.464844 L 49.625 29.367188 L 49.730469 29.375 L 48.949219 29.34375 L 49.054688 29.34375 L 48.285156 29.375 L 48.386719 29.363281 L 47.621094 29.460938 L 47.726562 29.445312 L 46.96875 29.601562 L 47.070312 29.578125 L 46.332031 29.796875 L 46.429688 29.765625 L 45.710938 30.046875 L 45.808594 30.003906 L 45.113281 30.34375 L 45.207031 30.296875 L 44.542969 30.691406 L 44.628906 30.636719 L 44.003906 31.085938 L 44.085938 31.023438 L 43.5 31.523438 L 43.574219 31.453125 L 43.03125 32 L 43.101562 31.921875 L 42.605469 32.515625 L 42.671875 32.433594 L 42.226562 33.0625 L 42.28125 32.976562 L 41.890625 33.640625 L 41.941406 33.550781 L 41.605469 34.246094 L 41.648438 34.148438 L 41.371094 34.871094 L 41.40625 34.773438 L 41.191406 35.515625 L 41.214844 35.414062 L 41.0625 36.171875 L 41.082031 36.066406 L 40.992188 36.832031 L 41 36.730469 L 40.976562 37.5 L 40.972656 37.398438 L 41.015625 38.167969 L 41.003906 38.0625 L 41.109375 38.828125 L 41.089844 38.726562 L 41.257812 39.480469 L 41.230469 39.378906 L 41.460938 40.117188 L 41.425781 40.019531 L 41.714844 40.734375 C 41.972656 41.375 41.664062 42.105469 41.023438 42.367188 C 40.382812 42.628906 39.648438 42.316406 39.390625 41.675781 Z M 39.390625 41.675781 " fill-opacity="1" fill-rule="nonzero"/></svg>