<svg xmlns="http://www.w3.org/2000/svg" xmlns:xlink="http://www.w3.org/1999/xlink" width="500" zoomAndPan="magnify" viewBox="0 0 375 374.999991" height="500" preserveAspectRatio="xMidYMid meet" version="1.0"><defs><clipPath id="3e0c2761d7"><path d="M 187.5 0 C 83.945312 0 0 83.945312 0 187.5 C 0 291.054688 83.945312 375 187.5 375 C 291.054688 375 375 291.054688 375 187.5 C 375 83.945312 291.054688 0 187.5 0 Z M 187.5 0 " clip-rule="nonzero"/></clipPath></defs><rect x="-37.5" width="450" fill="#ffffff" y="-37.499999" height="449.999989" fill-opacity="1"/><rect x="-37.5" width="450" fill="#ffffff" y="-37.499999" height="449.999989" fill-opacity="1"/><g clip-path="url(#3e0c2761d7)"><rect x="-37.5" width="450" fill="#ffe5fe" y="-37.499999" height="449.999989" fill-opacity="1"/></g><path fill="#000000" d="M 100.800781 273.921875 C 52.882812 226.058594 52.875 148.582031 100.800781 100.710938 C 148.722656 52.839844 226.292969 52.84375 274.222656 100.710938 C 322.152344 148.578125 322.148438 226.050781 274.222656 273.921875 C 226.300781 321.792969 148.730469 321.789062 100.800781 273.921875 Z M 187.511719 73.25 C 124.539062 73.25 73.304688 124.421875 73.304688 187.316406 C 73.304688 250.210938 124.539062 301.382812 187.511719 301.382812 C 250.480469 301.382812 301.714844 250.210938 301.714844 187.316406 C 301.714844 124.421875 250.480469 73.25 187.511719 73.25 Z M 187.511719 73.25 " fill-opacity="1" fill-rule="nonzero"/><path fill="#000000" d="M 227.988281 151.082031 C 220.246094 149.5625 220.273438 138.5625 227.988281 136.890625 C 235.023438 135.476562 239.566406 144.191406 234.519531 149.097656 C 233.664062 149.953125 232.660156 150.554688 231.503906 150.90625 C 230.347656 151.257812 229.175781 151.316406 227.988281 151.082031 Z M 227.988281 151.082031 " fill-opacity="1" fill-rule="nonzero"/><path fill="#000000" d="M 227.972656 259.886719 L 147.050781 259.886719 C 145.996094 259.886719 144.945312 259.832031 143.894531 259.730469 C 142.847656 259.625 141.804688 259.46875 140.769531 259.261719 C 139.738281 259.054688 138.714844 258.800781 137.707031 258.492188 C 136.699219 258.1875 135.707031 257.832031 134.734375 257.429688 C 133.761719 257.023438 132.808594 256.574219 131.878906 256.078125 C 130.949219 255.582031 130.046875 255.039062 129.171875 254.453125 C 128.296875 253.871094 127.449219 253.242188 126.636719 252.574219 C 125.820312 251.90625 125.039062 251.199219 124.292969 250.457031 C 123.550781 249.710938 122.84375 248.933594 122.171875 248.117188 C 121.503906 247.304688 120.878906 246.460938 120.292969 245.585938 C 119.707031 244.710938 119.164062 243.808594 118.667969 242.878906 C 118.167969 241.953125 117.71875 241 117.3125 240.027344 C 116.910156 239.054688 116.554688 238.066406 116.246094 237.058594 C 115.941406 236.050781 115.683594 235.03125 115.476562 234 C 115.269531 232.96875 115.113281 231.925781 115.011719 230.878906 C 114.90625 229.832031 114.851562 228.78125 114.851562 227.726562 L 114.851562 146.90625 C 114.851562 145.851562 114.90625 144.800781 115.011719 143.753906 C 115.113281 142.707031 115.269531 141.667969 115.476562 140.632812 C 115.683594 139.601562 115.941406 138.582031 116.246094 137.574219 C 116.554688 136.566406 116.910156 135.578125 117.3125 134.605469 C 117.71875 133.632812 118.167969 132.679688 118.667969 131.753906 C 119.164062 130.824219 119.707031 129.921875 120.292969 129.046875 C 120.878906 128.171875 121.503906 127.328125 122.171875 126.515625 C 122.84375 125.699219 123.550781 124.921875 124.292969 124.175781 C 125.039062 123.433594 125.820312 122.726562 126.636719 122.058594 C 127.449219 121.390625 128.296875 120.761719 129.171875 120.179688 C 130.046875 119.59375 130.949219 119.050781 131.878906 118.554688 C 132.808594 118.058594 133.761719 117.609375 134.734375 117.203125 C 135.707031 116.800781 136.699219 116.445312 137.707031 116.140625 C 138.714844 115.832031 139.738281 115.578125 140.769531 115.371094 C 141.804688 115.164062 142.847656 115.007812 143.894531 114.902344 C 144.945312 114.800781 145.996094 114.746094 147.050781 114.746094 L 227.972656 114.746094 C 229.027344 114.746094 230.078125 114.800781 231.128906 114.902344 C 232.175781 115.007812 233.21875 115.164062 234.25 115.371094 C 235.285156 115.578125 236.304688 115.832031 237.316406 116.140625 C 238.324219 116.445312 239.3125 116.800781 240.289062 117.203125 C 241.261719 117.609375 242.214844 118.058594 243.140625 118.554688 C 244.070312 119.050781 244.976562 119.59375 245.851562 120.179688 C 246.726562 120.761719 247.574219 121.390625 248.386719 122.058594 C 249.203125 122.726562 249.984375 123.433594 250.726562 124.175781 C 251.472656 124.921875 252.179688 125.699219 252.847656 126.515625 C 253.519531 127.328125 254.144531 128.171875 254.730469 129.046875 C 255.316406 129.921875 255.859375 130.824219 256.355469 131.753906 C 256.855469 132.679688 257.304688 133.632812 257.707031 134.605469 C 258.113281 135.578125 258.46875 136.566406 258.773438 137.574219 C 259.082031 138.582031 259.339844 139.601562 259.546875 140.632812 C 259.75 141.667969 259.90625 142.707031 260.011719 143.753906 C 260.117188 144.800781 260.167969 145.851562 260.171875 146.90625 L 260.171875 227.726562 C 260.167969 228.78125 260.117188 229.832031 260.011719 230.878906 C 259.90625 231.925781 259.75 232.96875 259.546875 234 C 259.339844 235.03125 259.082031 236.050781 258.773438 237.058594 C 258.46875 238.066406 258.113281 239.054688 257.707031 240.027344 C 257.304688 241 256.855469 241.953125 256.355469 242.878906 C 255.859375 243.808594 255.316406 244.710938 254.730469 245.585938 C 254.144531 246.460938 253.519531 247.304688 252.847656 248.117188 C 252.179688 248.933594 251.472656 249.710938 250.726562 250.457031 C 249.984375 251.199219 249.203125 251.90625 248.386719 252.574219 C 247.574219 253.242188 246.726562 253.871094 245.851562 254.453125 C 244.976562 255.039062 244.070312 255.582031 243.140625 256.078125 C 242.214844 256.574219 241.261719 257.023438 240.289062 257.429688 C 239.3125 257.832031 238.324219 258.1875 237.316406 258.492188 C 236.304688 258.800781 235.285156 259.054688 234.25 259.261719 C 233.21875 259.46875 232.175781 259.625 231.128906 259.730469 C 230.078125 259.832031 229.027344 259.886719 227.972656 259.886719 Z M 147.050781 123.15625 C 146.273438 123.15625 145.496094 123.195312 144.71875 123.273438 C 143.945312 123.347656 143.175781 123.464844 142.414062 123.617188 C 141.648438 123.769531 140.894531 123.957031 140.152344 124.183594 C 139.40625 124.410156 138.675781 124.671875 137.953125 124.96875 C 137.234375 125.269531 136.53125 125.601562 135.847656 125.96875 C 135.160156 126.335938 134.492188 126.734375 133.847656 127.167969 C 133.199219 127.597656 132.574219 128.0625 131.972656 128.554688 C 131.371094 129.046875 130.792969 129.570312 130.246094 130.121094 C 129.695312 130.667969 129.171875 131.246094 128.675781 131.84375 C 128.183594 132.445312 127.71875 133.070312 127.289062 133.714844 C 126.855469 134.363281 126.453125 135.027344 126.085938 135.714844 C 125.71875 136.398438 125.386719 137.101562 125.089844 137.820312 C 124.792969 138.539062 124.527344 139.269531 124.300781 140.011719 C 124.074219 140.757812 123.886719 141.511719 123.734375 142.273438 C 123.582031 143.035156 123.464844 143.804688 123.390625 144.578125 C 123.3125 145.351562 123.273438 146.128906 123.273438 146.90625 L 123.273438 227.726562 C 123.273438 228.507812 123.3125 229.28125 123.390625 230.054688 C 123.464844 230.828125 123.582031 231.597656 123.734375 232.359375 C 123.886719 233.121094 124.074219 233.875 124.300781 234.621094 C 124.527344 235.363281 124.792969 236.09375 125.089844 236.8125 C 125.386719 237.53125 125.71875 238.234375 126.085938 238.917969 C 126.453125 239.605469 126.855469 240.269531 127.289062 240.917969 C 127.71875 241.5625 128.183594 242.1875 128.675781 242.789062 C 129.171875 243.386719 129.695312 243.964844 130.246094 244.515625 C 130.792969 245.0625 131.371094 245.585938 131.972656 246.078125 C 132.574219 246.570312 133.199219 247.035156 133.847656 247.46875 C 134.492188 247.898438 135.160156 248.296875 135.847656 248.664062 C 136.53125 249.03125 137.234375 249.363281 137.953125 249.664062 C 138.675781 249.960938 139.40625 250.222656 140.152344 250.449219 C 140.894531 250.675781 141.648438 250.863281 142.414062 251.015625 C 143.175781 251.167969 143.945312 251.285156 144.71875 251.359375 C 145.496094 251.4375 146.273438 251.476562 147.050781 251.476562 L 227.972656 251.476562 C 228.75 251.476562 229.527344 251.4375 230.300781 251.359375 C 231.078125 251.285156 231.847656 251.167969 232.609375 251.015625 C 233.371094 250.863281 234.128906 250.675781 234.871094 250.449219 C 235.617188 250.222656 236.347656 249.960938 237.066406 249.664062 C 237.785156 249.363281 238.488281 249.03125 239.175781 248.664062 C 239.863281 248.296875 240.53125 247.898438 241.175781 247.46875 C 241.824219 247.035156 242.449219 246.570312 243.050781 246.078125 C 243.652344 245.585938 244.226562 245.0625 244.777344 244.515625 C 245.328125 243.964844 245.851562 243.386719 246.34375 242.789062 C 246.839844 242.1875 247.300781 241.5625 247.734375 240.917969 C 248.167969 240.269531 248.566406 239.605469 248.933594 238.917969 C 249.300781 238.234375 249.636719 237.53125 249.933594 236.8125 C 250.230469 236.09375 250.492188 235.363281 250.71875 234.621094 C 250.945312 233.875 251.136719 233.121094 251.289062 232.359375 C 251.441406 231.597656 251.554688 230.828125 251.632812 230.054688 C 251.710938 229.28125 251.75 228.507812 251.75 227.726562 L 251.75 146.90625 C 251.75 146.128906 251.710938 145.351562 251.632812 144.578125 C 251.554688 143.804688 251.441406 143.035156 251.289062 142.273438 C 251.136719 141.511719 250.945312 140.757812 250.71875 140.011719 C 250.492188 139.269531 250.230469 138.539062 249.933594 137.820312 C 249.636719 137.101562 249.300781 136.398438 248.933594 135.714844 C 248.566406 135.027344 248.167969 134.363281 247.734375 133.714844 C 247.300781 133.070312 246.839844 132.445312 246.34375 131.84375 C 245.851562 131.246094 245.328125 130.667969 244.777344 130.121094 C 244.226562 129.570312 243.652344 129.046875 243.050781 128.554688 C 242.449219 128.0625 241.824219 127.597656 241.175781 127.167969 C 240.53125 126.734375 239.863281 126.335938 239.175781 125.96875 C 238.488281 125.601562 237.785156 125.269531 237.066406 124.96875 C 236.347656 124.671875 235.617188 124.410156 234.871094 124.183594 C 234.128906 123.957031 233.371094 123.769531 232.609375 123.617188 C 231.847656 123.464844 231.078125 123.347656 230.300781 123.273438 C 229.527344 123.195312 228.75 123.15625 227.972656 123.15625 Z M 147.050781 123.15625 " fill-opacity="1" fill-rule="nonzero"/><path fill="#000000" d="M 187.511719 226.128906 C 186.238281 226.128906 184.96875 226.066406 183.703125 225.945312 C 182.4375 225.820312 181.179688 225.632812 179.929688 225.382812 C 178.679688 225.136719 177.449219 224.828125 176.230469 224.460938 C 175.011719 224.089844 173.816406 223.664062 172.640625 223.175781 C 171.464844 222.691406 170.316406 222.148438 169.191406 221.546875 C 168.070312 220.949219 166.980469 220.296875 165.921875 219.589844 C 164.863281 218.882812 163.84375 218.125 162.859375 217.320312 C 161.875 216.515625 160.933594 215.660156 160.03125 214.761719 C 159.132812 213.863281 158.277344 212.921875 157.472656 211.941406 C 156.664062 210.957031 155.90625 209.9375 155.199219 208.878906 C 154.492188 207.824219 153.839844 206.734375 153.238281 205.613281 C 152.640625 204.492188 152.09375 203.34375 151.609375 202.171875 C 151.121094 200.996094 150.691406 199.800781 150.324219 198.582031 C 149.953125 197.367188 149.644531 196.136719 149.398438 194.890625 C 149.148438 193.640625 148.960938 192.386719 148.835938 191.121094 C 148.710938 189.855469 148.648438 188.585938 148.648438 187.316406 C 148.648438 186.046875 148.710938 184.777344 148.835938 183.511719 C 148.960938 182.246094 149.148438 180.992188 149.398438 179.746094 C 149.644531 178.496094 149.953125 177.265625 150.324219 176.050781 C 150.691406 174.832031 151.121094 173.636719 151.609375 172.464844 C 152.09375 171.289062 152.640625 170.140625 153.238281 169.019531 C 153.839844 167.898438 154.492188 166.808594 155.199219 165.753906 C 155.90625 164.695312 156.664062 163.675781 157.472656 162.691406 C 158.277344 161.710938 159.132812 160.769531 160.03125 159.871094 C 160.933594 158.972656 161.875 158.121094 162.859375 157.3125 C 163.84375 156.507812 164.863281 155.75 165.921875 155.042969 C 166.980469 154.335938 168.070312 153.683594 169.191406 153.085938 C 170.316406 152.488281 171.464844 151.945312 172.640625 151.457031 C 173.816406 150.96875 175.011719 150.542969 176.230469 150.175781 C 177.449219 149.804688 178.679688 149.496094 179.929688 149.25 C 181.179688 149 182.4375 148.8125 183.703125 148.691406 C 184.96875 148.566406 186.238281 148.503906 187.511719 148.503906 C 188.785156 148.503906 190.054688 148.566406 191.320312 148.691406 C 192.585938 148.8125 193.84375 149 195.09375 149.25 C 196.339844 149.496094 197.574219 149.804688 198.792969 150.175781 C 200.011719 150.542969 201.207031 150.96875 202.382812 151.457031 C 203.558594 151.945312 204.707031 152.488281 205.832031 153.085938 C 206.953125 153.683594 208.042969 154.335938 209.101562 155.042969 C 210.160156 155.75 211.179688 156.507812 212.164062 157.3125 C 213.148438 158.121094 214.089844 158.972656 214.992188 159.871094 C 215.890625 160.769531 216.742188 161.710938 217.550781 162.691406 C 218.359375 163.675781 219.117188 164.695312 219.824219 165.753906 C 220.53125 166.808594 221.183594 167.898438 221.785156 169.019531 C 222.382812 170.140625 222.925781 171.289062 223.414062 172.464844 C 223.902344 173.636719 224.328125 174.832031 224.699219 176.050781 C 225.070312 177.265625 225.378906 178.496094 225.625 179.746094 C 225.875 180.992188 226.0625 182.246094 226.183594 183.511719 C 226.308594 184.777344 226.371094 186.046875 226.371094 187.316406 C 226.371094 188.585938 226.308594 189.855469 226.179688 191.121094 C 226.054688 192.382812 225.867188 193.640625 225.617188 194.886719 C 225.367188 196.132812 225.058594 197.363281 224.6875 198.578125 C 224.316406 199.792969 223.890625 200.988281 223.402344 202.164062 C 222.914062 203.335938 222.371094 204.484375 221.769531 205.605469 C 221.167969 206.722656 220.515625 207.8125 219.808594 208.871094 C 219.101562 209.925781 218.34375 210.945312 217.535156 211.925781 C 216.730469 212.910156 215.875 213.851562 214.976562 214.75 C 214.078125 215.648438 213.136719 216.5 212.152344 217.304688 C 211.167969 218.113281 210.148438 218.867188 209.089844 219.574219 C 208.03125 220.28125 206.941406 220.933594 205.820312 221.535156 C 204.699219 222.132812 203.550781 222.675781 202.375 223.164062 C 201.199219 223.648438 200.003906 224.078125 198.785156 224.449219 C 197.570312 224.820312 196.335938 225.128906 195.089844 225.375 C 193.84375 225.625 192.585938 225.8125 191.320312 225.9375 C 190.054688 226.066406 188.785156 226.128906 187.511719 226.128906 Z M 187.511719 156.914062 C 186.515625 156.914062 185.519531 156.960938 184.527344 157.058594 C 183.535156 157.15625 182.550781 157.304688 181.574219 157.496094 C 180.59375 157.691406 179.628906 157.933594 178.675781 158.222656 C 177.722656 158.511719 176.785156 158.847656 175.863281 159.226562 C 174.941406 159.609375 174.039062 160.035156 173.160156 160.503906 C 172.28125 160.972656 171.429688 161.484375 170.597656 162.035156 C 169.769531 162.589844 168.96875 163.183594 168.199219 163.8125 C 167.429688 164.445312 166.691406 165.113281 165.988281 165.816406 C 165.28125 166.523438 164.613281 167.257812 163.980469 168.027344 C 163.347656 168.796875 162.753906 169.597656 162.199219 170.425781 C 161.648438 171.253906 161.136719 172.105469 160.664062 172.984375 C 160.195312 173.863281 159.769531 174.761719 159.386719 175.679688 C 159.007812 176.601562 158.671875 177.539062 158.382812 178.492188 C 158.09375 179.445312 157.851562 180.410156 157.65625 181.386719 C 157.460938 182.363281 157.316406 183.34375 157.21875 184.335938 C 157.121094 185.328125 157.070312 186.320312 157.070312 187.316406 C 157.070312 188.3125 157.121094 189.304688 157.21875 190.296875 C 157.316406 191.289062 157.460938 192.269531 157.65625 193.246094 C 157.851562 194.222656 158.09375 195.1875 158.382812 196.140625 C 158.671875 197.09375 159.007812 198.03125 159.386719 198.953125 C 159.769531 199.871094 160.195312 200.769531 160.664062 201.648438 C 161.136719 202.527344 161.648438 203.378906 162.199219 204.207031 C 162.753906 205.035156 163.347656 205.835938 163.980469 206.605469 C 164.613281 207.375 165.28125 208.109375 165.988281 208.816406 C 166.691406 209.519531 167.429688 210.1875 168.199219 210.820312 C 168.96875 211.449219 169.769531 212.042969 170.597656 212.597656 C 171.429688 213.148438 172.28125 213.660156 173.160156 214.128906 C 174.039062 214.597656 174.941406 215.023438 175.863281 215.40625 C 176.785156 215.785156 177.722656 216.121094 178.675781 216.410156 C 179.628906 216.699219 180.59375 216.941406 181.574219 217.136719 C 182.550781 217.332031 183.535156 217.476562 184.527344 217.574219 C 185.519531 217.671875 186.515625 217.71875 187.511719 217.71875 C 188.507812 217.71875 189.503906 217.671875 190.496094 217.574219 C 191.488281 217.476562 192.472656 217.332031 193.449219 217.136719 C 194.429688 216.941406 195.394531 216.699219 196.347656 216.410156 C 197.300781 216.121094 198.238281 215.785156 199.160156 215.40625 C 200.082031 215.023438 200.980469 214.597656 201.859375 214.128906 C 202.738281 213.660156 203.59375 213.148438 204.421875 212.597656 C 205.253906 212.042969 206.050781 211.449219 206.824219 210.820312 C 207.59375 210.1875 208.332031 209.519531 209.035156 208.816406 C 209.742188 208.109375 210.410156 207.375 211.042969 206.605469 C 211.675781 205.835938 212.269531 205.035156 212.820312 204.207031 C 213.375 203.378906 213.886719 202.527344 214.359375 201.648438 C 214.828125 200.769531 215.253906 199.871094 215.632812 198.953125 C 216.015625 198.03125 216.351562 197.09375 216.640625 196.140625 C 216.929688 195.1875 217.171875 194.226562 217.367188 193.246094 C 217.5625 192.269531 217.707031 191.289062 217.804688 190.296875 C 217.902344 189.304688 217.953125 188.3125 217.953125 187.316406 C 217.949219 186.320312 217.902344 185.328125 217.800781 184.335938 C 217.703125 183.347656 217.554688 182.363281 217.359375 181.386719 C 217.164062 180.410156 216.921875 179.449219 216.632812 178.496094 C 216.34375 177.542969 216.007812 176.605469 215.625 175.6875 C 215.242188 174.769531 214.816406 173.871094 214.347656 172.992188 C 213.875 172.113281 213.363281 171.261719 212.808594 170.433594 C 212.257812 169.605469 211.664062 168.808594 211.03125 168.039062 C 210.398438 167.269531 209.730469 166.53125 209.023438 165.828125 C 208.320312 165.125 207.582031 164.457031 206.8125 163.824219 C 206.042969 163.195312 205.242188 162.601562 204.414062 162.046875 C 203.585938 161.496094 202.730469 160.984375 201.855469 160.515625 C 200.976562 160.042969 200.074219 159.617188 199.15625 159.238281 C 198.234375 158.855469 197.296875 158.519531 196.34375 158.230469 C 195.390625 157.941406 194.425781 157.699219 193.449219 157.503906 C 192.46875 157.308594 191.484375 157.160156 190.492188 157.0625 C 189.503906 156.964844 188.507812 156.914062 187.511719 156.914062 Z M 187.511719 156.914062 " fill-opacity="1" fill-rule="nonzero"/></svg>