<svg xmlns="http://www.w3.org/2000/svg" xmlns:xlink="http://www.w3.org/1999/xlink" width="816" zoomAndPan="magnify" viewBox="0 0 612 36.750001" height="49" preserveAspectRatio="xMidYMid meet" version="1.0"><defs><g/><clipPath id="7123bcae35"><path d="M 2.066406 0 L 609.929688 0 L 609.929688 36.5 L 2.066406 36.5 Z M 2.066406 0 " clip-rule="nonzero"/></clipPath><clipPath id="3ce4c2d40e"><path d="M 2.066406 0 L 609.929688 0 L 609.929688 36.386719 L 2.066406 36.386719 Z M 2.066406 0 " clip-rule="nonzero"/></clipPath></defs><g clip-path="url(#7123bcae35)"><path fill="#ffffff" d="M 2.066406 0 L 609.933594 0 L 609.933594 36.5 L 2.066406 36.5 Z M 2.066406 0 " fill-opacity="1" fill-rule="nonzero"/></g><g clip-path="url(#3ce4c2d40e)"><path fill="#d0e7d2" d="M 2.066406 0 L 609.964844 0 L 609.964844 36.386719 L 2.066406 36.386719 Z M 2.066406 0 " fill-opacity="1" fill-rule="nonzero"/></g><g fill="#604d3d" fill-opacity="1"><g transform="translate(217.73916, 24.676783)"><g><path d="M 2.59375 0.539062 C 2.765625 0.5625 2.808594 0.300781 2.679688 0.214844 C 2.398438 0.0429688 1.988281 0.0234375 1.664062 0.0234375 C 1.6875 -0.367188 1.664062 -0.777344 1.621094 -1.167969 C 1.597656 -1.707031 1.554688 -2.246094 1.535156 -2.765625 C 1.511719 -3.824219 1.492188 -4.90625 1.449219 -5.964844 C 1.363281 -8.105469 1.382812 -10.265625 1.511719 -12.425781 C 1.535156 -13.011719 1.578125 -13.617188 1.640625 -14.199219 C 1.6875 -14.804688 1.792969 -15.429688 1.792969 -16.035156 C 1.964844 -16.035156 2.140625 -16.035156 2.335938 -16.035156 C 2.570312 -16.035156 2.832031 -16.015625 3.070312 -16.078125 C 3.21875 -16.121094 3.242188 -16.359375 3.070312 -16.402344 C 2.851562 -16.46875 2.59375 -16.445312 2.378906 -16.445312 C 2.117188 -16.425781 1.835938 -16.425781 1.578125 -16.425781 C 1.382812 -16.574219 1.082031 -16.574219 0.90625 -16.425781 C 0.625 -16.402344 0.324219 -16.402344 0.0429688 -16.402344 C -0.195312 -16.402344 -0.195312 -16.035156 0.0429688 -16.035156 C 0.28125 -16.035156 0.496094 -16.015625 0.734375 -16.015625 C 0.625 -15.515625 0.605469 -15 0.5625 -14.480469 C 0.519531 -13.960938 0.476562 -13.421875 0.453125 -12.878906 C 0.390625 -11.800781 0.347656 -10.71875 0.347656 -9.640625 C 0.324219 -7.457031 0.410156 -5.292969 0.734375 -3.132812 C 0.820312 -2.550781 0.90625 -1.964844 0.992188 -1.382812 C 1.082031 -0.886719 1.144531 -0.410156 1.316406 0.0429688 C 1.039062 0.0859375 0.800781 0.152344 0.539062 0.238281 C 0.324219 0.347656 0.410156 0.691406 0.648438 0.605469 C 0.929688 0.496094 1.210938 0.433594 1.511719 0.433594 C 1.535156 0.433594 1.554688 0.433594 1.554688 0.410156 C 1.578125 0.410156 1.597656 0.410156 1.621094 0.410156 C 1.964844 0.410156 2.269531 0.519531 2.59375 0.539062 Z M 2.59375 0.539062 "/></g></g></g><g fill="#604d3d" fill-opacity="1"><g transform="translate(221.607527, 24.676783)"><g><path d="M 5.46875 -2.765625 C 5.1875 -2.464844 5.035156 -2.074219 4.667969 -1.878906 C 4.34375 -1.6875 3.953125 -1.75 3.71875 -2.054688 C 3.199219 -2.703125 3.542969 -3.628906 3.457031 -4.367188 C 3.371094 -5.015625 3.003906 -5.683594 2.289062 -5.75 C 1.578125 -5.835938 1.039062 -5.25 0.777344 -4.648438 C 0.800781 -4.949219 0.800781 -5.25 0.800781 -5.554688 C 0.800781 -5.898438 0.238281 -6.007812 0.171875 -5.640625 C 0.0234375 -4.777344 0.0429688 -3.867188 0.0859375 -3.003906 C 0.128906 -2.570312 0.171875 -2.140625 0.238281 -1.707031 C 0.300781 -1.296875 0.324219 -0.800781 0.5625 -0.433594 C 0.671875 -0.257812 1.015625 -0.257812 1.039062 -0.496094 C 1.101562 -0.90625 0.972656 -1.339844 0.929688 -1.75 C 0.863281 -2.160156 0.820312 -2.570312 0.800781 -3.003906 C 0.777344 -3.199219 0.777344 -3.394531 0.777344 -3.585938 C 0.84375 -3.804688 0.90625 -4.042969 0.992188 -4.234375 C 1.144531 -4.601562 1.363281 -4.992188 1.707031 -5.1875 C 2.03125 -5.382812 2.421875 -5.382812 2.679688 -5.078125 C 3.199219 -4.472656 2.917969 -3.585938 2.960938 -2.851562 C 3.003906 -2.246094 3.304688 -1.511719 3.976562 -1.339844 C 4.753906 -1.144531 5.488281 -1.921875 5.683594 -2.613281 C 5.726562 -2.746094 5.554688 -2.851562 5.46875 -2.765625 Z M 5.46875 -2.765625 "/></g></g></g><g fill="#604d3d" fill-opacity="1"><g transform="translate(227.118296, 24.676783)"><g><path d="M 4.820312 -2.464844 C 4.515625 -1.773438 4.085938 -1.101562 3.414062 -0.714844 C 2.765625 -0.367188 1.921875 -0.300781 1.296875 -0.714844 C 0.714844 -1.101562 0.433594 -1.835938 0.433594 -2.527344 C 0.433594 -3.285156 0.691406 -4.214844 1.230469 -4.753906 C 1.511719 -5.035156 1.988281 -5.230469 2.355469 -5.015625 C 2.636719 -4.839844 2.722656 -4.453125 2.527344 -4.214844 C 2.378906 -4 2.746094 -3.71875 2.894531 -3.910156 C 3.480469 -4.625 2.851562 -5.597656 1.988281 -5.574219 C 0.949219 -5.574219 0.390625 -4.515625 0.128906 -3.652344 C -0.152344 -2.703125 -0.109375 -1.621094 0.519531 -0.820312 C 1.125 -0.0664062 2.074219 0.171875 2.980469 -0.152344 C 4 -0.496094 4.667969 -1.425781 5.035156 -2.398438 C 5.101562 -2.550781 4.863281 -2.59375 4.820312 -2.464844 Z M 4.820312 -2.464844 "/></g></g></g><g fill="#604d3d" fill-opacity="1"><g transform="translate(232.002347, 24.676783)"><g><path d="M 0.886719 2.613281 C 0.863281 1.425781 0.863281 0.257812 0.84375 -0.90625 C 0.777344 -3.261719 0.777344 -5.617188 0.863281 -7.976562 C 0.886719 -8.621094 0.90625 -9.25 0.949219 -9.898438 C 0.972656 -10.566406 1.058594 -11.238281 1.039062 -11.90625 C 1.039062 -12.46875 0.476562 -12.644531 0.390625 -12.058594 C 0.300781 -11.453125 0.300781 -10.828125 0.257812 -10.222656 C 0.238281 -9.640625 0.214844 -9.035156 0.195312 -8.449219 C 0.152344 -7.28125 0.128906 -6.117188 0.128906 -4.96875 C 0.109375 -2.570312 0.152344 -0.214844 0.367188 2.160156 C 0.410156 2.808594 0.476562 3.457031 0.539062 4.105469 C 0.605469 4.753906 0.648438 5.425781 0.820312 6.050781 C 0.84375 6.136719 0.929688 6.160156 0.949219 6.050781 C 0.992188 5.46875 0.972656 4.90625 0.949219 4.34375 C 0.929688 3.761719 0.90625 3.175781 0.886719 2.613281 Z M 0.886719 2.613281 "/></g></g></g><g fill="#604d3d" fill-opacity="1"><g transform="translate(234.033757, 24.676783)"><g><path d="M 6.09375 -2.832031 C 6.09375 -2.851562 6.074219 -2.851562 6.050781 -2.851562 C 5.921875 -2.765625 5.878906 -2.613281 5.8125 -2.484375 C 5.707031 -2.3125 5.597656 -2.140625 5.425781 -1.988281 C 5.164062 -1.75 4.777344 -1.621094 4.453125 -1.816406 C 3.738281 -2.269531 3.890625 -3.15625 4.0625 -3.847656 C 4.128906 -4.148438 3.652344 -4.277344 3.566406 -3.976562 C 3.566406 -3.933594 3.542969 -3.890625 3.542969 -3.847656 C 3.457031 -3.566406 3.414062 -3.285156 3.328125 -3.003906 C 3.21875 -2.660156 3.070312 -2.335938 2.875 -2.011719 C 2.613281 -1.554688 2.074219 -0.800781 1.46875 -1.167969 C 0.949219 -1.46875 0.734375 -2.160156 0.648438 -2.703125 C 0.625 -3.003906 0.625 -3.328125 0.671875 -3.652344 C 0.714844 -3.804688 0.734375 -3.953125 0.800781 -4.105469 C 0.84375 -4.277344 0.929688 -4.453125 0.929688 -4.648438 C 0.929688 -4.90625 0.625 -4.992188 0.433594 -4.839844 C 0.128906 -4.601562 0.0429688 -4.019531 0 -3.652344 C -0.0429688 -3.261719 -0.0429688 -2.851562 0.0234375 -2.464844 C 0.152344 -1.75 0.539062 -0.820312 1.296875 -0.582031 C 2.054688 -0.347656 2.636719 -1.058594 2.9375 -1.640625 C 3.132812 -1.988281 3.304688 -2.335938 3.4375 -2.703125 C 3.480469 -2.117188 3.695312 -1.597656 4.300781 -1.40625 C 4.710938 -1.253906 5.144531 -1.382812 5.445312 -1.664062 C 5.617188 -1.835938 5.769531 -2.03125 5.878906 -2.246094 C 5.988281 -2.421875 6.117188 -2.636719 6.09375 -2.832031 Z M 6.09375 -2.832031 "/></g></g></g><g fill="#604d3d" fill-opacity="1"><g transform="translate(239.99838, 24.676783)"><g><path d="M 3.003906 -2.660156 C 2.378906 -2.851562 1.621094 -2.832031 0.929688 -2.636719 C 0.863281 -2.722656 0.820312 -2.789062 0.777344 -2.875 C 0.433594 -3.371094 0 -3.804688 -0.214844 -4.386719 C -0.433594 -4.882812 -0.433594 -5.640625 0.152344 -5.898438 C 0.734375 -6.179688 1.230469 -5.511719 0.929688 -4.992188 C 0.734375 -4.625 1.253906 -4.34375 1.46875 -4.667969 C 1.773438 -5.121094 1.730469 -5.726562 1.382812 -6.160156 C 1.058594 -6.546875 0.476562 -6.722656 0 -6.527344 C -0.476562 -6.355469 -0.800781 -5.898438 -0.90625 -5.425781 C -1.039062 -4.882812 -0.886719 -4.34375 -0.648438 -3.847656 C -0.390625 -3.351562 0 -2.894531 0.367188 -2.464844 C 0.367188 -2.441406 0.367188 -2.441406 0.367188 -2.421875 C 0.152344 -2.335938 -0.0664062 -2.203125 -0.257812 -2.054688 C -0.625 -1.75 -0.90625 -1.339844 -0.929688 -0.863281 C -0.929688 -0.453125 -0.757812 -0.0234375 -0.410156 0.195312 C 0 0.433594 0.476562 0.324219 0.820312 0.0664062 C 1.230469 -0.257812 1.40625 -0.757812 1.382812 -1.253906 C 1.363281 -1.664062 1.230469 -2.03125 1.058594 -2.378906 C 1.707031 -2.550781 2.335938 -2.527344 2.980469 -2.484375 C 3.089844 -2.464844 3.113281 -2.636719 3.003906 -2.660156 Z M 0.972656 -0.863281 C 0.90625 -0.367188 0.410156 0.109375 -0.109375 -0.0234375 C -0.605469 -0.152344 -0.734375 -0.777344 -0.582031 -1.1875 C -0.410156 -1.6875 0.0664062 -2.011719 0.539062 -2.203125 C 0.820312 -1.816406 1.039062 -1.339844 0.972656 -0.863281 Z M 0.972656 -0.863281 "/></g></g></g><g fill="#604d3d" fill-opacity="1"><g transform="translate(242.851006, 24.676783)"><g><path d="M 2.9375 -2.9375 C 2.851562 -2.269531 2.660156 -1.597656 2.3125 -1.039062 C 2.140625 -0.777344 1.835938 -0.476562 1.492188 -0.5625 C 1.210938 -0.648438 1.058594 -0.886719 0.972656 -1.144531 C 0.777344 -1.792969 0.777344 -2.527344 0.777344 -3.199219 C 0.757812 -3.542969 0.777344 -3.890625 0.777344 -4.234375 C 0.800781 -4.582031 0.90625 -5.015625 0.734375 -5.316406 C 0.671875 -5.488281 0.390625 -5.53125 0.28125 -5.382812 C 0.0234375 -5.058594 0.0664062 -4.453125 0.0664062 -4.042969 C 0.0429688 -3.609375 0.0664062 -3.15625 0.0859375 -2.722656 C 0.109375 -2.289062 0.152344 -1.859375 0.214844 -1.425781 C 0.28125 -1.039062 0.390625 -0.648438 0.691406 -0.390625 C 1.230469 0.128906 1.988281 -0.171875 2.355469 -0.734375 C 2.765625 -1.363281 2.960938 -2.183594 3.027344 -2.917969 C 3.046875 -2.980469 2.9375 -2.980469 2.9375 -2.9375 Z M 0.238281 -6.222656 C 0.238281 -6.203125 0.257812 -6.179688 0.28125 -6.160156 C 0.453125 -5.964844 0.820312 -5.988281 0.929688 -6.246094 C 1.039062 -6.460938 0.929688 -6.785156 0.648438 -6.828125 C 0.539062 -6.871094 0.433594 -6.828125 0.324219 -6.765625 C 0.28125 -6.722656 0.238281 -6.65625 0.195312 -6.589844 C 0.152344 -6.503906 0.152344 -6.398438 0.171875 -6.289062 C 0.195312 -6.265625 0.214844 -6.246094 0.238281 -6.222656 Z M 0.238281 -6.222656 "/></g></g></g><g fill="#604d3d" fill-opacity="1"><g transform="translate(245.768464, 24.676783)"><g><path d="M 4.234375 -2.875 C 4.128906 -2.636719 3.847656 -2.484375 3.585938 -2.527344 C 3.242188 -2.59375 3.046875 -2.917969 2.980469 -3.21875 C 2.9375 -3.457031 2.960938 -3.675781 3.003906 -3.910156 C 3.070312 -4.191406 3.15625 -4.472656 3.199219 -4.734375 C 3.261719 -4.96875 3.304688 -5.207031 3.304688 -5.445312 C 3.304688 -5.640625 3.027344 -5.617188 3.003906 -5.445312 C 2.894531 -4.558594 2.660156 -3.675781 2.269531 -2.875 C 2.074219 -2.507812 1.878906 -2.140625 1.640625 -1.773438 C 1.511719 -1.578125 1.363281 -1.382812 1.230469 -1.210938 C 1.167969 -1.144531 1.125 -1.082031 1.058594 -1.015625 C 1.039062 -1.101562 0.992188 -1.167969 0.949219 -1.253906 C 0.886719 -1.449219 0.800781 -1.621094 0.714844 -1.816406 C 0.5625 -2.203125 0.433594 -2.613281 0.300781 -3.003906 C 0.0859375 -3.804688 -0.0429688 -4.625 -0.109375 -5.445312 C -0.128906 -5.941406 -0.886719 -5.941406 -0.84375 -5.445312 C -0.800781 -4.558594 -0.625 -3.675781 -0.390625 -2.832031 C -0.257812 -2.398438 -0.128906 -1.988281 0.0429688 -1.578125 C 0.195312 -1.210938 0.347656 -0.671875 0.691406 -0.433594 C 0.886719 -0.300781 1.125 -0.476562 1.125 -0.691406 C 1.425781 -0.90625 1.664062 -1.273438 1.859375 -1.554688 C 2.140625 -1.945312 2.355469 -2.355469 2.570312 -2.789062 C 2.613281 -2.917969 2.679688 -3.027344 2.722656 -3.132812 C 2.765625 -2.960938 2.832031 -2.789062 2.960938 -2.636719 C 3.15625 -2.378906 3.480469 -2.203125 3.804688 -2.269531 C 4.105469 -2.3125 4.34375 -2.527344 4.386719 -2.832031 C 4.386719 -2.917969 4.257812 -2.960938 4.234375 -2.875 Z M 4.234375 -2.875 "/></g></g></g><g fill="#604d3d" fill-opacity="1"><g transform="translate(249.982601, 24.676783)"><g><path d="M 4.710938 -2.9375 C 4.34375 -2.117188 4 -1.210938 3.21875 -0.691406 C 2.464844 -0.195312 1.578125 -0.324219 0.972656 -0.949219 C 0.539062 -1.425781 0.367188 -2.03125 0.367188 -2.636719 C 0.949219 -2.679688 1.578125 -2.746094 2.054688 -3.089844 C 2.441406 -3.371094 2.746094 -3.824219 2.703125 -4.324219 C 2.679688 -4.753906 2.421875 -5.1875 1.988281 -5.339844 C 1.46875 -5.511719 0.929688 -5.207031 0.625 -4.796875 C 0.257812 -4.324219 0.0859375 -3.695312 0 -3.113281 C -0.0664062 -2.550781 -0.0234375 -1.945312 0.195312 -1.425781 C 0.605469 -0.476562 1.621094 0.214844 2.660156 -0.0429688 C 3.953125 -0.367188 4.539062 -1.707031 4.820312 -2.894531 C 4.820312 -2.960938 4.734375 -3.003906 4.710938 -2.9375 Z M 0.519531 -3.542969 C 0.625 -3.976562 0.800781 -4.453125 1.144531 -4.753906 C 1.46875 -5.058594 1.988281 -5.101562 2.226562 -4.648438 C 2.464844 -4.214844 2.246094 -3.738281 1.878906 -3.4375 C 1.46875 -3.113281 0.90625 -3.027344 0.410156 -3.003906 C 0.433594 -3.175781 0.453125 -3.371094 0.519531 -3.542969 Z M 0.519531 -3.542969 "/></g></g></g><g fill="#604d3d" fill-opacity="1"><g transform="translate(254.672154, 24.676783)"><g/></g></g><g fill="#604d3d" fill-opacity="1"><g transform="translate(261.63087, 24.676783)"><g><path d="M 5.8125 1.167969 C 4.367188 0.863281 2.875 0.949219 1.449219 1.316406 C 1.230469 1.363281 1.015625 1.425781 0.820312 1.511719 C 0.820312 -0.734375 0.929688 -2.980469 1.039062 -5.230469 C 1.144531 -7.542969 1.273438 -9.832031 1.449219 -12.125 C 1.492188 -12.75 1.554688 -13.398438 1.597656 -14.027344 C 1.621094 -14.351562 1.664062 -14.695312 1.6875 -15.019531 C 1.707031 -15.34375 1.773438 -15.691406 1.75 -16.015625 C 1.707031 -16.53125 0.972656 -16.664062 0.820312 -16.144531 C 0.691406 -15.582031 0.671875 -14.957031 0.605469 -14.351562 C 0.5625 -13.789062 0.519531 -13.226562 0.476562 -12.644531 C 0.367188 -11.496094 0.300781 -10.332031 0.238281 -9.183594 C 0.109375 -6.871094 0.0429688 -4.558594 0.0664062 -2.226562 C 0.0859375 -0.929688 0.109375 0.367188 0.128906 1.664062 C 0.128906 1.707031 0.128906 1.75 0.128906 1.792969 C -0.214844 1.945312 -0.582031 2.140625 -0.863281 2.398438 C -1.101562 2.613281 -0.863281 3.132812 -0.519531 2.980469 C -0.195312 2.851562 0.0859375 2.660156 0.390625 2.507812 C 0.714844 2.335938 1.039062 2.203125 1.363281 2.074219 C 1.988281 1.816406 2.660156 1.640625 3.351562 1.578125 C 4.710938 1.425781 6.117188 1.6875 7.371094 2.226562 C 8.082031 2.527344 8.753906 2.9375 9.445312 3.328125 C 9.550781 3.371094 9.640625 3.242188 9.574219 3.15625 C 8.667969 2.054688 7.152344 1.449219 5.8125 1.167969 Z M 5.8125 1.167969 "/></g></g></g><g fill="#604d3d" fill-opacity="1"><g transform="translate(265.607266, 24.676783)"><g><path d="M 4.710938 -2.9375 C 4.34375 -2.117188 4 -1.210938 3.21875 -0.691406 C 2.464844 -0.195312 1.578125 -0.324219 0.972656 -0.949219 C 0.539062 -1.425781 0.367188 -2.03125 0.367188 -2.636719 C 0.949219 -2.679688 1.578125 -2.746094 2.054688 -3.089844 C 2.441406 -3.371094 2.746094 -3.824219 2.703125 -4.324219 C 2.679688 -4.753906 2.421875 -5.1875 1.988281 -5.339844 C 1.46875 -5.511719 0.929688 -5.207031 0.625 -4.796875 C 0.257812 -4.324219 0.0859375 -3.695312 0 -3.113281 C -0.0664062 -2.550781 -0.0234375 -1.945312 0.195312 -1.425781 C 0.605469 -0.476562 1.621094 0.214844 2.660156 -0.0429688 C 3.953125 -0.367188 4.539062 -1.707031 4.820312 -2.894531 C 4.820312 -2.960938 4.734375 -3.003906 4.710938 -2.9375 Z M 0.519531 -3.542969 C 0.625 -3.976562 0.800781 -4.453125 1.144531 -4.753906 C 1.46875 -5.058594 1.988281 -5.101562 2.226562 -4.648438 C 2.464844 -4.214844 2.246094 -3.738281 1.878906 -3.4375 C 1.46875 -3.113281 0.90625 -3.027344 0.410156 -3.003906 C 0.433594 -3.175781 0.453125 -3.371094 0.519531 -3.542969 Z M 0.519531 -3.542969 "/></g></g></g><g fill="#604d3d" fill-opacity="1"><g transform="translate(270.29682, 24.676783)"><g><path d="M 7.714844 -2.398438 C 7.175781 -1.640625 6.417969 -0.929688 5.402344 -1.167969 C 4.992188 -1.273438 4.667969 -1.554688 4.496094 -1.964844 C 4.277344 -2.464844 4.410156 -3.003906 4.34375 -3.523438 C 4.324219 -3.609375 4.257812 -3.675781 4.191406 -3.695312 C 4.148438 -3.761719 4.085938 -3.761719 4.042969 -3.71875 C 3.953125 -3.71875 3.890625 -3.675781 3.847656 -3.585938 C 3.78125 -3.480469 3.738281 -3.328125 3.71875 -3.199219 C 3.628906 -3.027344 3.523438 -2.832031 3.414062 -2.660156 C 3.199219 -2.3125 2.9375 -1.988281 2.660156 -1.6875 C 2.269531 -1.253906 1.40625 -0.28125 0.84375 -1.039062 C 0.453125 -1.554688 0.519531 -2.378906 0.691406 -2.960938 C 0.886719 -3.609375 1.273438 -4.214844 1.816406 -4.625 C 2.441406 -5.101562 3.5 -5.511719 4.085938 -4.777344 C 4.386719 -4.410156 4.949219 -4.992188 4.601562 -5.292969 C 3.804688 -5.941406 2.765625 -5.941406 1.878906 -5.445312 C 1.082031 -5.015625 0.496094 -4.257812 0.195312 -3.414062 C -0.109375 -2.660156 -0.195312 -1.664062 0.238281 -0.929688 C 0.453125 -0.582031 0.757812 -0.324219 1.167969 -0.28125 C 1.664062 -0.238281 2.097656 -0.5625 2.441406 -0.886719 C 2.832031 -1.253906 3.175781 -1.6875 3.457031 -2.117188 C 3.542969 -2.226562 3.609375 -2.355469 3.695312 -2.464844 C 3.738281 -2.183594 3.804688 -1.902344 3.933594 -1.640625 C 4.171875 -1.101562 4.648438 -0.714844 5.25 -0.625 C 6.398438 -0.453125 7.414062 -1.339844 7.824219 -2.355469 C 7.84375 -2.421875 7.738281 -2.464844 7.714844 -2.398438 Z M 7.714844 -2.398438 "/></g></g></g><g fill="#604d3d" fill-opacity="1"><g transform="translate(277.947073, 24.676783)"><g><path d="M 4.539062 -3.414062 C 4.171875 -3.371094 3.824219 -3.675781 3.628906 -3.953125 C 3.4375 -4.257812 3.304688 -4.558594 3.089844 -4.820312 C 2.679688 -5.292969 2.011719 -5.554688 1.492188 -5.078125 C 1.273438 -4.882812 1.144531 -4.601562 1.039062 -4.34375 C 0.992188 -4.234375 0.949219 -4.148438 0.929688 -4.0625 C 0.949219 -4.496094 1.039062 -4.949219 1.039062 -5.402344 C 1.039062 -5.835938 0.367188 -5.941406 0.257812 -5.488281 C 0.128906 -5.015625 0.109375 -4.496094 0.0859375 -4 C 0.0664062 -3.523438 0.0664062 -3.046875 0.0859375 -2.59375 C 0.109375 -2.117188 0.171875 -1.640625 0.238281 -1.1875 C 0.28125 -0.949219 0.324219 -0.714844 0.433594 -0.496094 C 0.476562 -0.410156 0.5625 -0.195312 0.691406 -0.214844 C 0.972656 -0.238281 0.929688 -0.929688 0.929688 -1.101562 C 0.90625 -1.554688 0.886719 -2.03125 0.886719 -2.484375 C 0.886719 -2.527344 0.886719 -2.550781 0.886719 -2.59375 C 0.929688 -2.746094 0.949219 -2.875 1.015625 -3.027344 C 1.125 -3.371094 1.230469 -3.738281 1.363281 -4.085938 C 1.46875 -4.34375 1.597656 -4.648438 1.835938 -4.796875 C 2.464844 -5.230469 2.917969 -4.214844 3.21875 -3.847656 C 3.542969 -3.414062 4.019531 -3.046875 4.582031 -3.304688 C 4.625 -3.328125 4.601562 -3.4375 4.539062 -3.414062 Z M 4.539062 -3.414062 "/></g></g></g><g fill="#604d3d" fill-opacity="1"><g transform="translate(282.355676, 24.676783)"><g><path d="M 5.46875 -2.765625 C 5.1875 -2.464844 5.035156 -2.074219 4.667969 -1.878906 C 4.34375 -1.6875 3.953125 -1.75 3.71875 -2.054688 C 3.199219 -2.703125 3.542969 -3.628906 3.457031 -4.367188 C 3.371094 -5.015625 3.003906 -5.683594 2.289062 -5.75 C 1.578125 -5.835938 1.039062 -5.25 0.777344 -4.648438 C 0.800781 -4.949219 0.800781 -5.25 0.800781 -5.554688 C 0.800781 -5.898438 0.238281 -6.007812 0.171875 -5.640625 C 0.0234375 -4.777344 0.0429688 -3.867188 0.0859375 -3.003906 C 0.128906 -2.570312 0.171875 -2.140625 0.238281 -1.707031 C 0.300781 -1.296875 0.324219 -0.800781 0.5625 -0.433594 C 0.671875 -0.257812 1.015625 -0.257812 1.039062 -0.496094 C 1.101562 -0.90625 0.972656 -1.339844 0.929688 -1.75 C 0.863281 -2.160156 0.820312 -2.570312 0.800781 -3.003906 C 0.777344 -3.199219 0.777344 -3.394531 0.777344 -3.585938 C 0.84375 -3.804688 0.90625 -4.042969 0.992188 -4.234375 C 1.144531 -4.601562 1.363281 -4.992188 1.707031 -5.1875 C 2.03125 -5.382812 2.421875 -5.382812 2.679688 -5.078125 C 3.199219 -4.472656 2.917969 -3.585938 2.960938 -2.851562 C 3.003906 -2.246094 3.304688 -1.511719 3.976562 -1.339844 C 4.753906 -1.144531 5.488281 -1.921875 5.683594 -2.613281 C 5.726562 -2.746094 5.554688 -2.851562 5.46875 -2.765625 Z M 5.46875 -2.765625 "/></g></g></g><g fill="#604d3d" fill-opacity="1"><g transform="translate(287.866457, 24.676783)"><g><path d="M 2.9375 -2.9375 C 2.851562 -2.269531 2.660156 -1.597656 2.3125 -1.039062 C 2.140625 -0.777344 1.835938 -0.476562 1.492188 -0.5625 C 1.210938 -0.648438 1.058594 -0.886719 0.972656 -1.144531 C 0.777344 -1.792969 0.777344 -2.527344 0.777344 -3.199219 C 0.757812 -3.542969 0.777344 -3.890625 0.777344 -4.234375 C 0.800781 -4.582031 0.90625 -5.015625 0.734375 -5.316406 C 0.671875 -5.488281 0.390625 -5.53125 0.28125 -5.382812 C 0.0234375 -5.058594 0.0664062 -4.453125 0.0664062 -4.042969 C 0.0429688 -3.609375 0.0664062 -3.15625 0.0859375 -2.722656 C 0.109375 -2.289062 0.152344 -1.859375 0.214844 -1.425781 C 0.28125 -1.039062 0.390625 -0.648438 0.691406 -0.390625 C 1.230469 0.128906 1.988281 -0.171875 2.355469 -0.734375 C 2.765625 -1.363281 2.960938 -2.183594 3.027344 -2.917969 C 3.046875 -2.980469 2.9375 -2.980469 2.9375 -2.9375 Z M 0.238281 -6.222656 C 0.238281 -6.203125 0.257812 -6.179688 0.28125 -6.160156 C 0.453125 -5.964844 0.820312 -5.988281 0.929688 -6.246094 C 1.039062 -6.460938 0.929688 -6.785156 0.648438 -6.828125 C 0.539062 -6.871094 0.433594 -6.828125 0.324219 -6.765625 C 0.28125 -6.722656 0.238281 -6.65625 0.195312 -6.589844 C 0.152344 -6.503906 0.152344 -6.398438 0.171875 -6.289062 C 0.195312 -6.265625 0.214844 -6.246094 0.238281 -6.222656 Z M 0.238281 -6.222656 "/></g></g></g><g fill="#604d3d" fill-opacity="1"><g transform="translate(290.783946, 24.676783)"><g><path d="M 5.46875 -2.765625 C 5.1875 -2.464844 5.035156 -2.074219 4.667969 -1.878906 C 4.34375 -1.6875 3.953125 -1.75 3.71875 -2.054688 C 3.199219 -2.703125 3.542969 -3.628906 3.457031 -4.367188 C 3.371094 -5.015625 3.003906 -5.683594 2.289062 -5.75 C 1.578125 -5.835938 1.039062 -5.25 0.777344 -4.648438 C 0.800781 -4.949219 0.800781 -5.25 0.800781 -5.554688 C 0.800781 -5.898438 0.238281 -6.007812 0.171875 -5.640625 C 0.0234375 -4.777344 0.0429688 -3.867188 0.0859375 -3.003906 C 0.128906 -2.570312 0.171875 -2.140625 0.238281 -1.707031 C 0.300781 -1.296875 0.324219 -0.800781 0.5625 -0.433594 C 0.671875 -0.257812 1.015625 -0.257812 1.039062 -0.496094 C 1.101562 -0.90625 0.972656 -1.339844 0.929688 -1.75 C 0.863281 -2.160156 0.820312 -2.570312 0.800781 -3.003906 C 0.777344 -3.199219 0.777344 -3.394531 0.777344 -3.585938 C 0.84375 -3.804688 0.90625 -4.042969 0.992188 -4.234375 C 1.144531 -4.601562 1.363281 -4.992188 1.707031 -5.1875 C 2.03125 -5.382812 2.421875 -5.382812 2.679688 -5.078125 C 3.199219 -4.472656 2.917969 -3.585938 2.960938 -2.851562 C 3.003906 -2.246094 3.304688 -1.511719 3.976562 -1.339844 C 4.753906 -1.144531 5.488281 -1.921875 5.683594 -2.613281 C 5.726562 -2.746094 5.554688 -2.851562 5.46875 -2.765625 Z M 5.46875 -2.765625 "/></g></g></g><g fill="#604d3d" fill-opacity="1"><g transform="translate(296.294699, 24.676783)"><g><path d="M 8.0625 -2.570312 C 7.023438 -2.832031 5.964844 -2.832031 4.925781 -2.613281 C 4.648438 -3.285156 4.324219 -3.910156 4.042969 -4.539062 C 3.976562 -4.734375 3.652344 -4.691406 3.628906 -4.496094 C 3.414062 -3.394531 2.703125 -1.921875 1.339844 -2.203125 C -0.195312 -2.507812 0.691406 -4.496094 1.40625 -5.1875 C 1.859375 -5.640625 2.765625 -5.921875 3.21875 -5.292969 C 3.351562 -5.101562 3.675781 -5.273438 3.542969 -5.488281 C 3.132812 -6.160156 2.246094 -6.265625 1.578125 -5.941406 C 0.84375 -5.574219 0.257812 -4.734375 0.0234375 -3.953125 C -0.238281 -3.199219 -0.0664062 -2.269531 0.671875 -1.835938 C 1.316406 -1.46875 2.183594 -1.554688 2.789062 -1.964844 C 3.394531 -2.378906 3.71875 -3.027344 3.910156 -3.71875 C 4.105469 -3.304688 4.300781 -2.917969 4.472656 -2.507812 C 3.910156 -2.355469 3.371094 -2.140625 2.851562 -1.859375 C 1.210938 -0.949219 -0.214844 0.691406 -0.476562 2.570312 C -0.605469 3.480469 -0.390625 4.453125 0.195312 5.1875 C 0.757812 5.878906 1.597656 6.246094 2.484375 6.222656 C 3.371094 6.179688 4.234375 5.792969 4.839844 5.164062 C 5.53125 4.472656 5.898438 3.523438 6.03125 2.570312 C 6.265625 0.84375 5.726562 -0.800781 5.035156 -2.378906 C 6.007812 -2.570312 7.023438 -2.550781 7.976562 -2.3125 C 8.148438 -2.289062 8.210938 -2.527344 8.0625 -2.570312 Z M 5.617188 1.554688 C 5.683594 3.261719 4.949219 5.121094 3.175781 5.640625 C 2.421875 5.855469 1.578125 5.792969 0.929688 5.292969 C 0.257812 4.753906 -0.0859375 3.890625 -0.109375 3.027344 C -0.128906 1.210938 1.144531 -0.453125 2.636719 -1.382812 C 3.242188 -1.773438 3.890625 -2.074219 4.582031 -2.269531 C 5.121094 -1.039062 5.574219 0.238281 5.617188 1.554688 Z M 5.617188 1.554688 "/></g></g></g><g fill="#604d3d" fill-opacity="1"><g transform="translate(304.225903, 24.676783)"><g/></g></g><g fill="#604d3d" fill-opacity="1"><g transform="translate(311.184589, 24.676783)"><g><path d="M 4.105469 -9.941406 C 3.070312 -9.917969 2.03125 -9.898438 0.972656 -9.855469 C 0.972656 -9.855469 0.972656 -9.855469 0.949219 -9.855469 C 0.949219 -9.875 0.972656 -9.875 0.972656 -9.875 C 0.992188 -10.523438 1.058594 -11.214844 1.058594 -11.886719 C 1.058594 -12.449219 0.496094 -12.597656 0.410156 -12.015625 C 0.324219 -11.433594 0.324219 -10.804688 0.28125 -10.199219 C 0.28125 -10.070312 0.28125 -9.964844 0.28125 -9.832031 C -0.539062 -9.8125 -1.339844 -9.746094 -2.160156 -9.703125 C -2.3125 -9.683594 -2.335938 -9.269531 -2.160156 -9.269531 C -1.339844 -9.316406 -0.539062 -9.359375 0.257812 -9.421875 C 0.238281 -9.097656 0.214844 -8.753906 0.214844 -8.40625 C 0.171875 -7.261719 0.152344 -6.09375 0.152344 -4.925781 C 0.128906 -2.550781 0.171875 -0.171875 0.390625 2.183594 C 0.433594 2.832031 0.496094 3.480469 0.5625 4.128906 C 0.625 4.777344 0.671875 5.445312 0.84375 6.074219 C 0.863281 6.160156 0.949219 6.203125 0.972656 6.074219 C 1.015625 5.511719 0.972656 4.949219 0.949219 4.367188 C 0.929688 3.78125 0.90625 3.21875 0.90625 2.636719 C 0.886719 1.46875 0.886719 0.28125 0.84375 -0.886719 C 0.800781 -3.242188 0.800781 -5.597656 0.886719 -7.953125 C 0.90625 -8.449219 0.929688 -8.96875 0.949219 -9.488281 C 0.949219 -9.488281 0.972656 -9.488281 0.972656 -9.488281 C 2.03125 -9.59375 3.070312 -9.703125 4.105469 -9.8125 C 4.171875 -9.8125 4.171875 -9.941406 4.105469 -9.941406 Z M 4.105469 -9.941406 "/></g></g></g><g fill="#604d3d" fill-opacity="1"><g transform="translate(313.021517, 24.676783)"><g><path d="M 6.050781 -2.59375 C 6.03125 -2.660156 5.921875 -2.679688 5.855469 -2.613281 C 5.683594 -2.378906 5.574219 -2.140625 5.230469 -2.140625 C 4.839844 -2.117188 4.558594 -2.464844 4.410156 -2.765625 C 4.0625 -3.457031 4.148438 -4.300781 3.609375 -4.90625 C 3.15625 -5.445312 2.421875 -5.488281 1.878906 -5.035156 C 1.273438 -4.558594 1.058594 -3.652344 0.84375 -2.9375 C 0.84375 -2.894531 0.820312 -2.875 0.820312 -2.832031 C 0.800781 -3.414062 0.800781 -4 0.777344 -4.582031 C 0.777344 -6.222656 0.84375 -7.867188 0.972656 -9.507812 C 1.015625 -9.964844 1.058594 -10.394531 1.101562 -10.847656 C 1.167969 -11.304688 1.273438 -11.800781 1.253906 -12.253906 C 1.210938 -12.644531 0.714844 -12.707031 0.582031 -12.339844 C 0.433594 -11.972656 0.433594 -11.519531 0.390625 -11.128906 C 0.347656 -10.71875 0.300781 -10.289062 0.257812 -9.875 C 0.195312 -9.054688 0.152344 -8.253906 0.109375 -7.433594 C 0.0429688 -5.792969 0.0859375 -4.148438 0.171875 -2.507812 C 0.195312 -2.03125 0.238281 -1.578125 0.257812 -1.101562 C 0.28125 -0.886719 0.300781 -0.671875 0.324219 -0.453125 C 0.347656 -0.257812 0.347656 -0.109375 0.433594 0 C 0.433594 0.0234375 0.453125 0.0234375 0.453125 0.0234375 C 0.496094 0.0859375 0.5625 0.128906 0.671875 0.171875 C 0.691406 0.195312 0.714844 0.195312 0.734375 0.171875 C 0.929688 0.0429688 1.015625 -0.0664062 0.992188 -0.300781 C 0.992188 -0.519531 0.949219 -0.714844 0.949219 -0.90625 C 0.90625 -1.253906 0.886719 -1.597656 0.863281 -1.964844 C 0.929688 -2.203125 0.972656 -2.441406 1.058594 -2.703125 C 1.167969 -3.132812 1.316406 -3.566406 1.492188 -3.976562 C 1.664062 -4.34375 1.859375 -4.710938 2.226562 -4.90625 C 2.59375 -5.121094 3.003906 -5.058594 3.285156 -4.734375 C 3.566406 -4.429688 3.652344 -4.042969 3.738281 -3.652344 C 3.910156 -2.980469 4.085938 -2.160156 4.777344 -1.835938 C 5.058594 -1.707031 5.425781 -1.707031 5.707031 -1.878906 C 5.964844 -2.011719 6.203125 -2.3125 6.050781 -2.59375 Z M 6.050781 -2.59375 "/></g></g></g><g fill="#604d3d" fill-opacity="1"><g transform="translate(318.964506, 24.676783)"><g><path d="M 4.539062 -3.414062 C 4.171875 -3.371094 3.824219 -3.675781 3.628906 -3.953125 C 3.4375 -4.257812 3.304688 -4.558594 3.089844 -4.820312 C 2.679688 -5.292969 2.011719 -5.554688 1.492188 -5.078125 C 1.273438 -4.882812 1.144531 -4.601562 1.039062 -4.34375 C 0.992188 -4.234375 0.949219 -4.148438 0.929688 -4.0625 C 0.949219 -4.496094 1.039062 -4.949219 1.039062 -5.402344 C 1.039062 -5.835938 0.367188 -5.941406 0.257812 -5.488281 C 0.128906 -5.015625 0.109375 -4.496094 0.0859375 -4 C 0.0664062 -3.523438 0.0664062 -3.046875 0.0859375 -2.59375 C 0.109375 -2.117188 0.171875 -1.640625 0.238281 -1.1875 C 0.28125 -0.949219 0.324219 -0.714844 0.433594 -0.496094 C 0.476562 -0.410156 0.5625 -0.195312 0.691406 -0.214844 C 0.972656 -0.238281 0.929688 -0.929688 0.929688 -1.101562 C 0.90625 -1.554688 0.886719 -2.03125 0.886719 -2.484375 C 0.886719 -2.527344 0.886719 -2.550781 0.886719 -2.59375 C 0.929688 -2.746094 0.949219 -2.875 1.015625 -3.027344 C 1.125 -3.371094 1.230469 -3.738281 1.363281 -4.085938 C 1.46875 -4.34375 1.597656 -4.648438 1.835938 -4.796875 C 2.464844 -5.230469 2.917969 -4.214844 3.21875 -3.847656 C 3.542969 -3.414062 4.019531 -3.046875 4.582031 -3.304688 C 4.625 -3.328125 4.601562 -3.4375 4.539062 -3.414062 Z M 4.539062 -3.414062 "/></g></g></g><g fill="#604d3d" fill-opacity="1"><g transform="translate(323.373138, 24.676783)"><g><path d="M 5.273438 -2.832031 C 4.753906 -2.464844 4.105469 -2.269531 3.5 -2.335938 C 3.695312 -2.789062 3.738281 -3.285156 3.71875 -3.761719 C 3.652344 -4.410156 3.523438 -5.207031 2.9375 -5.597656 C 2.660156 -5.792969 2.355469 -5.835938 2.097656 -5.75 C 2.097656 -5.988281 1.859375 -6.203125 1.597656 -6.050781 C 0.390625 -5.359375 -0.367188 -3.761719 0.0664062 -2.378906 C 0.257812 -1.773438 0.714844 -1.1875 1.363281 -1.058594 C 2.03125 -0.929688 2.722656 -1.210938 3.15625 -1.730469 C 3.242188 -1.835938 3.328125 -1.964844 3.394531 -2.097656 C 4.105469 -1.988281 4.882812 -2.183594 5.382812 -2.703125 C 5.46875 -2.765625 5.359375 -2.894531 5.273438 -2.832031 Z M 1.664062 -1.621094 C 1.210938 -1.6875 0.886719 -2.054688 0.714844 -2.464844 C 0.367188 -3.394531 0.734375 -4.386719 1.40625 -5.058594 C 1.210938 -4.515625 1.339844 -3.910156 1.578125 -3.414062 C 1.878906 -2.851562 2.378906 -2.398438 2.980469 -2.183594 C 2.679688 -1.816406 2.140625 -1.554688 1.664062 -1.621094 Z M 3.132812 -2.398438 C 2.789062 -2.507812 2.464844 -2.703125 2.183594 -2.980469 C 1.792969 -3.414062 1.554688 -3.976562 1.554688 -4.558594 C 1.578125 -5.121094 1.945312 -5.726562 2.59375 -5.511719 C 3.21875 -5.292969 3.414062 -4.496094 3.4375 -3.910156 C 3.480469 -3.394531 3.414062 -2.851562 3.132812 -2.398438 Z M 3.132812 -2.398438 "/></g></g></g><g fill="#604d3d" fill-opacity="1"><g transform="translate(328.602971, 24.676783)"><g><path d="M 6.09375 -2.832031 C 6.09375 -2.851562 6.074219 -2.851562 6.050781 -2.851562 C 5.921875 -2.765625 5.878906 -2.613281 5.8125 -2.484375 C 5.707031 -2.3125 5.597656 -2.140625 5.425781 -1.988281 C 5.164062 -1.75 4.777344 -1.621094 4.453125 -1.816406 C 3.738281 -2.269531 3.890625 -3.15625 4.0625 -3.847656 C 4.128906 -4.148438 3.652344 -4.277344 3.566406 -3.976562 C 3.566406 -3.933594 3.542969 -3.890625 3.542969 -3.847656 C 3.457031 -3.566406 3.414062 -3.285156 3.328125 -3.003906 C 3.21875 -2.660156 3.070312 -2.335938 2.875 -2.011719 C 2.613281 -1.554688 2.074219 -0.800781 1.46875 -1.167969 C 0.949219 -1.46875 0.734375 -2.160156 0.648438 -2.703125 C 0.625 -3.003906 0.625 -3.328125 0.671875 -3.652344 C 0.714844 -3.804688 0.734375 -3.953125 0.800781 -4.105469 C 0.84375 -4.277344 0.929688 -4.453125 0.929688 -4.648438 C 0.929688 -4.90625 0.625 -4.992188 0.433594 -4.839844 C 0.128906 -4.601562 0.0429688 -4.019531 0 -3.652344 C -0.0429688 -3.261719 -0.0429688 -2.851562 0.0234375 -2.464844 C 0.152344 -1.75 0.539062 -0.820312 1.296875 -0.582031 C 2.054688 -0.347656 2.636719 -1.058594 2.9375 -1.640625 C 3.132812 -1.988281 3.304688 -2.335938 3.4375 -2.703125 C 3.480469 -2.117188 3.695312 -1.597656 4.300781 -1.40625 C 4.710938 -1.253906 5.144531 -1.382812 5.445312 -1.664062 C 5.617188 -1.835938 5.769531 -2.03125 5.878906 -2.246094 C 5.988281 -2.421875 6.117188 -2.636719 6.09375 -2.832031 Z M 6.09375 -2.832031 "/></g></g></g><g fill="#604d3d" fill-opacity="1"><g transform="translate(334.567551, 24.676783)"><g><path d="M 8.0625 -2.570312 C 7.023438 -2.832031 5.964844 -2.832031 4.925781 -2.613281 C 4.648438 -3.285156 4.324219 -3.910156 4.042969 -4.539062 C 3.976562 -4.734375 3.652344 -4.691406 3.628906 -4.496094 C 3.414062 -3.394531 2.703125 -1.921875 1.339844 -2.203125 C -0.195312 -2.507812 0.691406 -4.496094 1.40625 -5.1875 C 1.859375 -5.640625 2.765625 -5.921875 3.21875 -5.292969 C 3.351562 -5.101562 3.675781 -5.273438 3.542969 -5.488281 C 3.132812 -6.160156 2.246094 -6.265625 1.578125 -5.941406 C 0.84375 -5.574219 0.257812 -4.734375 0.0234375 -3.953125 C -0.238281 -3.199219 -0.0664062 -2.269531 0.671875 -1.835938 C 1.316406 -1.46875 2.183594 -1.554688 2.789062 -1.964844 C 3.394531 -2.378906 3.71875 -3.027344 3.910156 -3.71875 C 4.105469 -3.304688 4.300781 -2.917969 4.472656 -2.507812 C 3.910156 -2.355469 3.371094 -2.140625 2.851562 -1.859375 C 1.210938 -0.949219 -0.214844 0.691406 -0.476562 2.570312 C -0.605469 3.480469 -0.390625 4.453125 0.195312 5.1875 C 0.757812 5.878906 1.597656 6.246094 2.484375 6.222656 C 3.371094 6.179688 4.234375 5.792969 4.839844 5.164062 C 5.53125 4.472656 5.898438 3.523438 6.03125 2.570312 C 6.265625 0.84375 5.726562 -0.800781 5.035156 -2.378906 C 6.007812 -2.570312 7.023438 -2.550781 7.976562 -2.3125 C 8.148438 -2.289062 8.210938 -2.527344 8.0625 -2.570312 Z M 5.617188 1.554688 C 5.683594 3.261719 4.949219 5.121094 3.175781 5.640625 C 2.421875 5.855469 1.578125 5.792969 0.929688 5.292969 C 0.257812 4.753906 -0.0859375 3.890625 -0.109375 3.027344 C -0.128906 1.210938 1.144531 -0.453125 2.636719 -1.382812 C 3.242188 -1.773438 3.890625 -2.074219 4.582031 -2.269531 C 5.121094 -1.039062 5.574219 0.238281 5.617188 1.554688 Z M 5.617188 1.554688 "/></g></g></g><g fill="#604d3d" fill-opacity="1"><g transform="translate(342.498755, 24.676783)"><g><path d="M 6.050781 -2.59375 C 6.03125 -2.660156 5.921875 -2.679688 5.855469 -2.613281 C 5.683594 -2.378906 5.574219 -2.140625 5.230469 -2.140625 C 4.839844 -2.117188 4.558594 -2.464844 4.410156 -2.765625 C 4.0625 -3.457031 4.148438 -4.300781 3.609375 -4.90625 C 3.15625 -5.445312 2.421875 -5.488281 1.878906 -5.035156 C 1.273438 -4.558594 1.058594 -3.652344 0.84375 -2.9375 C 0.84375 -2.894531 0.820312 -2.875 0.820312 -2.832031 C 0.800781 -3.414062 0.800781 -4 0.777344 -4.582031 C 0.777344 -6.222656 0.84375 -7.867188 0.972656 -9.507812 C 1.015625 -9.964844 1.058594 -10.394531 1.101562 -10.847656 C 1.167969 -11.304688 1.273438 -11.800781 1.253906 -12.253906 C 1.210938 -12.644531 0.714844 -12.707031 0.582031 -12.339844 C 0.433594 -11.972656 0.433594 -11.519531 0.390625 -11.128906 C 0.347656 -10.71875 0.300781 -10.289062 0.257812 -9.875 C 0.195312 -9.054688 0.152344 -8.253906 0.109375 -7.433594 C 0.0429688 -5.792969 0.0859375 -4.148438 0.171875 -2.507812 C 0.195312 -2.03125 0.238281 -1.578125 0.257812 -1.101562 C 0.28125 -0.886719 0.300781 -0.671875 0.324219 -0.453125 C 0.347656 -0.257812 0.347656 -0.109375 0.433594 0 C 0.433594 0.0234375 0.453125 0.0234375 0.453125 0.0234375 C 0.496094 0.0859375 0.5625 0.128906 0.671875 0.171875 C 0.691406 0.195312 0.714844 0.195312 0.734375 0.171875 C 0.929688 0.0429688 1.015625 -0.0664062 0.992188 -0.300781 C 0.992188 -0.519531 0.949219 -0.714844 0.949219 -0.90625 C 0.90625 -1.253906 0.886719 -1.597656 0.863281 -1.964844 C 0.929688 -2.203125 0.972656 -2.441406 1.058594 -2.703125 C 1.167969 -3.132812 1.316406 -3.566406 1.492188 -3.976562 C 1.664062 -4.34375 1.859375 -4.710938 2.226562 -4.90625 C 2.59375 -5.121094 3.003906 -5.058594 3.285156 -4.734375 C 3.566406 -4.429688 3.652344 -4.042969 3.738281 -3.652344 C 3.910156 -2.980469 4.085938 -2.160156 4.777344 -1.835938 C 5.058594 -1.707031 5.425781 -1.707031 5.707031 -1.878906 C 5.964844 -2.011719 6.203125 -2.3125 6.050781 -2.59375 Z M 6.050781 -2.59375 "/></g></g></g><g fill="#604d3d" fill-opacity="1"><g transform="translate(348.441744, 24.676783)"><g/></g></g><g fill="#604d3d" fill-opacity="1"><g transform="translate(355.400431, 24.676783)"><g><path d="M 10.15625 -0.109375 C 11.066406 -1.015625 11.84375 -2.117188 12.277344 -3.328125 C 12.382812 -3.628906 12.511719 -3.933594 12.621094 -4.234375 C 12.664062 -4.410156 12.425781 -4.472656 12.363281 -4.324219 C 12.125 -3.738281 11.820312 -3.199219 11.519531 -2.660156 C 11.238281 -2.117188 10.890625 -1.621094 10.503906 -1.144531 C 9.746094 -0.238281 8.816406 0.539062 7.714844 0.972656 C 6.65625 1.40625 5.46875 1.554688 4.34375 1.273438 C 3.21875 1.015625 2.246094 0.324219 1.621094 -0.648438 C 0.347656 -2.660156 0.300781 -5.25 0.886719 -7.476562 C 1.210938 -8.6875 1.730469 -9.832031 2.421875 -10.871094 C 3.089844 -11.84375 4 -12.878906 5.144531 -13.3125 C 6.160156 -13.703125 7.542969 -13.570312 8.148438 -12.554688 C 8.492188 -11.972656 8.429688 -11.238281 8.210938 -10.632812 C 7.976562 -9.917969 7.457031 -9.292969 7.023438 -8.6875 C 6.851562 -8.449219 6.980469 -8.105469 7.21875 -7.953125 C 7.476562 -7.800781 7.78125 -7.910156 7.929688 -8.148438 C 8.730469 -9.335938 9.507812 -10.804688 9.097656 -12.277344 C 8.730469 -13.507812 7.5625 -14.21875 6.3125 -14.21875 C 4.992188 -14.242188 3.804688 -13.441406 2.917969 -12.511719 C 1.945312 -11.519531 1.210938 -10.308594 0.691406 -9.011719 C -0.28125 -6.589844 -0.496094 -3.652344 0.582031 -1.210938 C 1.101562 -0.0664062 1.988281 0.929688 3.15625 1.449219 C 4.300781 1.945312 5.597656 2.03125 6.828125 1.75 C 8.082031 1.46875 9.226562 0.800781 10.15625 -0.109375 Z M 10.15625 -0.109375 "/></g></g></g><g fill="#604d3d" fill-opacity="1"><g transform="translate(367.913143, 24.676783)"><g><path d="M 4.539062 -3.414062 C 4.171875 -3.371094 3.824219 -3.675781 3.628906 -3.953125 C 3.4375 -4.257812 3.304688 -4.558594 3.089844 -4.820312 C 2.679688 -5.292969 2.011719 -5.554688 1.492188 -5.078125 C 1.273438 -4.882812 1.144531 -4.601562 1.039062 -4.34375 C 0.992188 -4.234375 0.949219 -4.148438 0.929688 -4.0625 C 0.949219 -4.496094 1.039062 -4.949219 1.039062 -5.402344 C 1.039062 -5.835938 0.367188 -5.941406 0.257812 -5.488281 C 0.128906 -5.015625 0.109375 -4.496094 0.0859375 -4 C 0.0664062 -3.523438 0.0664062 -3.046875 0.0859375 -2.59375 C 0.109375 -2.117188 0.171875 -1.640625 0.238281 -1.1875 C 0.28125 -0.949219 0.324219 -0.714844 0.433594 -0.496094 C 0.476562 -0.410156 0.5625 -0.195312 0.691406 -0.214844 C 0.972656 -0.238281 0.929688 -0.929688 0.929688 -1.101562 C 0.90625 -1.554688 0.886719 -2.03125 0.886719 -2.484375 C 0.886719 -2.527344 0.886719 -2.550781 0.886719 -2.59375 C 0.929688 -2.746094 0.949219 -2.875 1.015625 -3.027344 C 1.125 -3.371094 1.230469 -3.738281 1.363281 -4.085938 C 1.46875 -4.34375 1.597656 -4.648438 1.835938 -4.796875 C 2.464844 -5.230469 2.917969 -4.214844 3.21875 -3.847656 C 3.542969 -3.414062 4.019531 -3.046875 4.582031 -3.304688 C 4.625 -3.328125 4.601562 -3.4375 4.539062 -3.414062 Z M 4.539062 -3.414062 "/></g></g></g><g fill="#604d3d" fill-opacity="1"><g transform="translate(372.321775, 24.676783)"><g><path d="M 5.273438 -2.832031 C 4.753906 -2.464844 4.105469 -2.269531 3.5 -2.335938 C 3.695312 -2.789062 3.738281 -3.285156 3.71875 -3.761719 C 3.652344 -4.410156 3.523438 -5.207031 2.9375 -5.597656 C 2.660156 -5.792969 2.355469 -5.835938 2.097656 -5.75 C 2.097656 -5.988281 1.859375 -6.203125 1.597656 -6.050781 C 0.390625 -5.359375 -0.367188 -3.761719 0.0664062 -2.378906 C 0.257812 -1.773438 0.714844 -1.1875 1.363281 -1.058594 C 2.03125 -0.929688 2.722656 -1.210938 3.15625 -1.730469 C 3.242188 -1.835938 3.328125 -1.964844 3.394531 -2.097656 C 4.105469 -1.988281 4.882812 -2.183594 5.382812 -2.703125 C 5.46875 -2.765625 5.359375 -2.894531 5.273438 -2.832031 Z M 1.664062 -1.621094 C 1.210938 -1.6875 0.886719 -2.054688 0.714844 -2.464844 C 0.367188 -3.394531 0.734375 -4.386719 1.40625 -5.058594 C 1.210938 -4.515625 1.339844 -3.910156 1.578125 -3.414062 C 1.878906 -2.851562 2.378906 -2.398438 2.980469 -2.183594 C 2.679688 -1.816406 2.140625 -1.554688 1.664062 -1.621094 Z M 3.132812 -2.398438 C 2.789062 -2.507812 2.464844 -2.703125 2.183594 -2.980469 C 1.792969 -3.414062 1.554688 -3.976562 1.554688 -4.558594 C 1.578125 -5.121094 1.945312 -5.726562 2.59375 -5.511719 C 3.21875 -5.292969 3.414062 -4.496094 3.4375 -3.910156 C 3.480469 -3.394531 3.414062 -2.851562 3.132812 -2.398438 Z M 3.132812 -2.398438 "/></g></g></g><g fill="#604d3d" fill-opacity="1"><g transform="translate(377.551608, 24.676783)"><g><path d="M 4.820312 -2.464844 C 4.515625 -1.773438 4.085938 -1.101562 3.414062 -0.714844 C 2.765625 -0.367188 1.921875 -0.300781 1.296875 -0.714844 C 0.714844 -1.101562 0.433594 -1.835938 0.433594 -2.527344 C 0.433594 -3.285156 0.691406 -4.214844 1.230469 -4.753906 C 1.511719 -5.035156 1.988281 -5.230469 2.355469 -5.015625 C 2.636719 -4.839844 2.722656 -4.453125 2.527344 -4.214844 C 2.378906 -4 2.746094 -3.71875 2.894531 -3.910156 C 3.480469 -4.625 2.851562 -5.597656 1.988281 -5.574219 C 0.949219 -5.574219 0.390625 -4.515625 0.128906 -3.652344 C -0.152344 -2.703125 -0.109375 -1.621094 0.519531 -0.820312 C 1.125 -0.0664062 2.074219 0.171875 2.980469 -0.152344 C 4 -0.496094 4.667969 -1.425781 5.035156 -2.398438 C 5.101562 -2.550781 4.863281 -2.59375 4.820312 -2.464844 Z M 4.820312 -2.464844 "/></g></g></g><g fill="#604d3d" fill-opacity="1"><g transform="translate(382.435659, 24.676783)"><g><path d="M 6.050781 -2.59375 C 6.03125 -2.660156 5.921875 -2.679688 5.855469 -2.613281 C 5.683594 -2.378906 5.574219 -2.140625 5.230469 -2.140625 C 4.839844 -2.117188 4.558594 -2.464844 4.410156 -2.765625 C 4.0625 -3.457031 4.148438 -4.300781 3.609375 -4.90625 C 3.15625 -5.445312 2.421875 -5.488281 1.878906 -5.035156 C 1.273438 -4.558594 1.058594 -3.652344 0.84375 -2.9375 C 0.84375 -2.894531 0.820312 -2.875 0.820312 -2.832031 C 0.800781 -3.414062 0.800781 -4 0.777344 -4.582031 C 0.777344 -6.222656 0.84375 -7.867188 0.972656 -9.507812 C 1.015625 -9.964844 1.058594 -10.394531 1.101562 -10.847656 C 1.167969 -11.304688 1.273438 -11.800781 1.253906 -12.253906 C 1.210938 -12.644531 0.714844 -12.707031 0.582031 -12.339844 C 0.433594 -11.972656 0.433594 -11.519531 0.390625 -11.128906 C 0.347656 -10.71875 0.300781 -10.289062 0.257812 -9.875 C 0.195312 -9.054688 0.152344 -8.253906 0.109375 -7.433594 C 0.0429688 -5.792969 0.0859375 -4.148438 0.171875 -2.507812 C 0.195312 -2.03125 0.238281 -1.578125 0.257812 -1.101562 C 0.28125 -0.886719 0.300781 -0.671875 0.324219 -0.453125 C 0.347656 -0.257812 0.347656 -0.109375 0.433594 0 C 0.433594 0.0234375 0.453125 0.0234375 0.453125 0.0234375 C 0.496094 0.0859375 0.5625 0.128906 0.671875 0.171875 C 0.691406 0.195312 0.714844 0.195312 0.734375 0.171875 C 0.929688 0.0429688 1.015625 -0.0664062 0.992188 -0.300781 C 0.992188 -0.519531 0.949219 -0.714844 0.949219 -0.90625 C 0.90625 -1.253906 0.886719 -1.597656 0.863281 -1.964844 C 0.929688 -2.203125 0.972656 -2.441406 1.058594 -2.703125 C 1.167969 -3.132812 1.316406 -3.566406 1.492188 -3.976562 C 1.664062 -4.34375 1.859375 -4.710938 2.226562 -4.90625 C 2.59375 -5.121094 3.003906 -5.058594 3.285156 -4.734375 C 3.566406 -4.429688 3.652344 -4.042969 3.738281 -3.652344 C 3.910156 -2.980469 4.085938 -2.160156 4.777344 -1.835938 C 5.058594 -1.707031 5.425781 -1.707031 5.707031 -1.878906 C 5.964844 -2.011719 6.203125 -2.3125 6.050781 -2.59375 Z M 6.050781 -2.59375 "/></g></g></g><g fill="#604d3d" fill-opacity="1"><g transform="translate(388.378647, 24.676783)"><g><path d="M 4.710938 -2.9375 C 4.34375 -2.117188 4 -1.210938 3.21875 -0.691406 C 2.464844 -0.195312 1.578125 -0.324219 0.972656 -0.949219 C 0.539062 -1.425781 0.367188 -2.03125 0.367188 -2.636719 C 0.949219 -2.679688 1.578125 -2.746094 2.054688 -3.089844 C 2.441406 -3.371094 2.746094 -3.824219 2.703125 -4.324219 C 2.679688 -4.753906 2.421875 -5.1875 1.988281 -5.339844 C 1.46875 -5.511719 0.929688 -5.207031 0.625 -4.796875 C 0.257812 -4.324219 0.0859375 -3.695312 0 -3.113281 C -0.0664062 -2.550781 -0.0234375 -1.945312 0.195312 -1.425781 C 0.605469 -0.476562 1.621094 0.214844 2.660156 -0.0429688 C 3.953125 -0.367188 4.539062 -1.707031 4.820312 -2.894531 C 4.820312 -2.960938 4.734375 -3.003906 4.710938 -2.9375 Z M 0.519531 -3.542969 C 0.625 -3.976562 0.800781 -4.453125 1.144531 -4.753906 C 1.46875 -5.058594 1.988281 -5.101562 2.226562 -4.648438 C 2.464844 -4.214844 2.246094 -3.738281 1.878906 -3.4375 C 1.46875 -3.113281 0.90625 -3.027344 0.410156 -3.003906 C 0.433594 -3.175781 0.453125 -3.371094 0.519531 -3.542969 Z M 0.519531 -3.542969 "/></g></g></g><g fill="#604d3d" fill-opacity="1"><g transform="translate(393.068231, 24.676783)"><g><path d="M 4.105469 -9.941406 C 3.070312 -9.917969 2.03125 -9.898438 0.972656 -9.855469 C 0.972656 -9.855469 0.972656 -9.855469 0.949219 -9.855469 C 0.949219 -9.875 0.972656 -9.875 0.972656 -9.875 C 0.992188 -10.523438 1.058594 -11.214844 1.058594 -11.886719 C 1.058594 -12.449219 0.496094 -12.597656 0.410156 -12.015625 C 0.324219 -11.433594 0.324219 -10.804688 0.28125 -10.199219 C 0.28125 -10.070312 0.28125 -9.964844 0.28125 -9.832031 C -0.539062 -9.8125 -1.339844 -9.746094 -2.160156 -9.703125 C -2.3125 -9.683594 -2.335938 -9.269531 -2.160156 -9.269531 C -1.339844 -9.316406 -0.539062 -9.359375 0.257812 -9.421875 C 0.238281 -9.097656 0.214844 -8.753906 0.214844 -8.40625 C 0.171875 -7.261719 0.152344 -6.09375 0.152344 -4.925781 C 0.128906 -2.550781 0.171875 -0.171875 0.390625 2.183594 C 0.433594 2.832031 0.496094 3.480469 0.5625 4.128906 C 0.625 4.777344 0.671875 5.445312 0.84375 6.074219 C 0.863281 6.160156 0.949219 6.203125 0.972656 6.074219 C 1.015625 5.511719 0.972656 4.949219 0.949219 4.367188 C 0.929688 3.78125 0.90625 3.21875 0.90625 2.636719 C 0.886719 1.46875 0.886719 0.28125 0.84375 -0.886719 C 0.800781 -3.242188 0.800781 -5.597656 0.886719 -7.953125 C 0.90625 -8.449219 0.929688 -8.96875 0.949219 -9.488281 C 0.949219 -9.488281 0.972656 -9.488281 0.972656 -9.488281 C 2.03125 -9.59375 3.070312 -9.703125 4.105469 -9.8125 C 4.171875 -9.8125 4.171875 -9.941406 4.105469 -9.941406 Z M 4.105469 -9.941406 "/></g></g></g></svg>