<svg xmlns="http://www.w3.org/2000/svg" xmlns:xlink="http://www.w3.org/1999/xlink" width="133" zoomAndPan="magnify" viewBox="0 0 99.75 99.749997" height="133" preserveAspectRatio="xMidYMid meet" version="1.0"><defs><clipPath id="830a63f7cb"><path d="M 0 0 L 99.5 0 L 99.5 99.5 L 0 99.5 Z M 0 0 " clip-rule="nonzero"/></clipPath><clipPath id="05684260b4"><path d="M 0 0 L 98.820312 0 L 98.820312 98.820312 L 0 98.820312 Z M 0 0 " clip-rule="nonzero"/></clipPath><clipPath id="f212a68d6b"><path d="M 49.410156 0 C 22.121094 0 0 22.121094 0 49.410156 C 0 76.699219 22.121094 98.820312 49.410156 98.820312 C 76.699219 98.820312 98.820312 76.699219 98.820312 49.410156 C 98.820312 22.121094 76.699219 0 49.410156 0 Z M 49.410156 0 " clip-rule="nonzero"/></clipPath><clipPath id="c66ae8273b"><path d="M 19.167969 19.167969 L 79.765625 19.167969 L 79.765625 79.765625 L 19.167969 79.765625 Z M 19.167969 19.167969 " clip-rule="nonzero"/></clipPath></defs><g clip-path="url(#830a63f7cb)"><path fill="#ffffff" d="M 0 0 L 99.5 0 L 99.5 99.5 L 0 99.5 Z M 0 0 " fill-opacity="1" fill-rule="nonzero"/></g><g clip-path="url(#05684260b4)"><g clip-path="url(#f212a68d6b)"><path fill="#d0e7d2" d="M 0 0 L 98.820312 0 L 98.820312 98.820312 L 0 98.820312 Z M 0 0 " fill-opacity="1" fill-rule="nonzero"/></g></g><path fill="#000000" d="M 70.179688 39.777344 C 70.179688 39.730469 70.179688 39.683594 70.164062 39.636719 C 70.144531 39.226562 70.085938 38.824219 69.992188 38.429688 C 69.894531 38.03125 69.761719 37.648438 69.589844 37.277344 C 69.421875 36.90625 69.21875 36.554688 68.980469 36.21875 C 68.742188 35.886719 68.476562 35.582031 68.183594 35.300781 C 67.886719 35.015625 67.566406 34.765625 67.226562 34.542969 C 66.882812 34.324219 66.519531 34.136719 66.140625 33.984375 C 65.761719 33.832031 65.375 33.714844 64.972656 33.636719 C 64.570312 33.558594 64.167969 33.519531 63.757812 33.519531 L 35.171875 33.519531 C 34.765625 33.519531 34.359375 33.558594 33.960938 33.636719 C 33.558594 33.714844 33.167969 33.832031 32.789062 33.984375 C 32.410156 34.136719 32.050781 34.324219 31.707031 34.542969 C 31.363281 34.765625 31.046875 35.015625 30.75 35.300781 C 30.453125 35.582031 30.1875 35.886719 29.953125 36.21875 C 29.714844 36.554688 29.511719 36.90625 29.34375 37.277344 C 29.171875 37.648438 29.039062 38.03125 28.941406 38.429688 C 28.84375 38.824219 28.789062 39.226562 28.765625 39.636719 C 28.765625 39.683594 28.757812 39.730469 28.753906 39.777344 C 28.75 39.828125 28.734375 39.898438 28.734375 39.957031 L 28.734375 58.976562 C 28.734375 59.398438 28.777344 59.816406 28.859375 60.230469 C 28.941406 60.644531 29.066406 61.046875 29.226562 61.4375 C 29.390625 61.828125 29.589844 62.199219 29.824219 62.550781 C 30.058594 62.902344 30.324219 63.226562 30.625 63.523438 C 30.921875 63.824219 31.246094 64.089844 31.597656 64.324219 C 31.949219 64.5625 32.320312 64.757812 32.710938 64.921875 C 33.101562 65.082031 33.503906 65.207031 33.917969 65.289062 C 34.332031 65.371094 34.75 65.414062 35.171875 65.414062 L 63.757812 65.414062 C 64.183594 65.414062 64.601562 65.371094 65.015625 65.289062 C 65.429688 65.203125 65.832031 65.082031 66.222656 64.921875 C 66.613281 64.757812 66.984375 64.558594 67.332031 64.324219 C 67.683594 64.089844 68.011719 63.824219 68.308594 63.523438 C 68.609375 63.226562 68.875 62.902344 69.109375 62.550781 C 69.34375 62.199219 69.542969 61.828125 69.703125 61.4375 C 69.867188 61.046875 69.988281 60.644531 70.070312 60.230469 C 70.15625 59.816406 70.195312 59.398438 70.195312 58.976562 L 70.195312 39.957031 C 70.195312 39.898438 70.179688 39.839844 70.179688 39.777344 Z M 35.171875 36.707031 L 63.757812 36.707031 C 64.109375 36.710938 64.453125 36.765625 64.785156 36.878906 C 65.121094 36.992188 65.425781 37.15625 65.707031 37.367188 C 65.988281 37.578125 66.226562 37.832031 66.425781 38.121094 C 66.625 38.410156 66.769531 38.726562 66.867188 39.0625 L 49.464844 49.214844 L 32.066406 39.0625 C 32.160156 38.726562 32.308594 38.410156 32.507812 38.121094 C 32.707031 37.832031 32.945312 37.578125 33.226562 37.367188 C 33.507812 37.15625 33.8125 36.992188 34.144531 36.878906 C 34.480469 36.765625 34.820312 36.710938 35.171875 36.707031 Z M 63.757812 62.222656 L 35.171875 62.222656 C 34.742188 62.222656 34.328125 62.140625 33.929688 61.976562 C 33.53125 61.808594 33.183594 61.574219 32.878906 61.269531 C 32.574219 60.964844 32.339844 60.617188 32.171875 60.21875 C 32.007812 59.820312 31.925781 59.40625 31.925781 58.976562 L 31.925781 42.675781 L 48.667969 52.4375 C 48.917969 52.582031 49.183594 52.65625 49.472656 52.65625 C 49.761719 52.65625 50.027344 52.582031 50.277344 52.4375 L 67.007812 42.675781 L 67.007812 58.976562 C 67.007812 59.40625 66.925781 59.820312 66.757812 60.21875 C 66.59375 60.617188 66.359375 60.964844 66.054688 61.269531 C 65.75 61.574219 65.398438 61.808594 65 61.976562 C 64.605469 62.140625 64.191406 62.222656 63.757812 62.222656 Z M 63.757812 62.222656 " fill-opacity="1" fill-rule="nonzero"/><g clip-path="url(#c66ae8273b)"><path fill="#000000" d="M 49.464844 19.167969 C 48.472656 19.167969 47.484375 19.214844 46.496094 19.3125 C 45.507812 19.410156 44.527344 19.554688 43.554688 19.75 C 42.582031 19.941406 41.621094 20.183594 40.671875 20.472656 C 39.722656 20.761719 38.789062 21.09375 37.871094 21.472656 C 36.953125 21.851562 36.058594 22.277344 35.183594 22.746094 C 34.308594 23.210938 33.457031 23.722656 32.632812 24.273438 C 31.808594 24.824219 31.011719 25.414062 30.246094 26.042969 C 29.476562 26.675781 28.742188 27.339844 28.042969 28.042969 C 27.339844 28.742188 26.675781 29.476562 26.042969 30.246094 C 25.414062 31.011719 24.824219 31.808594 24.273438 32.632812 C 23.722656 33.457031 23.210938 34.308594 22.746094 35.183594 C 22.277344 36.058594 21.851562 36.953125 21.472656 37.871094 C 21.09375 38.789062 20.761719 39.722656 20.472656 40.671875 C 20.183594 41.621094 19.941406 42.582031 19.75 43.554688 C 19.554688 44.527344 19.410156 45.507812 19.3125 46.496094 C 19.214844 47.484375 19.167969 48.472656 19.167969 49.464844 C 19.167969 50.457031 19.214844 51.449219 19.3125 52.4375 C 19.410156 53.421875 19.554688 54.402344 19.75 55.378906 C 19.941406 56.351562 20.183594 57.3125 20.472656 58.261719 C 20.761719 59.210938 21.09375 60.144531 21.472656 61.0625 C 21.851562 61.976562 22.277344 62.875 22.746094 63.75 C 23.210938 64.625 23.722656 65.472656 24.273438 66.300781 C 24.824219 67.125 25.414062 67.921875 26.042969 68.6875 C 26.675781 69.453125 27.339844 70.1875 28.042969 70.890625 C 28.742188 71.59375 29.476562 72.257812 30.246094 72.886719 C 31.011719 73.515625 31.808594 74.109375 32.632812 74.660156 C 33.457031 75.210938 34.308594 75.71875 35.183594 76.1875 C 36.058594 76.65625 36.953125 77.078125 37.871094 77.457031 C 38.789062 77.839844 39.722656 78.171875 40.671875 78.460938 C 41.621094 78.75 42.582031 78.988281 43.554688 79.183594 C 44.527344 79.375 45.507812 79.523438 46.496094 79.621094 C 47.484375 79.714844 48.472656 79.765625 49.464844 79.765625 C 50.457031 79.765625 51.449219 79.714844 52.4375 79.621094 C 53.421875 79.523438 54.402344 79.375 55.378906 79.183594 C 56.351562 78.988281 57.3125 78.75 58.261719 78.460938 C 59.210938 78.171875 60.144531 77.839844 61.0625 77.457031 C 61.976562 77.078125 62.875 76.65625 63.75 76.1875 C 64.625 75.71875 65.472656 75.210938 66.300781 74.660156 C 67.125 74.109375 67.921875 73.515625 68.6875 72.886719 C 69.453125 72.257812 70.1875 71.59375 70.890625 70.890625 C 71.59375 70.1875 72.257812 69.453125 72.886719 68.6875 C 73.515625 67.921875 74.109375 67.125 74.660156 66.300781 C 75.210938 65.472656 75.71875 64.625 76.1875 63.75 C 76.65625 62.875 77.078125 61.976562 77.457031 61.0625 C 77.839844 60.144531 78.171875 59.210938 78.460938 58.261719 C 78.75 57.3125 78.988281 56.351562 79.183594 55.378906 C 79.375 54.402344 79.523438 53.421875 79.621094 52.4375 C 79.714844 51.449219 79.765625 50.457031 79.765625 49.464844 C 79.765625 48.472656 79.714844 47.484375 79.617188 46.496094 C 79.519531 45.511719 79.371094 44.53125 79.175781 43.558594 C 78.984375 42.585938 78.742188 41.625 78.453125 40.675781 C 78.164062 39.726562 77.832031 38.792969 77.449219 37.875 C 77.070312 36.960938 76.644531 36.066406 76.179688 35.191406 C 75.710938 34.316406 75.199219 33.464844 74.648438 32.640625 C 74.097656 31.816406 73.507812 31.019531 72.878906 30.253906 C 72.25 29.488281 71.582031 28.753906 70.882812 28.050781 C 70.179688 27.351562 69.445312 26.683594 68.679688 26.054688 C 67.910156 25.425781 67.117188 24.835938 66.292969 24.285156 C 65.46875 23.734375 64.617188 23.222656 63.742188 22.753906 C 62.867188 22.285156 61.972656 21.863281 61.054688 21.484375 C 60.140625 21.101562 59.207031 20.769531 58.257812 20.480469 C 57.308594 20.191406 56.347656 19.949219 55.375 19.753906 C 54.402344 19.5625 53.421875 19.414062 52.433594 19.316406 C 51.449219 19.21875 50.457031 19.167969 49.464844 19.167969 Z M 49.464844 76.574219 C 48.578125 76.574219 47.691406 76.53125 46.808594 76.445312 C 45.925781 76.359375 45.046875 76.226562 44.175781 76.054688 C 43.308594 75.882812 42.445312 75.667969 41.597656 75.410156 C 40.746094 75.152344 39.914062 74.851562 39.09375 74.511719 C 38.273438 74.171875 37.46875 73.792969 36.6875 73.375 C 35.902344 72.957031 35.144531 72.5 34.40625 72.007812 C 33.667969 71.515625 32.953125 70.984375 32.269531 70.421875 C 31.582031 69.859375 30.925781 69.261719 30.296875 68.636719 C 29.667969 68.007812 29.074219 67.351562 28.511719 66.664062 C 27.945312 65.976562 27.417969 65.265625 26.925781 64.527344 C 26.433594 63.789062 25.976562 63.027344 25.558594 62.246094 C 25.140625 61.460938 24.761719 60.660156 24.421875 59.839844 C 24.082031 59.019531 23.78125 58.183594 23.523438 57.335938 C 23.265625 56.484375 23.050781 55.625 22.878906 54.753906 C 22.703125 53.882812 22.574219 53.007812 22.488281 52.125 C 22.398438 51.238281 22.355469 50.355469 22.355469 49.464844 C 22.355469 48.578125 22.398438 47.691406 22.488281 46.808594 C 22.574219 45.925781 22.703125 45.046875 22.878906 44.175781 C 23.050781 43.308594 23.265625 42.445312 23.523438 41.597656 C 23.78125 40.746094 24.082031 39.914062 24.421875 39.09375 C 24.761719 38.273438 25.140625 37.46875 25.558594 36.6875 C 25.976562 35.902344 26.433594 35.144531 26.925781 34.40625 C 27.417969 33.667969 27.945312 32.953125 28.511719 32.269531 C 29.074219 31.582031 29.667969 30.925781 30.296875 30.296875 C 30.925781 29.667969 31.582031 29.074219 32.269531 28.511719 C 32.953125 27.945312 33.667969 27.417969 34.40625 26.925781 C 35.144531 26.433594 35.902344 25.976562 36.6875 25.558594 C 37.46875 25.140625 38.273438 24.761719 39.09375 24.421875 C 39.914062 24.082031 40.746094 23.78125 41.597656 23.523438 C 42.445312 23.265625 43.308594 23.050781 44.175781 22.878906 C 45.046875 22.703125 45.925781 22.574219 46.808594 22.488281 C 47.691406 22.398438 48.578125 22.355469 49.464844 22.355469 C 50.355469 22.355469 51.238281 22.398438 52.125 22.488281 C 53.007812 22.574219 53.882812 22.703125 54.753906 22.878906 C 55.625 23.050781 56.484375 23.265625 57.335938 23.523438 C 58.183594 23.78125 59.019531 24.082031 59.839844 24.421875 C 60.660156 24.761719 61.460938 25.140625 62.246094 25.558594 C 63.027344 25.976562 63.789062 26.433594 64.527344 26.925781 C 65.265625 27.417969 65.976562 27.945312 66.664062 28.511719 C 67.351562 29.074219 68.007812 29.667969 68.636719 30.296875 C 69.261719 30.925781 69.859375 31.582031 70.421875 32.269531 C 70.984375 32.953125 71.515625 33.667969 72.007812 34.40625 C 72.5 35.144531 72.957031 35.902344 73.375 36.6875 C 73.792969 37.46875 74.171875 38.273438 74.511719 39.09375 C 74.851562 39.914062 75.152344 40.746094 75.410156 41.597656 C 75.667969 42.445312 75.882812 43.308594 76.054688 44.175781 C 76.226562 45.046875 76.359375 45.925781 76.445312 46.808594 C 76.53125 47.691406 76.574219 48.578125 76.574219 49.464844 C 76.574219 50.355469 76.53125 51.238281 76.441406 52.121094 C 76.355469 53.003906 76.222656 53.882812 76.050781 54.753906 C 75.875 55.625 75.660156 56.484375 75.402344 57.332031 C 75.144531 58.183594 74.84375 59.015625 74.503906 59.835938 C 74.164062 60.65625 73.785156 61.457031 73.367188 62.238281 C 72.945312 63.023438 72.492188 63.78125 71.996094 64.519531 C 71.503906 65.257812 70.976562 65.96875 70.414062 66.65625 C 69.851562 67.34375 69.253906 68 68.625 68.625 C 68 69.253906 67.34375 69.851562 66.65625 70.414062 C 65.96875 70.976562 65.257812 71.503906 64.519531 71.996094 C 63.78125 72.492188 63.023438 72.945312 62.238281 73.367188 C 61.457031 73.785156 60.65625 74.164062 59.835938 74.503906 C 59.015625 74.84375 58.183594 75.144531 57.332031 75.402344 C 56.484375 75.660156 55.625 75.875 54.753906 76.050781 C 53.882812 76.222656 53.003906 76.355469 52.121094 76.441406 C 51.238281 76.53125 50.355469 76.574219 49.464844 76.574219 Z M 49.464844 76.574219 " fill-opacity="1" fill-rule="nonzero"/></g></svg>