<svg xmlns="http://www.w3.org/2000/svg" xmlns:xlink="http://www.w3.org/1999/xlink" width="500" zoomAndPan="magnify" viewBox="0 0 375 374.999991" height="500" preserveAspectRatio="xMidYMid meet" version="1.0"><defs><g/><clipPath id="a08b8f78ab"><path d="M 187.5 0 C 83.945312 0 0 83.945312 0 187.5 C 0 291.054688 83.945312 375 187.5 375 C 291.054688 375 375 291.054688 375 187.5 C 375 83.945312 291.054688 0 187.5 0 Z M 187.5 0 " clip-rule="nonzero"/></clipPath><clipPath id="e523467965"><path d="M 67.625 67.625 L 307.625 67.625 L 307.625 307.625 L 67.625 307.625 Z M 67.625 67.625 " clip-rule="nonzero"/></clipPath></defs><rect x="-37.5" width="450" fill="#ffffff" y="-37.499999" height="449.999989" fill-opacity="1"/><rect x="-37.5" width="450" fill="#ffffff" y="-37.499999" height="449.999989" fill-opacity="1"/><g clip-path="url(#a08b8f78ab)"><rect x="-37.5" width="450" fill="#ffe5fe" y="-37.499999" height="449.999989" fill-opacity="1"/></g><g clip-path="url(#e523467965)"><path fill="#000000" d="M 307.363281 187.515625 C 307.363281 253.722656 253.691406 307.390625 187.484375 307.390625 C 121.277344 307.390625 67.605469 253.722656 67.605469 187.515625 C 67.605469 121.308594 121.277344 67.636719 187.484375 67.636719 C 253.691406 67.636719 307.359375 121.308594 307.363281 187.515625 M 297.417969 187.515625 C 297.417969 126.800781 248.199219 77.578125 187.484375 77.578125 C 126.769531 77.578125 77.550781 126.800781 77.550781 187.515625 C 77.550781 248.230469 126.769531 297.449219 187.484375 297.449219 C 248.199219 297.449219 297.417969 248.230469 297.417969 187.515625 Z M 297.417969 187.515625 " fill-opacity="1" fill-rule="nonzero"/></g><path fill="#000000" d="M 132 246.4375 L 244.382812 245.675781 L 239.457031 250.320312 L 247.007812 136.214844 L 252.074219 141.511719 L 121.691406 144.300781 L 126.53125 138.871094 L 136.984375 250.945312 L 132 246.4375 M 132.070312 256.378906 C 129.488281 256.398438 127.324219 254.4375 127.085938 251.871094 L 116.632812 139.792969 C 116.507812 138.421875 116.953125 137.054688 117.875 136.023438 C 118.792969 134.996094 120.097656 134.394531 121.476562 134.363281 L 251.863281 131.574219 C 253.253906 131.542969 254.597656 132.097656 255.558594 133.105469 C 256.523438 134.113281 257.019531 135.480469 256.925781 136.871094 L 249.375 250.976562 C 249.203125 253.574219 247.054688 255.601562 244.449219 255.617188 Z M 132.070312 256.378906 " fill-opacity="1" fill-rule="nonzero"/><path fill="#000000" d="M 147.785156 156.847656 L 146.636719 154.011719 C 146.585938 153.882812 146.539062 153.753906 146.496094 153.621094 L 145.589844 150.699219 C 145.546875 150.566406 145.511719 150.433594 145.480469 150.296875 L 144.820312 147.308594 C 144.789062 147.175781 144.765625 147.039062 144.746094 146.902344 L 144.335938 143.871094 C 144.316406 143.734375 144.304688 143.597656 144.296875 143.457031 L 144.136719 140.402344 C 144.128906 140.265625 144.128906 140.125 144.132812 139.988281 L 144.230469 136.929688 C 144.234375 136.792969 144.242188 136.652344 144.257812 136.515625 L 144.609375 133.476562 C 144.625 133.339844 144.648438 133.203125 144.671875 133.066406 L 145.273438 130.066406 C 145.300781 129.933594 145.335938 129.796875 145.375 129.664062 L 146.222656 126.726562 C 146.261719 126.59375 146.304688 126.460938 146.355469 126.332031 L 147.445312 123.472656 C 147.492188 123.34375 147.546875 123.21875 147.609375 123.09375 L 148.933594 120.332031 C 148.992188 120.210938 149.058594 120.085938 149.125 119.96875 L 150.675781 117.328125 C 150.746094 117.210938 150.820312 117.09375 150.898438 116.980469 L 152.664062 114.480469 C 152.742188 114.367188 152.828125 114.257812 152.914062 114.152344 L 154.882812 111.804688 C 154.96875 111.699219 155.0625 111.597656 155.160156 111.5 L 157.3125 109.324219 C 157.410156 109.226562 157.511719 109.132812 157.617188 109.042969 L 159.945312 107.054688 C 160.046875 106.964844 160.15625 106.882812 160.269531 106.800781 L 162.753906 105.011719 C 162.863281 104.933594 162.980469 104.855469 163.097656 104.785156 L 165.722656 103.210938 C 165.839844 103.140625 165.960938 103.074219 166.085938 103.011719 L 168.832031 101.660156 C 168.957031 101.601562 169.082031 101.542969 169.210938 101.496094 L 172.058594 100.375 C 172.1875 100.324219 172.316406 100.28125 172.449219 100.242188 L 175.382812 99.363281 C 175.515625 99.324219 175.648438 99.289062 175.78125 99.261719 L 178.777344 98.632812 C 178.914062 98.601562 179.050781 98.578125 179.1875 98.5625 L 182.222656 98.183594 C 182.359375 98.164062 182.496094 98.15625 182.636719 98.148438 L 185.691406 98.023438 C 185.832031 98.015625 185.96875 98.019531 186.109375 98.023438 L 189.199219 98.15625 C 189.339844 98.160156 189.476562 98.171875 189.617188 98.191406 L 192.683594 98.582031 C 192.824219 98.597656 192.960938 98.621094 193.097656 98.652344 L 196.121094 99.300781 C 196.257812 99.328125 196.394531 99.363281 196.527344 99.402344 L 199.488281 100.304688 C 199.621094 100.34375 199.75 100.390625 199.882812 100.441406 L 202.753906 101.585938 C 202.882812 101.636719 203.011719 101.695312 203.136719 101.757812 L 205.902344 103.140625 C 206.027344 103.203125 206.148438 103.269531 206.269531 103.34375 L 208.910156 104.953125 C 209.03125 105.023438 209.144531 105.101562 209.257812 105.183594 L 211.753906 107.011719 C 211.867188 107.09375 211.976562 107.179688 212.082031 107.269531 L 214.417969 109.300781 C 214.523438 109.394531 214.625 109.488281 214.71875 109.589844 L 216.875 111.808594 C 216.972656 111.90625 217.066406 112.011719 217.15625 112.121094 L 219.117188 114.511719 C 219.203125 114.617188 219.289062 114.730469 219.367188 114.84375 L 221.121094 117.394531 C 221.199219 117.507812 221.273438 117.625 221.34375 117.746094 L 222.875 120.433594 C 222.945312 120.554688 223.007812 120.679688 223.070312 120.804688 L 224.371094 123.613281 C 224.429688 123.738281 224.484375 123.867188 224.53125 123.996094 L 225.59375 126.902344 C 225.640625 127.035156 225.683594 127.167969 225.71875 127.300781 L 226.53125 130.285156 C 226.570312 130.421875 226.601562 130.558594 226.625 130.695312 L 227.1875 133.738281 C 227.210938 133.875 227.230469 134.011719 227.242188 134.152344 L 227.546875 137.230469 C 227.558594 137.367188 227.566406 137.507812 227.570312 137.648438 L 227.613281 140.738281 C 227.613281 140.878906 227.609375 141.019531 227.601562 141.15625 L 227.382812 144.242188 C 227.375 144.382812 227.359375 144.519531 227.335938 144.660156 L 226.859375 147.714844 C 226.839844 147.851562 226.8125 147.988281 226.777344 148.125 L 226.046875 151.132812 C 226.015625 151.265625 225.976562 151.402344 225.933594 151.53125 L 224.949219 154.46875 C 224.078125 157.070312 221.261719 158.476562 218.660156 157.605469 C 216.054688 156.734375 214.652344 153.917969 215.523438 151.3125 L 216.503906 148.378906 L 216.386719 148.78125 L 217.117188 145.777344 L 217.035156 146.1875 L 217.511719 143.128906 L 217.464844 143.542969 L 217.683594 140.460938 L 217.671875 140.875 L 217.628906 137.785156 L 217.652344 138.203125 L 217.351562 135.121094 L 217.410156 135.535156 L 216.847656 132.496094 L 216.941406 132.902344 L 216.128906 129.917969 L 216.253906 130.316406 L 215.191406 127.410156 L 215.351562 127.796875 L 214.050781 124.992188 L 214.242188 125.363281 L 212.707031 122.675781 L 212.929688 123.03125 L 211.175781 120.480469 L 211.429688 120.816406 L 209.46875 118.421875 L 209.746094 118.734375 L 207.589844 116.515625 L 207.894531 116.804688 L 205.558594 114.773438 L 205.886719 115.035156 L 203.390625 113.207031 L 203.738281 113.441406 L 201.09375 111.832031 L 201.460938 112.035156 L 198.695312 110.652344 L 199.074219 110.824219 L 196.203125 109.675781 L 196.597656 109.816406 L 193.636719 108.917969 L 194.042969 109.019531 L 191.015625 108.375 L 191.429688 108.445312 L 188.359375 108.050781 L 188.777344 108.089844 L 185.6875 107.957031 L 186.101562 107.957031 L 183.042969 108.082031 L 183.457031 108.046875 L 180.417969 108.429688 L 180.828125 108.359375 L 177.832031 108.988281 L 178.234375 108.886719 L 175.300781 109.765625 L 175.691406 109.632812 L 172.84375 110.75 L 173.222656 110.582031 L 170.476562 111.933594 L 170.839844 111.734375 L 168.214844 113.308594 L 168.558594 113.082031 L 166.074219 114.871094 L 166.402344 114.613281 L 164.074219 116.601562 L 164.378906 116.320312 L 162.222656 118.496094 L 162.503906 118.191406 L 160.535156 120.535156 L 160.789062 120.207031 L 159.027344 122.710938 L 159.25 122.363281 L 157.699219 125 L 157.894531 124.636719 L 156.570312 127.394531 L 156.734375 127.015625 L 155.644531 129.875 L 155.773438 129.484375 L 154.925781 132.421875 L 155.023438 132.019531 L 154.421875 135.023438 L 154.484375 134.613281 L 154.136719 137.652344 L 154.164062 137.242188 L 154.070312 140.300781 L 154.066406 139.886719 L 154.222656 142.941406 L 154.1875 142.53125 L 154.597656 145.5625 L 154.523438 145.15625 L 155.1875 148.144531 L 155.082031 147.746094 L 155.992188 150.667969 L 155.851562 150.277344 L 157 153.113281 C 158.03125 155.65625 156.804688 158.554688 154.261719 159.585938 C 151.714844 160.617188 148.816406 159.390625 147.785156 156.847656 Z M 147.785156 156.847656 " fill-opacity="1" fill-rule="nonzero"/><g fill="#000000" fill-opacity="1"><g transform="translate(147.934375, 209.622899)"><g><path d="M 8.609375 -23.328125 C 8.710938 -22.441406 8.765625 -20.304688 8.765625 -16.921875 L 12.0625 -16.921875 C 13.832031 -16.921875 15.46875 -17.003906 16.96875 -17.171875 C 17.132812 -16.804688 17.21875 -16.222656 17.21875 -15.421875 C 17.21875 -14.398438 16.976562 -13.6875 16.5 -13.28125 C 16.03125 -12.882812 15.1875 -12.6875 13.96875 -12.6875 L 8.765625 -12.6875 C 8.765625 -8 8.878906 -5.179688 9.109375 -4.234375 C 10.328125 -4.179688 11.3125 -4.15625 12.0625 -4.15625 C 16.570312 -4.15625 19.476562 -4.472656 20.78125 -5.109375 C 21.113281 -4.273438 21.28125 -3.320312 21.28125 -2.25 C 21.28125 -1.300781 20.910156 -0.675781 20.171875 -0.375 C 19.441406 -0.0703125 17.984375 0.078125 15.796875 0.078125 C 9.171875 0.078125 5.332031 0.0507812 4.28125 0 C 3.476562 -0.03125 2.9375 -0.222656 2.65625 -0.578125 C 2.382812 -0.941406 2.25 -1.539062 2.25 -2.375 C 2.25 -2.8125 2.257812 -3.832031 2.28125 -5.4375 C 2.3125 -7.050781 2.328125 -8.34375 2.328125 -9.3125 L 2.328125 -17.625 C 2.328125 -21.53125 2.144531 -24.757812 1.78125 -27.3125 C 5.363281 -27.5625 9.007812 -27.6875 12.71875 -27.6875 C 16.707031 -27.6875 19.300781 -27.46875 20.5 -27.03125 C 21.019531 -26.832031 21.28125 -26.273438 21.28125 -25.359375 C 21.28125 -24.273438 21.113281 -23.332031 20.78125 -22.53125 C 18.957031 -23.113281 15.867188 -23.40625 11.515625 -23.40625 C 10.960938 -23.40625 9.992188 -23.378906 8.609375 -23.328125 Z M 8.609375 -23.328125 "/></g></g></g><g fill="#000000" fill-opacity="1"><g transform="translate(170.054415, 209.622899)"><g><path d="M 4.03125 -7.53125 L 4.03125 -15.84375 C 2.59375 -15.8125 1.359375 -15.710938 0.328125 -15.546875 C 0.109375 -16.160156 0 -16.742188 0 -17.296875 C 0 -18.929688 1.125 -19.75 3.375 -19.75 L 3.953125 -19.75 C 3.890625 -21.4375 3.804688 -22.847656 3.703125 -23.984375 C 4.585938 -24.347656 5.597656 -24.53125 6.734375 -24.53125 C 7.484375 -24.53125 8.070312 -24.492188 8.5 -24.421875 C 8.925781 -24.359375 9.34375 -24.128906 9.75 -23.734375 C 10.15625 -23.347656 10.359375 -22.78125 10.359375 -22.03125 C 10.359375 -21.59375 10.316406 -20.816406 10.234375 -19.703125 C 13.109375 -19.703125 15.394531 -19.816406 17.09375 -20.046875 C 17.28125 -19.648438 17.375 -19.050781 17.375 -18.25 C 17.375 -16.78125 16.554688 -16.003906 14.921875 -15.921875 C 13.867188 -15.867188 12.273438 -15.84375 10.140625 -15.84375 C 10.054688 -13.09375 10.015625 -10.347656 10.015625 -7.609375 C 10.015625 -6.941406 10.03125 -6.4375 10.0625 -6.09375 C 10.09375 -5.75 10.171875 -5.328125 10.296875 -4.828125 C 10.421875 -4.328125 10.640625 -3.960938 10.953125 -3.734375 C 11.273438 -3.515625 11.6875 -3.40625 12.1875 -3.40625 C 13.570312 -3.40625 14.679688 -3.820312 15.515625 -4.65625 C 16.648438 -3.851562 17.21875 -3.035156 17.21875 -2.203125 C 17.21875 -1.429688 16.738281 -0.800781 15.78125 -0.3125 C 14.820312 0.175781 13.675781 0.421875 12.34375 0.421875 C 9.320312 0.421875 7.179688 -0.242188 5.921875 -1.578125 C 4.660156 -2.910156 4.03125 -4.894531 4.03125 -7.53125 Z M 4.03125 -7.53125 "/></g></g></g><g fill="#000000" fill-opacity="1"><g transform="translate(187.850228, 209.622899)"><g><path d="M 12.8125 -13.46875 C 12.582031 -14.332031 12.191406 -15 11.640625 -15.46875 C 11.085938 -15.9375 10.476562 -16.171875 9.8125 -16.171875 C 9.175781 -16.171875 8.632812 -16.003906 8.1875 -15.671875 C 7.75 -15.335938 7.53125 -14.851562 7.53125 -14.21875 C 7.53125 -13.550781 7.851562 -13.023438 8.5 -12.640625 C 9.15625 -12.253906 9.945312 -11.941406 10.875 -11.703125 C 11.800781 -11.460938 12.726562 -11.171875 13.65625 -10.828125 C 14.582031 -10.484375 15.367188 -9.910156 16.015625 -9.109375 C 16.671875 -8.304688 17 -7.28125 17 -6.03125 C 17 -3.925781 16.160156 -2.320312 14.484375 -1.21875 C 12.804688 -0.125 10.832031 0.421875 8.5625 0.421875 C 7.84375 0.421875 7.132812 0.382812 6.4375 0.3125 C 5.75 0.238281 4.953125 0.0976562 4.046875 -0.109375 C 3.148438 -0.316406 2.429688 -0.675781 1.890625 -1.1875 C 1.347656 -1.695312 1.078125 -2.328125 1.078125 -3.078125 C 1.078125 -4.578125 2.203125 -5.738281 4.453125 -6.5625 C 4.722656 -5.570312 5.242188 -4.828125 6.015625 -4.328125 C 6.796875 -3.828125 7.617188 -3.578125 8.484375 -3.578125 C 10.335938 -3.578125 11.265625 -4.242188 11.265625 -5.578125 C 11.265625 -6.210938 10.769531 -6.726562 9.78125 -7.125 C 8.800781 -7.53125 7.726562 -7.863281 6.5625 -8.125 C 5.40625 -8.394531 4.332031 -8.992188 3.34375 -9.921875 C 2.363281 -10.847656 1.875 -12.085938 1.875 -13.640625 C 1.875 -15.609375 2.710938 -17.1875 4.390625 -18.375 C 6.066406 -19.570312 7.957031 -20.171875 10.0625 -20.171875 C 11.03125 -20.171875 12.003906 -20.066406 12.984375 -19.859375 C 13.972656 -19.648438 14.867188 -19.242188 15.671875 -18.640625 C 16.472656 -18.046875 16.875 -17.320312 16.875 -16.46875 C 16.875 -15.71875 16.535156 -15.070312 15.859375 -14.53125 C 15.179688 -13.988281 14.164062 -13.632812 12.8125 -13.46875 Z M 12.8125 -13.46875 "/></g></g></g><g fill="#000000" fill-opacity="1"><g transform="translate(205.978676, 209.622899)"><g><path d="M 17.125 -20.171875 C 19.207031 -20.171875 20.25 -19.476562 20.25 -18.09375 C 20.25 -16.78125 19.753906 -14.566406 18.765625 -11.453125 C 17.785156 -8.335938 16.617188 -5.335938 15.265625 -2.453125 C 13.316406 1.617188 11.222656 5.28125 8.984375 8.53125 C 8.148438 9.769531 7.179688 10.390625 6.078125 10.390625 C 4.660156 10.390625 3.300781 9.546875 2 7.859375 C 4.320312 6.109375 6.484375 3.65625 8.484375 0.5 C 4.742188 -9.863281 1.914062 -15.976562 0 -17.84375 C 1.800781 -19.25 3.351562 -19.953125 4.65625 -19.953125 C 5.289062 -19.953125 5.796875 -19.8125 6.171875 -19.53125 C 6.546875 -19.257812 6.875 -18.820312 7.15625 -18.21875 C 7.59375 -17.238281 8.253906 -15.238281 9.140625 -12.21875 C 10.035156 -9.195312 10.726562 -6.550781 11.21875 -4.28125 C 11.96875 -6.550781 12.65625 -9.046875 13.28125 -11.765625 C 13.90625 -14.484375 14.21875 -16.4375 14.21875 -17.625 C 14.21875 -18.289062 14.175781 -18.929688 14.09375 -19.546875 C 15.039062 -19.960938 16.050781 -20.171875 17.125 -20.171875 Z M 17.125 -20.171875 "/></g></g></g></svg>