<svg xmlns="http://www.w3.org/2000/svg" xmlns:xlink="http://www.w3.org/1999/xlink" width="500" zoomAndPan="magnify" viewBox="0 0 375 374.999991" height="500" preserveAspectRatio="xMidYMid meet" version="1.0"><defs><clipPath id="01b9ca7407"><path d="M 187.5 0 C 83.945312 0 0 83.945312 0 187.5 C 0 291.054688 83.945312 375 187.5 375 C 291.054688 375 375 291.054688 375 187.5 C 375 83.945312 291.054688 0 187.5 0 Z M 187.5 0 " clip-rule="nonzero"/></clipPath><clipPath id="1f218d0ba2"><path d="M 67.625 67.625 L 307.625 67.625 L 307.625 307.625 L 67.625 307.625 Z M 67.625 67.625 " clip-rule="nonzero"/></clipPath></defs><rect x="-37.5" width="450" fill="#ffffff" y="-37.499999" height="449.999989" fill-opacity="1"/><rect x="-37.5" width="450" fill="#ffffff" y="-37.499999" height="449.999989" fill-opacity="1"/><g clip-path="url(#01b9ca7407)"><rect x="-37.5" width="450" fill="#ffe5fe" y="-37.499999" height="449.999989" fill-opacity="1"/></g><path fill="#000000" d="M 199.148438 151.636719 L 199.148438 171.148438 L 223.714844 171.148438 L 220.277344 197.835938 L 199.148438 197.835938 L 199.148438 259 L 172.359375 259 L 172.359375 197.835938 L 149.410156 197.835938 L 149.410156 171.148438 L 172.359375 171.148438 L 172.359375 151.636719 C 172.359375 130.507812 189.445312 116.25 210.574219 116.25 C 219.875 116.25 225.738281 117.667969 225.738281 117.667969 L 225.738281 140.210938 L 210.574219 140.210938 C 204.304688 140.210938 199.148438 145.367188 199.148438 151.636719 Z M 199.148438 151.636719 " fill-opacity="1" fill-rule="nonzero"/><g clip-path="url(#1f218d0ba2)"><path fill="#000000" d="M 187.625 307.625 C 121.507812 307.625 67.625 253.84375 67.625 187.625 C 67.625 121.40625 121.507812 67.625 187.625 67.625 C 253.84375 67.625 307.625 121.507812 307.625 187.625 C 307.625 253.742188 253.84375 307.625 187.625 307.625 Z M 187.625 74.195312 C 125.046875 74.195312 74.195312 125.046875 74.195312 187.625 C 74.195312 250.203125 125.046875 301.054688 187.625 301.054688 C 250.203125 301.054688 301.054688 250.203125 301.054688 187.625 C 301.054688 125.046875 250.203125 74.195312 187.625 74.195312 Z M 187.625 74.195312 " fill-opacity="1" fill-rule="nonzero"/></g></svg>