<svg xmlns="http://www.w3.org/2000/svg" xmlns:xlink="http://www.w3.org/1999/xlink" width="133" zoomAndPan="magnify" viewBox="0 0 99.75 99.749997" height="133" preserveAspectRatio="xMidYMid meet" version="1.0"><defs><clipPath id="3637425fb9"><path d="M 0 0 L 99.5 0 L 99.5 99.5 L 0 99.5 Z M 0 0 " clip-rule="nonzero"/></clipPath><clipPath id="10791ff6c5"><path d="M 0 0 L 98.820312 0 L 98.820312 98.820312 L 0 98.820312 Z M 0 0 " clip-rule="nonzero"/></clipPath><clipPath id="e5888a2710"><path d="M 49.410156 0 C 22.121094 0 0 22.121094 0 49.410156 C 0 76.699219 22.121094 98.820312 49.410156 98.820312 C 76.699219 98.820312 98.820312 76.699219 98.820312 49.410156 C 98.820312 22.121094 76.699219 0 49.410156 0 Z M 49.410156 0 " clip-rule="nonzero"/></clipPath></defs><g clip-path="url(#3637425fb9)"><path fill="#ffffff" d="M 0 0 L 99.5 0 L 99.5 99.5 L 0 99.5 Z M 0 0 " fill-opacity="1" fill-rule="nonzero"/></g><g clip-path="url(#10791ff6c5)"><g clip-path="url(#e5888a2710)"><path fill="#d0e7d2" d="M 0 0 L 98.820312 0 L 98.820312 98.820312 L 0 98.820312 Z M 0 0 " fill-opacity="1" fill-rule="nonzero"/></g></g><path fill="#000000" d="M 29.988281 68.949219 C 19.203125 58.179688 19.203125 40.742188 29.988281 29.972656 C 40.773438 19.199219 58.234375 19.199219 69.019531 29.972656 C 79.808594 40.742188 79.804688 58.175781 69.019531 68.949219 C 58.234375 79.722656 40.777344 79.722656 29.988281 68.949219 Z M 49.503906 23.792969 C 35.332031 23.792969 23.800781 35.308594 23.800781 49.460938 C 23.800781 63.613281 35.332031 75.128906 49.503906 75.128906 C 63.675781 75.128906 75.207031 63.613281 75.207031 49.460938 C 75.207031 35.308594 63.675781 23.792969 49.503906 23.792969 Z M 49.503906 23.792969 " fill-opacity="1" fill-rule="nonzero"/><path fill="#000000" d="M 58.613281 41.308594 C 56.871094 40.964844 56.878906 38.488281 58.613281 38.113281 C 60.199219 37.792969 61.21875 39.757812 60.082031 40.859375 C 59.671875 41.269531 59.183594 41.417969 58.613281 41.308594 Z M 58.613281 41.308594 " fill-opacity="1" fill-rule="nonzero"/><path fill="#000000" d="M 58.609375 65.792969 L 40.398438 65.792969 C 39.921875 65.789062 39.449219 65.742188 38.984375 65.652344 C 38.519531 65.558594 38.066406 65.417969 37.625 65.238281 C 37.1875 65.054688 36.769531 64.832031 36.375 64.570312 C 35.980469 64.304688 35.613281 64.003906 35.277344 63.667969 C 34.941406 63.332031 34.640625 62.96875 34.375 62.574219 C 34.109375 62.179688 33.886719 61.761719 33.707031 61.324219 C 33.523438 60.882812 33.386719 60.429688 33.292969 59.964844 C 33.199219 59.5 33.152344 59.03125 33.152344 58.554688 L 33.152344 40.367188 C 33.152344 39.890625 33.199219 39.421875 33.292969 38.957031 C 33.386719 38.488281 33.523438 38.039062 33.707031 37.597656 C 33.886719 37.160156 34.109375 36.742188 34.375 36.347656 C 34.640625 35.953125 34.941406 35.585938 35.277344 35.25 C 35.613281 34.917969 35.980469 34.617188 36.375 34.351562 C 36.769531 34.089844 37.1875 33.863281 37.625 33.683594 C 38.066406 33.5 38.519531 33.363281 38.984375 33.269531 C 39.449219 33.175781 39.921875 33.128906 40.398438 33.128906 L 58.609375 33.128906 C 59.085938 33.128906 59.558594 33.175781 60.023438 33.269531 C 60.488281 33.363281 60.941406 33.5 61.382812 33.683594 C 61.820312 33.863281 62.238281 34.089844 62.632812 34.351562 C 63.03125 34.617188 63.394531 34.917969 63.730469 35.25 C 64.066406 35.585938 64.367188 35.953125 64.632812 36.347656 C 64.898438 36.742188 65.121094 37.160156 65.304688 37.597656 C 65.484375 38.039062 65.621094 38.488281 65.714844 38.957031 C 65.808594 39.421875 65.855469 39.890625 65.855469 40.367188 L 65.855469 58.554688 C 65.855469 59.03125 65.808594 59.5 65.714844 59.964844 C 65.621094 60.429688 65.484375 60.882812 65.304688 61.324219 C 65.121094 61.761719 64.898438 62.179688 64.632812 62.574219 C 64.367188 62.96875 64.066406 63.332031 63.730469 63.667969 C 63.394531 64.003906 63.03125 64.304688 62.632812 64.570312 C 62.238281 64.832031 61.820312 65.054688 61.382812 65.238281 C 60.941406 65.417969 60.488281 65.558594 60.023438 65.652344 C 59.558594 65.742188 59.085938 65.789062 58.609375 65.792969 Z M 40.398438 35.023438 C 40.046875 35.023438 39.699219 35.058594 39.355469 35.125 C 39.007812 35.195312 38.675781 35.296875 38.351562 35.429688 C 38.027344 35.566406 37.71875 35.730469 37.425781 35.925781 C 37.132812 36.121094 36.863281 36.339844 36.617188 36.589844 C 36.367188 36.835938 36.144531 37.105469 35.949219 37.398438 C 35.753906 37.691406 35.589844 38 35.457031 38.320312 C 35.320312 38.644531 35.21875 38.980469 35.148438 39.324219 C 35.082031 39.667969 35.046875 40.015625 35.046875 40.367188 L 35.046875 58.554688 C 35.046875 58.90625 35.082031 59.253906 35.148438 59.597656 C 35.21875 59.941406 35.320312 60.273438 35.457031 60.597656 C 35.589844 60.921875 35.753906 61.230469 35.949219 61.523438 C 36.144531 61.8125 36.367188 62.082031 36.617188 62.332031 C 36.863281 62.578125 37.132812 62.800781 37.425781 62.996094 C 37.71875 63.191406 38.027344 63.355469 38.351562 63.492188 C 38.675781 63.625 39.007812 63.726562 39.355469 63.796875 C 39.699219 63.863281 40.046875 63.898438 40.398438 63.898438 L 58.609375 63.898438 C 58.960938 63.898438 59.308594 63.863281 59.652344 63.796875 C 60 63.726562 60.332031 63.625 60.65625 63.492188 C 60.980469 63.355469 61.289062 63.191406 61.582031 62.996094 C 61.875 62.800781 62.144531 62.578125 62.394531 62.332031 C 62.640625 62.082031 62.863281 61.8125 63.058594 61.523438 C 63.253906 61.230469 63.417969 60.921875 63.554688 60.597656 C 63.6875 60.273438 63.789062 59.941406 63.859375 59.597656 C 63.925781 59.253906 63.960938 58.90625 63.960938 58.554688 L 63.960938 40.367188 C 63.960938 40.015625 63.925781 39.667969 63.859375 39.324219 C 63.789062 38.980469 63.6875 38.644531 63.554688 38.320312 C 63.417969 38 63.253906 37.691406 63.058594 37.398438 C 62.863281 37.105469 62.640625 36.835938 62.394531 36.589844 C 62.144531 36.339844 61.875 36.121094 61.582031 35.925781 C 61.289062 35.730469 60.980469 35.566406 60.65625 35.429688 C 60.332031 35.296875 60 35.195312 59.652344 35.125 C 59.308594 35.058594 58.960938 35.023438 58.609375 35.023438 Z M 40.398438 35.023438 " fill-opacity="1" fill-rule="nonzero"/><path fill="#000000" d="M 49.503906 58.195312 C 48.929688 58.195312 48.359375 58.140625 47.796875 58.027344 C 47.234375 57.914062 46.6875 57.75 46.15625 57.53125 C 45.625 57.308594 45.121094 57.042969 44.644531 56.722656 C 44.167969 56.402344 43.726562 56.042969 43.320312 55.636719 C 42.914062 55.230469 42.550781 54.789062 42.230469 54.3125 C 41.914062 53.835938 41.644531 53.332031 41.421875 52.804688 C 41.203125 52.273438 41.039062 51.726562 40.925781 51.164062 C 40.8125 50.601562 40.757812 50.035156 40.757812 49.460938 C 40.757812 48.886719 40.8125 48.320312 40.925781 47.757812 C 41.039062 47.195312 41.203125 46.648438 41.421875 46.117188 C 41.644531 45.589844 41.914062 45.085938 42.230469 44.609375 C 42.550781 44.132812 42.914062 43.691406 43.320312 43.285156 C 43.726562 42.878906 44.167969 42.515625 44.644531 42.199219 C 45.121094 41.878906 45.625 41.609375 46.15625 41.390625 C 46.6875 41.171875 47.234375 41.003906 47.796875 40.894531 C 48.359375 40.78125 48.929688 40.726562 49.503906 40.726562 C 50.078125 40.726562 50.648438 40.78125 51.210938 40.894531 C 51.773438 41.003906 52.320312 41.171875 52.851562 41.390625 C 53.382812 41.609375 53.886719 41.878906 54.363281 42.199219 C 54.839844 42.515625 55.28125 42.878906 55.6875 43.285156 C 56.09375 43.691406 56.457031 44.132812 56.777344 44.609375 C 57.09375 45.085938 57.363281 45.589844 57.585938 46.117188 C 57.804688 46.648438 57.96875 47.195312 58.082031 47.757812 C 58.195312 48.320312 58.25 48.886719 58.25 49.460938 C 58.25 50.035156 58.191406 50.601562 58.082031 51.164062 C 57.96875 51.726562 57.800781 52.273438 57.582031 52.800781 C 57.363281 53.332031 57.09375 53.832031 56.773438 54.308594 C 56.453125 54.785156 56.089844 55.226562 55.683594 55.632812 C 55.28125 56.039062 54.839844 56.402344 54.359375 56.71875 C 53.882812 57.039062 53.378906 57.308594 52.847656 57.527344 C 52.320312 57.746094 51.773438 57.914062 51.210938 58.023438 C 50.648438 58.136719 50.078125 58.195312 49.503906 58.195312 Z M 49.503906 42.617188 C 49.054688 42.617188 48.609375 42.664062 48.167969 42.75 C 47.726562 42.835938 47.296875 42.96875 46.882812 43.140625 C 46.464844 43.3125 46.070312 43.523438 45.699219 43.773438 C 45.324219 44.019531 44.976562 44.304688 44.660156 44.621094 C 44.339844 44.941406 44.058594 45.285156 43.808594 45.660156 C 43.558594 46.03125 43.347656 46.425781 43.175781 46.84375 C 43.003906 47.257812 42.871094 47.683594 42.785156 48.125 C 42.695312 48.566406 42.652344 49.011719 42.652344 49.460938 C 42.652344 49.910156 42.695312 50.355469 42.785156 50.796875 C 42.871094 51.234375 43.003906 51.664062 43.175781 52.078125 C 43.347656 52.492188 43.558594 52.886719 43.808594 53.261719 C 44.058594 53.636719 44.339844 53.980469 44.660156 54.296875 C 44.976562 54.617188 45.324219 54.898438 45.699219 55.148438 C 46.070312 55.398438 46.464844 55.609375 46.882812 55.78125 C 47.296875 55.953125 47.726562 56.082031 48.167969 56.171875 C 48.609375 56.257812 49.054688 56.300781 49.503906 56.300781 C 49.953125 56.300781 50.398438 56.257812 50.839844 56.171875 C 51.28125 56.082031 51.710938 55.953125 52.125 55.78125 C 52.542969 55.609375 52.9375 55.398438 53.308594 55.148438 C 53.683594 54.898438 54.03125 54.617188 54.347656 54.296875 C 54.667969 53.980469 54.949219 53.636719 55.199219 53.261719 C 55.449219 52.886719 55.660156 52.492188 55.832031 52.078125 C 56.003906 51.664062 56.136719 51.234375 56.222656 50.796875 C 56.3125 50.355469 56.355469 49.910156 56.355469 49.460938 C 56.355469 49.011719 56.308594 48.566406 56.222656 48.125 C 56.132812 47.6875 56.003906 47.257812 55.832031 46.84375 C 55.660156 46.429688 55.449219 46.035156 55.199219 45.660156 C 54.949219 45.289062 54.664062 44.941406 54.347656 44.625 C 54.027344 44.308594 53.683594 44.023438 53.308594 43.773438 C 52.933594 43.523438 52.539062 43.3125 52.125 43.140625 C 51.710938 42.96875 51.28125 42.839844 50.839844 42.75 C 50.398438 42.664062 49.953125 42.621094 49.503906 42.617188 Z M 49.503906 42.617188 " fill-opacity="1" fill-rule="nonzero"/></svg>