<svg xmlns="http://www.w3.org/2000/svg" xmlns:xlink="http://www.w3.org/1999/xlink" width="500" zoomAndPan="magnify" viewBox="0 0 375 374.999991" height="500" preserveAspectRatio="xMidYMid meet" version="1.0"><defs><clipPath id="e041b74746"><path d="M 187.5 0 C 83.945312 0 0 83.945312 0 187.5 C 0 291.054688 83.945312 375 187.5 375 C 291.054688 375 375 291.054688 375 187.5 C 375 83.945312 291.054688 0 187.5 0 Z M 187.5 0 " clip-rule="nonzero"/></clipPath><clipPath id="acf1253a1c"><path d="M 27.472656 160 L 298 160 L 298 219.792969 L 27.472656 219.792969 Z M 27.472656 160 " clip-rule="nonzero"/></clipPath><clipPath id="50022cc368"><path d="M 300 153.792969 L 354 153.792969 L 354 219 L 300 219 Z M 300 153.792969 " clip-rule="nonzero"/></clipPath></defs><rect x="-37.5" width="450" fill="#ffffff" y="-37.499999" height="449.999989" fill-opacity="1"/><rect x="-37.5" width="450" fill="#ffffff" y="-37.499999" height="449.999989" fill-opacity="1"/><g clip-path="url(#e041b74746)"><rect x="-37.5" width="450" fill="#ffe5fe" y="-37.499999" height="449.999989" fill-opacity="1"/></g><g clip-path="url(#acf1253a1c)"><path fill="#000000" d="M 27.472656 160.917969 L 36.835938 160.917969 L 36.835938 210.023438 L 62.710938 210.023438 L 62.710938 218.65625 L 27.472656 218.65625 Z M 71.921875 160.917969 C 72.683594 160.90625 73.4375 161.046875 74.140625 161.324219 C 74.847656 161.605469 75.492188 162.019531 76.035156 162.550781 C 76.578125 163.078125 77.011719 163.707031 77.3125 164.402344 C 77.613281 165.097656 77.773438 165.84375 77.78125 166.601562 C 77.78125 168.148438 77.164062 169.632812 76.066406 170.726562 C 74.96875 171.820312 73.476562 172.433594 71.921875 172.433594 C 70.367188 172.433594 68.878906 171.820312 67.777344 170.726562 C 66.679688 169.632812 66.0625 168.148438 66.0625 166.601562 C 66.066406 165.839844 66.21875 165.089844 66.515625 164.394531 C 66.816406 163.695312 67.25 163.0625 67.792969 162.535156 C 68.339844 162.003906 68.984375 161.589844 69.695312 161.3125 C 70.402344 161.035156 71.160156 160.898438 71.921875 160.917969 Z M 67.355469 177.058594 L 76.335938 177.058594 L 76.335938 218.65625 L 67.355469 218.65625 Z M 81.589844 177.058594 L 90.570312 177.058594 L 90.570312 182.816406 C 93.226562 178.421875 97.796875 175.921875 103.808594 175.921875 C 113.550781 175.921875 119.640625 183.5 119.640625 195.546875 L 119.640625 218.65625 L 110.65625 218.65625 L 110.65625 196.304688 C 110.65625 188.5 107.234375 184.105469 101.046875 184.105469 C 94.277344 184.105469 90.550781 188.726562 90.550781 197.0625 L 90.550781 218.65625 L 81.566406 218.65625 Z M 124.359375 160.917969 L 133.339844 160.917969 L 133.339844 197.441406 L 150.082031 177.058594 L 161.347656 177.058594 L 143.460938 197.898438 L 161.347656 218.65625 L 150.082031 218.65625 L 133.339844 198.351562 L 133.339844 218.65625 L 124.359375 218.65625 Z M 164.847656 166.472656 L 173.984375 166.472656 L 173.984375 177.082031 L 184.636719 177.082031 L 184.636719 184.507812 L 173.984375 184.507812 L 173.984375 205.949219 C 173.984375 208.683594 175.65625 210.351562 178.246094 210.351562 L 184.261719 210.351562 L 184.261719 218.679688 L 177.027344 218.679688 C 169.1875 218.679688 164.847656 214.058594 164.847656 205.878906 Z M 188.597656 177.082031 L 197.578125 177.082031 L 197.578125 182.234375 C 199.785156 178.296875 203.515625 175.945312 208.082031 175.945312 C 209.136719 175.898438 210.191406 176.027344 211.203125 176.324219 L 211.203125 184.660156 C 210.101562 184.421875 208.976562 184.320312 207.851562 184.359375 C 201.230469 184.359375 197.578125 189.914062 197.578125 199.4375 L 197.578125 218.679688 L 188.597656 218.679688 Z M 232.203125 175.945312 C 242.097656 175.945312 252.828125 181.933594 252.828125 198.832031 L 252.828125 200.042969 L 220.632812 200.042969 C 221.324219 207.464844 225.65625 211.558594 232.886719 211.558594 C 238.0625 211.558594 242.476562 208.753906 243.46875 204.894531 L 252.601562 204.894531 C 251.6875 213.226562 243.011719 219.816406 232.886719 219.816406 C 219.949219 219.816406 211.8125 211.40625 211.8125 197.847656 C 211.8125 185.773438 219.648438 175.921875 232.203125 175.921875 Z M 243.238281 192.617188 C 241.945312 187.464844 237.910156 184.207031 232.203125 184.207031 C 226.722656 184.207031 222.847656 187.539062 221.324219 192.617188 Z M 277.183594 175.945312 C 287.082031 175.945312 297.8125 181.933594 297.8125 198.832031 L 297.8125 200.042969 L 265.617188 200.042969 C 266.300781 207.464844 270.640625 211.558594 277.871094 211.558594 C 283.046875 211.558594 287.460938 208.753906 288.449219 204.894531 L 297.582031 204.894531 C 296.671875 213.226562 287.992188 219.816406 277.871094 219.816406 C 264.929688 219.816406 256.789062 211.40625 256.789062 197.847656 C 256.789062 185.773438 264.628906 175.921875 277.183594 175.921875 Z M 288.222656 192.617188 C 286.929688 187.464844 282.894531 184.207031 277.183594 184.207031 C 271.707031 184.207031 267.824219 187.539062 266.300781 192.617188 Z M 288.222656 192.617188 " fill-opacity="1" fill-rule="nonzero"/></g><g clip-path="url(#50022cc368)"><path fill="#000000" d="M 300.023438 175.792969 L 316.082031 175.792969 L 304.664062 164.957031 L 310.980469 158.492188 L 321.867188 169.628906 L 321.867188 153.792969 L 331.304688 153.792969 L 331.304688 169.628906 L 342.1875 158.515625 L 348.5 164.957031 L 337.089844 175.769531 L 353.144531 175.769531 L 353.144531 184.710938 L 336.996094 184.710938 L 348.484375 195.824219 L 342.1875 202.140625 L 326.585938 186.53125 L 310.980469 202.140625 L 304.664062 195.851562 L 316.15625 184.738281 L 300.023438 184.738281 Z M 321.839844 197.542969 L 331.277344 197.542969 L 331.277344 218.761719 L 321.839844 218.761719 Z M 321.839844 197.542969 " fill-opacity="1" fill-rule="nonzero"/></g></svg>